<?xml version="1.0" encoding="UTF-8"?>
<!DOCTYPE svg PUBLIC "-//W3C//DTD SVG 1.1//EN" "http://www.w3.org/Graphics/SVG/1.1/DTD/svg11.dtd">
<svg xmlns="http://www.w3.org/2000/svg" version="1.1" width="1468px" height="1452px" style="shape-rendering:geometricPrecision; text-rendering:geometricPrecision; image-rendering:optimizeQuality; fill-rule:evenodd; clip-rule:evenodd" xmlns:xlink="http://www.w3.org/1999/xlink">
<g><path style="opacity:1" fill="#fefefe" d="M -0.5,-0.5 C 488.5,-0.5 977.5,-0.5 1466.5,-0.5C 1466.5,20.8333 1466.5,42.1667 1466.5,63.5C 1374.83,63.5 1283.17,63.5 1191.5,63.5C 1190.83,118.833 1190.17,174.167 1189.5,229.5C 1130.29,149.67 1052.29,96.8364 955.5,71C 917.371,61.1453 878.705,54.6453 839.5,51.5C 810.176,50.6371 780.843,50.3038 751.5,50.5C 644.044,54.1546 541.378,77.988 443.5,122C 308.236,185.269 202.07,280.769 125,408.5C 49.179,544.018 18.8457,689.352 34,844.5C 56.205,1040.45 142.372,1201.29 292.5,1327C 354.86,1376.53 423.86,1414.69 499.5,1441.5C 500.978,1443.36 502.978,1444.7 505.5,1445.5C 336.835,1446.5 168.168,1446.83 -0.5,1446.5C -0.5,964.167 -0.5,481.833 -0.5,-0.5 Z"/></g>
<g><path style="opacity:1" fill="#212122" d="M 1466.5,-0.5 C 1466.83,-0.5 1467.17,-0.5 1467.5,-0.5C 1467.5,483.5 1467.5,967.5 1467.5,1451.5C 1441.83,1451.5 1416.17,1451.5 1390.5,1451.5C 1390.5,1451.17 1390.5,1450.83 1390.5,1450.5C 1414.34,1450.83 1438.01,1450.5 1461.5,1449.5C 1463.62,1448.97 1465.12,1447.64 1466,1445.5C 1466.5,985.5 1466.67,525.5 1466.5,65.5C 1466.5,65.1667 1466.5,64.8333 1466.5,64.5C 1466.5,64.1667 1466.5,63.8333 1466.5,63.5C 1466.5,42.1667 1466.5,20.8333 1466.5,-0.5 Z"/></g>
<g><path style="opacity:1" fill="#050b31" d="M 751.5,50.5 C 780.843,50.3038 810.176,50.6371 839.5,51.5C 836.854,52.1644 834.021,52.4978 831,52.5C 804.337,51.9126 777.837,51.246 751.5,50.5 Z"/></g>
<g><path style="opacity:1" fill="#172749" d="M 751.5,50.5 C 777.837,51.246 804.337,51.9126 831,52.5C 834.021,52.4978 836.854,52.1644 839.5,51.5C 878.705,54.6453 917.371,61.1453 955.5,71C 1052.29,96.8364 1130.29,149.67 1189.5,229.5C 1189.83,230.5 1190.5,231.167 1191.5,231.5C 1192.17,231.5 1192.5,231.167 1192.5,230.5C 1193.5,175.669 1193.83,120.669 1193.5,65.5C 1284.5,65.5 1375.5,65.5 1466.5,65.5C 1466.67,525.5 1466.5,985.5 1466,1445.5C 1465.12,1447.64 1463.62,1448.97 1461.5,1449.5C 1372.17,1449.5 1282.83,1449.5 1193.5,1449.5C 1193.83,1384.66 1193.5,1320 1192.5,1255.5C 1192.17,1255.5 1191.83,1255.5 1191.5,1255.5C 1190.67,1254.56 1190.01,1254.89 1189.5,1256.5C 1170.53,1289.98 1146.2,1319.15 1116.5,1344C 1065.87,1383.66 1009.87,1413.99 948.5,1435C 931.329,1440.45 914.329,1445.95 897.5,1451.5C 774.833,1451.5 652.167,1451.5 529.5,1451.5C 519.735,1447.8 509.735,1444.47 499.5,1441.5C 423.86,1414.69 354.86,1376.53 292.5,1327C 142.372,1201.29 56.205,1040.45 34,844.5C 18.8457,689.352 49.179,544.018 125,408.5C 202.07,280.769 308.236,185.269 443.5,122C 541.378,77.988 644.044,54.1546 751.5,50.5 Z"/></g>
<g><path style="opacity:1" fill="#bbbdc3" d="M 1191.5,63.5 C 1191.5,119.5 1191.5,175.5 1191.5,231.5C 1190.5,231.167 1189.83,230.5 1189.5,229.5C 1190.17,174.167 1190.83,118.833 1191.5,63.5 Z"/></g>
<g><path style="opacity:1" fill="#27324f" d="M 1466.5,64.5 C 1466.5,64.8333 1466.5,65.1667 1466.5,65.5C 1375.5,65.5 1284.5,65.5 1193.5,65.5C 1193.83,120.669 1193.5,175.669 1192.5,230.5C 1192.5,175.167 1192.5,119.833 1192.5,64.5C 1283.83,64.5 1375.17,64.5 1466.5,64.5 Z"/></g>
<g><path style="opacity:1" fill="#010025" d="M 1191.5,63.5 C 1283.17,63.5 1374.83,63.5 1466.5,63.5C 1466.5,63.8333 1466.5,64.1667 1466.5,64.5C 1375.17,64.5 1283.83,64.5 1192.5,64.5C 1192.5,119.833 1192.5,175.167 1192.5,230.5C 1192.5,231.167 1192.17,231.5 1191.5,231.5C 1191.5,175.5 1191.5,119.5 1191.5,63.5 Z"/></g>
<g><path style="opacity:1" fill="#fefefe" d="M 822.5,290.5 C 827.583,292.078 832.916,292.745 838.5,292.5C 945.205,303.534 1037.54,345.368 1115.5,418C 1140.51,442.004 1163.68,467.504 1185,494.5C 1186,497.167 1187,499.833 1188,502.5C 1188.67,670.833 1188.67,839.167 1188,1007.5C 1181.42,1025.32 1172.76,1041.99 1162,1057.5C 1090.08,1158.24 992.916,1219.74 870.5,1242C 849.335,1245.89 828.002,1248.06 806.5,1248.5C 781.158,1248.66 755.824,1248.32 730.5,1247.5C 617.106,1237.61 518.439,1194.78 434.5,1119C 320.907,1008.6 271.073,874.095 285,715.5C 299.598,580.432 359.431,470.599 464.5,386C 541.64,328.053 628.64,295.72 725.5,289C 757.87,288.029 790.204,288.529 822.5,290.5 Z"/></g>
<g><path style="opacity:1" fill="#adb0b7" d="M 822.5,290.5 C 828.034,290.668 833.367,291.335 838.5,292.5C 832.916,292.745 827.583,292.078 822.5,290.5 Z"/></g>
<g><path style="opacity:1" fill="#d3d5d9" d="M 730.5,1247.5 C 755.824,1248.32 781.158,1248.66 806.5,1248.5C 796.005,1249.17 785.339,1249.5 774.5,1249.5C 759.633,1249.71 744.966,1249.04 730.5,1247.5 Z"/></g>
<g><path style="opacity:1" fill="#fcfcfc" d="M 1189.5,1256.5 C 1190.5,1321.33 1190.83,1386.33 1190.5,1451.5C 1092.83,1451.5 995.167,1451.5 897.5,1451.5C 914.329,1445.95 931.329,1440.45 948.5,1435C 1009.87,1413.99 1065.87,1383.66 1116.5,1344C 1146.2,1319.15 1170.53,1289.98 1189.5,1256.5 Z"/></g>
<g><path style="opacity:1" fill="#bbbdc3" d="M 1191.5,1255.5 C 1191.5,1320.83 1191.5,1386.17 1191.5,1451.5C 1191.17,1451.5 1190.83,1451.5 1190.5,1451.5C 1190.83,1386.33 1190.5,1321.33 1189.5,1256.5C 1190.01,1254.89 1190.67,1254.56 1191.5,1255.5 Z"/></g>
<g><path style="opacity:1" fill="#f8f8f8" d="M 499.5,1441.5 C 509.735,1444.47 519.735,1447.8 529.5,1451.5C 352.833,1451.5 176.167,1451.5 -0.5,1451.5C -0.5,1449.83 -0.5,1448.17 -0.5,1446.5C 168.168,1446.83 336.835,1446.5 505.5,1445.5C 502.978,1444.7 500.978,1443.36 499.5,1441.5 Z"/></g>
<g><path style="opacity:1" fill="#27334f" d="M 1192.5,1255.5 C 1193.5,1320 1193.83,1384.66 1193.5,1449.5C 1282.83,1449.5 1372.17,1449.5 1461.5,1449.5C 1438.01,1450.5 1414.34,1450.83 1390.5,1450.5C 1324.5,1450.5 1258.5,1450.5 1192.5,1450.5C 1192.5,1385.5 1192.5,1320.5 1192.5,1255.5 Z"/></g>
<g><path style="opacity:1" fill="#00001b" d="M 1191.5,1255.5 C 1191.83,1255.5 1192.17,1255.5 1192.5,1255.5C 1192.5,1320.5 1192.5,1385.5 1192.5,1450.5C 1258.5,1450.5 1324.5,1450.5 1390.5,1450.5C 1390.5,1450.83 1390.5,1451.17 1390.5,1451.5C 1324.17,1451.5 1257.83,1451.5 1191.5,1451.5C 1191.5,1386.17 1191.5,1320.83 1191.5,1255.5 Z"/></g>
</svg>
