<?xml version="1.0" encoding="UTF-8"?>
<!DOCTYPE svg PUBLIC "-//W3C//DTD SVG 1.1//EN" "http://www.w3.org/Graphics/SVG/1.1/DTD/svg11.dtd">
<svg xmlns="http://www.w3.org/2000/svg" version="1.1" width="945px" height="945px" style="shape-rendering:geometricPrecision; text-rendering:geometricPrecision; image-rendering:optimizeQuality; fill-rule:evenodd; clip-rule:evenodd" xmlns:xlink="http://www.w3.org/1999/xlink">
<g><path style="opacity:1" fill="#9b9b9b" d="M 0.5,-0.5 C 314.167,-0.5 627.833,-0.5 941.5,-0.5C 628.167,0.166667 314.833,0.833333 1.5,1.5C 0.661754,1.15829 0.32842,0.491622 0.5,-0.5 Z"/></g>
<g><path style="opacity:1" fill="#b0b0b0" d="M 941.5,-0.5 C 941.833,-0.5 942.167,-0.5 942.5,-0.5C 942.5,0.166667 942.5,0.833333 942.5,1.5C 628.833,1.5 315.167,1.5 1.5,1.5C 314.833,0.833333 628.167,0.166667 941.5,-0.5 Z"/></g>
<g><path style="opacity:1" fill="#fefefe" d="M 1.5,1.5 C 315.167,1.5 628.833,1.5 942.5,1.5C 941.834,244.836 942.501,487.836 944.5,730.5C 944.5,785.833 944.5,841.167 944.5,896.5C 942.516,911.464 941.849,926.797 942.5,942.5C 628.833,942.5 315.167,942.5 1.5,942.5C 1.5,628.833 1.5,315.167 1.5,1.5 Z"/></g>
<g><path style="opacity:1" fill="#a5a2a1" d="M 942.5,-0.5 C 943.167,-0.5 943.833,-0.5 944.5,-0.5C 944.5,243.167 944.5,486.833 944.5,730.5C 942.501,487.836 941.834,244.836 942.5,1.5C 942.5,0.833333 942.5,0.166667 942.5,-0.5 Z"/></g>
<g><path style="opacity:1" fill="#aeaeae" d="M -0.5,-0.5 C -0.166667,-0.5 0.166667,-0.5 0.5,-0.5C 0.32842,0.491622 0.661754,1.15829 1.5,1.5C 1.5,315.167 1.5,628.833 1.5,942.5C 0.833333,630.833 0.166667,319.167 -0.5,7.5C -0.5,4.83333 -0.5,2.16667 -0.5,-0.5 Z"/></g>
<g><path style="opacity:1" fill="#c3c3c1" d="M 447.5,349.5 C 445.095,350.768 442.428,351.435 439.5,351.5C 418.993,351.83 398.66,351.497 378.5,350.5C 379.167,350.5 379.5,350.167 379.5,349.5C 399.983,272.565 421.149,195.898 443,119.5C 499.779,102.629 557.279,100.129 615.5,112C 635.771,117.648 653.605,127.481 669,141.5C 690.302,164.589 695.969,191.255 686,221.5C 673.147,251.693 652.981,275.86 625.5,294C 588.718,317.383 548.718,332.383 505.5,339C 486.247,341.578 466.914,343.245 447.5,344C 445.901,345.066 444.901,346.566 444.5,348.5C 445.325,349.386 446.325,349.719 447.5,349.5 Z"/></g>
<g><path style="opacity:1" fill="#fefefe" d="M 527.5,157.5 C 540.871,157.168 554.204,157.668 567.5,159C 597.399,165.297 606.232,182.464 594,210.5C 580.84,232.828 563.673,251.495 542.5,266.5C 529.932,274.187 516.932,281.02 503.5,287C 496.708,288.598 490.041,290.598 483.5,293C 475.286,294.876 466.953,295.709 458.5,295.5C 469.074,251.436 480.074,207.436 491.5,163.5C 503.563,161.164 515.563,159.164 527.5,157.5 Z"/></g>
<g><path style="opacity:1" fill="#5a7ca7" d="M 812.5,223.5 C 812.669,215.488 814.169,207.822 817,200.5C 817.821,197.446 817.655,194.446 816.5,191.5C 815.115,195.052 812.615,197.386 809,198.5C 806.793,201.078 804.96,203.911 803.5,207C 802.207,207.49 800.873,207.657 799.5,207.5C 807.112,199.045 814.612,190.379 822,181.5C 819.575,195.742 816.408,209.742 812.5,223.5 Z"/></g>
<g><path style="opacity:1" fill="#4977b2" d="M 812.5,223.5 C 812.5,224.5 812.5,225.5 812.5,226.5C 811.596,227.209 811.263,228.209 811.5,229.5C 809.827,230.343 808.66,231.676 808,233.5C 804.969,246.193 801.802,258.859 798.5,271.5C 794.865,276.81 793.532,282.644 794.5,289C 790.938,294.255 789.605,300.088 790.5,306.5C 790.567,307.959 790.234,309.292 789.5,310.5C 788.069,310.881 787.236,311.881 787,313.5C 785.642,319.905 784.475,326.238 783.5,332.5C 783.371,334.216 783.038,335.883 782.5,337.5C 775.041,350.788 770.707,365.121 769.5,380.5C 769.079,387.939 766.412,394.272 761.5,399.5C 758.747,400.732 756.08,402.232 753.5,404C 752.228,405.307 751.228,406.807 750.5,408.5C 749.549,407.674 748.549,407.508 747.5,408C 745.189,410.735 743.855,413.901 743.5,417.5C 741.523,420.468 738.856,422.802 735.5,424.5C 729.908,423.772 726.908,426.105 726.5,431.5C 724.167,431.5 721.833,431.5 719.5,431.5C 719.5,433.167 719.5,434.833 719.5,436.5C 713.429,441.203 706.763,444.87 699.5,447.5C 695.858,449.71 691.858,450.71 687.5,450.5C 687.5,451.5 687.5,452.5 687.5,453.5C 682.35,452.536 678.017,453.87 674.5,457.5C 670.044,457.868 666.044,459.368 662.5,462C 660.153,462.334 657.819,462.167 655.5,461.5C 655.5,462.833 655.5,464.167 655.5,465.5C 640.414,467.536 625.414,469.869 610.5,472.5C 612.447,471.85 614.113,470.683 615.5,469C 609.87,468.034 604.204,467.367 598.5,467C 574.831,467.687 551.165,467.521 527.5,466.5C 527.5,467.5 527.5,468.5 527.5,469.5C 548.833,469.5 570.167,469.5 591.5,469.5C 591.5,470.833 591.5,472.167 591.5,473.5C 596.805,472.806 602.138,472.472 607.5,472.5C 599.888,474.463 591.888,475.797 583.5,476.5C 570.174,475.499 556.841,475.499 543.5,476.5C 527.527,475.004 511.527,473.837 495.5,473C 484.309,470.709 472.975,469.876 461.5,470.5C 461.167,470.5 460.833,470.5 460.5,470.5C 456.584,468.441 452.75,466.108 449,463.5C 447.635,464.456 446.135,465.122 444.5,465.5C 437.619,463.774 430.619,463.107 423.5,463.5C 422.833,463.5 422.167,463.5 421.5,463.5C 421.279,462.265 420.612,461.265 419.5,460.5C 412.085,459.286 404.752,457.786 397.5,456C 399.107,454.951 399.773,453.451 399.5,451.5C 396.593,451.575 393.927,452.409 391.5,454C 387.514,454.499 383.514,454.666 379.5,454.5C 378.36,453.199 377.027,452.032 375.5,451C 367.305,450.441 359.305,449.274 351.5,447.5C 351.64,445.876 350.973,444.71 349.5,444C 345.285,443.372 341.118,442.538 337,441.5C 335.122,441.696 333.288,442.029 331.5,442.5C 330.833,442.5 330.167,442.5 329.5,442.5C 329.426,440.589 328.426,439.422 326.5,439C 324.19,438.503 321.857,438.337 319.5,438.5C 319.5,437.5 319.5,436.5 319.5,435.5C 318.5,435.5 317.5,435.5 316.5,435.5C 316.5,434.5 316.5,433.5 316.5,432.5C 313.133,432.457 309.799,432.79 306.5,433.5C 303.297,432.108 299.964,431.441 296.5,431.5C 296.313,429.436 295.813,427.436 295,425.5C 294.193,427.22 292.693,427.554 290.5,426.5C 284.29,428.234 277.956,428.901 271.5,428.5C 271.5,429.5 271.5,430.5 271.5,431.5C 267.833,431.5 264.167,431.5 260.5,431.5C 250.204,430.93 240.204,432.097 230.5,435C 226.514,437.49 222.181,439.157 217.5,440C 215.365,440.876 214.031,442.376 213.5,444.5C 207.291,447.685 200.957,450.685 194.5,453.5C 192.774,453.185 191.107,453.019 189.5,453C 187.399,455.77 184.732,457.77 181.5,459C 180.748,459.671 180.414,460.504 180.5,461.5C 178.887,462.692 177.22,463.692 175.5,464.5C 170.887,464.482 166.887,465.982 163.5,469C 159.34,470.702 155.007,471.702 150.5,472C 147.622,474.45 144.288,475.116 140.5,474C 139.944,473.617 139.611,473.117 139.5,472.5C 139.5,471.833 139.5,471.167 139.5,470.5C 146.136,460.87 153.47,451.87 161.5,443.5C 165.363,440.976 169.196,438.309 173,435.5C 173.856,433.132 174.69,430.798 175.5,428.5C 179.457,422.543 183.79,416.877 188.5,411.5C 191.106,409.58 193.773,407.58 196.5,405.5C 197.348,403.591 197.682,401.591 197.5,399.5C 199.417,398.091 201.25,396.424 203,394.5C 203.743,391.489 205.076,388.822 207,386.5C 207.494,384.866 207.66,383.199 207.5,381.5C 212.028,378.02 213.695,373.354 212.5,367.5C 213.833,367.5 215.167,367.5 216.5,367.5C 216.98,361.014 217.313,354.514 217.5,348C 217.491,343.443 216.825,339.276 215.5,335.5C 214.833,334.167 214.167,332.833 213.5,331.5C 213.215,327.809 212.215,324.309 210.5,321C 208.069,314.637 204.736,308.804 200.5,303.5C 201.791,302.527 201.791,301.527 200.5,300.5C 201.667,300.167 202.833,299.833 204,299.5C 215.811,300.426 227.644,300.76 239.5,300.5C 251.66,301.66 263.993,301.827 276.5,301C 285.794,300.956 294.794,299.79 303.5,297.5C 306.206,297.425 308.873,297.092 311.5,296.5C 311.739,298.467 311.406,300.301 310.5,302C 308.418,301.068 306.085,300.568 303.5,300.5C 303.335,303.85 303.502,307.183 304,310.5C 304.333,310.167 304.667,309.833 305,309.5C 306.658,316.247 306.325,322.913 304,329.5C 303.5,335.825 303.334,342.158 303.5,348.5C 319.5,349.167 335.5,349.833 351.5,350.5C 357.987,351.328 364.654,351.828 371.5,352C 374.097,354.646 377.263,356.146 381,356.5C 393.811,355.38 406.644,355.214 419.5,356C 420.766,356.309 421.933,356.809 423,357.5C 428.647,355.559 434.147,353.559 439.5,351.5C 442.428,351.435 445.095,350.768 447.5,349.5C 452.833,349.5 458.167,349.5 463.5,349.5C 464.152,350.725 465.319,351.392 467,351.5C 475.387,350.176 484.053,349.176 493,348.5C 494.376,348.316 495.209,347.649 495.5,346.5C 500.844,346.666 506.177,346.499 511.5,346C 513.32,345.8 514.653,344.966 515.5,343.5C 516.833,343.5 518.167,343.5 519.5,343.5C 532.383,342.972 545.05,340.972 557.5,337.5C 558.713,337.253 559.38,336.586 559.5,335.5C 564.828,334.501 570.161,333.501 575.5,332.5C 589.159,330.727 602.492,328.227 615.5,325C 618.299,323.864 620.466,322.031 622,319.5C 625.128,318.796 628.294,318.296 631.5,318C 633.884,316.098 636.551,314.931 639.5,314.5C 639.5,313.5 639.5,312.5 639.5,311.5C 640.167,311.5 640.833,311.5 641.5,311.5C 646.021,311.247 650.354,310.247 654.5,308.5C 655.167,308.833 655.833,309.167 656.5,309.5C 663.393,303.215 671.393,298.715 680.5,296C 681.305,294.887 681.972,293.721 682.5,292.5C 685.344,290.021 688.678,288.354 692.5,287.5C 696,287.39 699.334,286.557 702.5,285C 703.337,283.989 703.67,282.822 703.5,281.5C 704.873,281.657 706.207,281.49 707.5,281C 711.437,278.535 715.437,276.368 719.5,274.5C 719.5,273.5 719.5,272.5 719.5,271.5C 721.822,269.336 724.489,267.669 727.5,266.5C 730.98,264.95 734.314,263.116 737.5,261C 739.5,260.667 741.5,260.333 743.5,260C 745.246,257.341 746.58,254.508 747.5,251.5C 747.833,251.5 748.167,251.5 748.5,251.5C 754.299,249.379 758.965,245.712 762.5,240.5C 762.5,239.833 762.833,239.5 763.5,239.5C 766.564,238.629 769.564,237.462 772.5,236C 775.583,232.285 778.916,228.785 782.5,225.5C 783.386,224.675 783.719,223.675 783.5,222.5C 788.204,216.795 793.537,211.795 799.5,207.5C 800.873,207.657 802.207,207.49 803.5,207C 804.96,203.911 806.793,201.078 809,198.5C 812.615,197.386 815.115,195.052 816.5,191.5C 817.655,194.446 817.821,197.446 817,200.5C 814.169,207.822 812.669,215.488 812.5,223.5 Z"/></g>
<g><path style="opacity:1" fill="#5c7da4" d="M 783.5,222.5 C 783.719,223.675 783.386,224.675 782.5,225.5C 778.916,228.785 775.583,232.285 772.5,236C 769.564,237.462 766.564,238.629 763.5,239.5C 770.158,233.836 776.824,228.169 783.5,222.5 Z"/></g>
<g><path style="opacity:1" fill="#5f80a2" d="M 762.5,240.5 C 758.965,245.712 754.299,249.379 748.5,251.5C 752.795,247.353 757.462,243.687 762.5,240.5 Z"/></g>
<g><path style="opacity:1" fill="#587ba3" d="M 747.5,251.5 C 746.58,254.508 745.246,257.341 743.5,260C 741.5,260.333 739.5,260.667 737.5,261C 734.314,263.116 730.98,264.95 727.5,266.5C 734.128,261.512 740.795,256.512 747.5,251.5 Z"/></g>
<g><path style="opacity:1" fill="#5c7ba6" d="M 719.5,271.5 C 719.5,272.5 719.5,273.5 719.5,274.5C 715.437,276.368 711.437,278.535 707.5,281C 706.207,281.49 704.873,281.657 703.5,281.5C 703.67,282.822 703.337,283.989 702.5,285C 699.334,286.557 696,287.39 692.5,287.5C 701.295,281.931 710.295,276.598 719.5,271.5 Z"/></g>
<g><path style="opacity:1" fill="#768693" d="M 322.5,287.5 C 323.043,287.56 323.376,287.893 323.5,288.5C 322.5,290.813 321.166,292.813 319.5,294.5C 319.5,293.167 319.5,291.833 319.5,290.5C 320.833,289.833 321.833,288.833 322.5,287.5 Z"/></g>
<g><path style="opacity:1" fill="#5577a4" d="M 811.5,229.5 C 804.677,255.29 797.677,280.956 790.5,306.5C 789.605,300.088 790.938,294.255 794.5,289C 793.532,282.644 794.865,276.81 798.5,271.5C 801.802,258.859 804.969,246.193 808,233.5C 808.66,231.676 809.827,230.343 811.5,229.5 Z"/></g>
<g><path style="opacity:1" fill="#e4f3fa" d="M 238.5,299.5 C 224.062,299.916 209.729,298.916 195.5,296.5C 194.833,296.667 194.167,296.833 193.5,297C 195.758,298.753 197.425,300.919 198.5,303.5C 197.178,303.67 196.011,303.337 195,302.5C 194.028,300.695 192.861,299.028 191.5,297.5C 191.709,296.914 192.043,296.414 192.5,296C 208.036,296.198 223.369,297.365 238.5,299.5 Z"/></g>
<g><path style="opacity:1" fill="#6b88ab" d="M 238.5,299.5 C 238.833,299.5 239.167,299.5 239.5,299.5C 245.5,299.5 251.5,299.5 257.5,299.5C 251.69,300.49 245.69,300.823 239.5,300.5C 227.644,300.76 215.811,300.426 204,299.5C 202.833,299.833 201.667,300.167 200.5,300.5C 201.791,301.527 201.791,302.527 200.5,303.5C 199.833,303.5 199.167,303.5 198.5,303.5C 197.425,300.919 195.758,298.753 193.5,297C 194.167,296.833 194.833,296.667 195.5,296.5C 209.729,298.916 224.062,299.916 238.5,299.5 Z"/></g>
<g><path style="opacity:1" fill="#eefafe" d="M 322.5,287.5 C 321.833,288.833 320.833,289.833 319.5,290.5C 316.064,291.192 312.73,292.192 309.5,293.5C 296.79,296.001 284.123,298.001 271.5,299.5C 266.833,299.5 262.167,299.5 257.5,299.5C 251.5,299.5 245.5,299.5 239.5,299.5C 256.356,298.061 273.356,296.561 290.5,295C 293.571,294.853 296.404,294.02 299,292.5C 299.725,293.059 300.558,293.392 301.5,293.5C 308.278,290.684 315.278,288.684 322.5,287.5 Z"/></g>
<g><path style="opacity:1" fill="#6b87ab" d="M 309.5,293.5 C 308.025,295.69 306.025,297.023 303.5,297.5C 292.888,298.82 282.222,299.487 271.5,299.5C 284.123,298.001 296.79,296.001 309.5,293.5 Z"/></g>
<g><path style="opacity:1" fill="#5076a4" d="M 303.5,297.5 C 294.794,299.79 285.794,300.956 276.5,301C 263.993,301.827 251.66,301.66 239.5,300.5C 245.69,300.823 251.69,300.49 257.5,299.5C 262.167,299.5 266.833,299.5 271.5,299.5C 282.222,299.487 292.888,298.82 303.5,297.5 Z"/></g>
<g><path style="opacity:1" fill="#5c7da6" d="M 682.5,292.5 C 681.972,293.721 681.305,294.887 680.5,296C 671.393,298.715 663.393,303.215 656.5,309.5C 655.833,309.167 655.167,308.833 654.5,308.5C 650.354,310.247 646.021,311.247 641.5,311.5C 655.004,304.99 668.671,298.657 682.5,292.5 Z"/></g>
<g><path style="opacity:1" fill="#4e77ad" d="M 319.5,290.5 C 319.5,291.833 319.5,293.167 319.5,294.5C 319.5,294.833 319.5,295.167 319.5,295.5C 318.833,295.5 318.5,295.833 318.5,296.5C 315.52,296.241 313.687,297.574 313,300.5C 311.212,306.711 309.712,313.045 308.5,319.5C 306.424,329.201 304.757,338.868 303.5,348.5C 303.334,342.158 303.5,335.825 304,329.5C 306.325,322.913 306.658,316.247 305,309.5C 304.667,309.833 304.333,310.167 304,310.5C 303.502,307.183 303.335,303.85 303.5,300.5C 306.085,300.568 308.418,301.068 310.5,302C 311.406,300.301 311.739,298.467 311.5,296.5C 308.873,297.092 306.206,297.425 303.5,297.5C 306.025,297.023 308.025,295.69 309.5,293.5C 312.73,292.192 316.064,291.192 319.5,290.5 Z"/></g>
<g><path style="opacity:1" fill="#58789f" d="M 318.5,296.5 C 314.919,303.903 311.919,311.57 309.5,319.5C 309.167,319.5 308.833,319.5 308.5,319.5C 309.712,313.045 311.212,306.711 313,300.5C 313.687,297.574 315.52,296.241 318.5,296.5 Z"/></g>
<g><path style="opacity:1" fill="#e3f1f9" d="M 319.5,295.5 C 319.662,297.527 319.495,299.527 319,301.5C 315.968,307.222 313.802,313.222 312.5,319.5C 311.5,319.5 310.5,319.5 309.5,319.5C 311.919,311.57 314.919,303.903 318.5,296.5C 318.5,295.833 318.833,295.5 319.5,295.5 Z"/></g>
<g><path style="opacity:1" fill="#ebf7fb" d="M 812.5,226.5 C 812.821,227.817 813.154,229.151 813.5,230.5C 812.05,235.047 811.216,239.714 811,244.5C 806.326,252.748 803.826,261.748 803.5,271.5C 804.833,271.5 806.167,271.5 807.5,271.5C 807.313,273.564 806.813,275.564 806,277.5C 805.667,277.167 805.333,276.833 805,276.5C 804.667,277.5 804.333,278.5 804,279.5C 802.667,278.167 801.333,278.167 800,279.5C 796.525,295.171 792.858,310.838 789,326.5C 787.473,328.221 786.473,330.221 786,332.5C 785.722,331.584 785.222,330.918 784.5,330.5C 786.167,323.833 787.833,317.167 789.5,310.5C 790.234,309.292 790.567,307.959 790.5,306.5C 797.677,280.956 804.677,255.29 811.5,229.5C 811.263,228.209 811.596,227.209 812.5,226.5 Z"/></g>
<g><path style="opacity:1" fill="#5a79a0" d="M 789.5,310.5 C 787.833,317.167 786.167,323.833 784.5,330.5C 784.672,331.492 784.338,332.158 783.5,332.5C 784.475,326.238 785.642,319.905 787,313.5C 787.236,311.881 788.069,310.881 789.5,310.5 Z"/></g>
<g><path style="opacity:1" fill="#597ba8" d="M 639.5,311.5 C 639.5,312.5 639.5,313.5 639.5,314.5C 636.551,314.931 633.884,316.098 631.5,318C 628.294,318.296 625.128,318.796 622,319.5C 620.466,322.031 618.299,323.864 615.5,325C 602.492,328.227 589.159,330.727 575.5,332.5C 596.965,326.26 618.299,319.26 639.5,311.5 Z"/></g>
<g><path style="opacity:1" fill="#5f7ea3" d="M 559.5,335.5 C 559.38,336.586 558.713,337.253 557.5,337.5C 545.05,340.972 532.383,342.972 519.5,343.5C 532.717,340.839 546.05,338.173 559.5,335.5 Z"/></g>
<g><path style="opacity:1" fill="#6587ad" d="M 515.5,343.5 C 514.653,344.966 513.32,345.8 511.5,346C 506.177,346.499 500.844,346.666 495.5,346.5C 501.924,344.781 508.591,343.781 515.5,343.5 Z"/></g>
<g><path style="opacity:1" fill="#e8f7fc" d="M 308.5,319.5 C 308.833,319.5 309.167,319.5 309.5,319.5C 309.69,324.15 309.023,328.65 307.5,333C 309.303,337.282 308.637,341.115 305.5,344.5C 305.833,345.167 306.167,345.833 306.5,346.5C 330.862,347.085 355.195,348.085 379.5,349.5C 379.5,350.167 379.167,350.5 378.5,350.5C 369.5,350.5 360.5,350.5 351.5,350.5C 335.5,349.833 319.5,349.167 303.5,348.5C 304.757,338.868 306.424,329.201 308.5,319.5 Z"/></g>
<g><path style="opacity:1" fill="#587aa9" d="M 495.5,346.5 C 495.209,347.649 494.376,348.316 493,348.5C 484.053,349.176 475.387,350.176 467,351.5C 465.319,351.392 464.152,350.725 463.5,349.5C 473.958,347.842 484.625,346.842 495.5,346.5 Z"/></g>
<g><path style="opacity:1" fill="#547aad" d="M 351.5,350.5 C 360.5,350.5 369.5,350.5 378.5,350.5C 398.66,351.497 418.993,351.83 439.5,351.5C 434.147,353.559 428.647,355.559 423,357.5C 421.933,356.809 420.766,356.309 419.5,356C 406.644,355.214 393.811,355.38 381,356.5C 377.263,356.146 374.097,354.646 371.5,352C 364.654,351.828 357.987,351.328 351.5,350.5 Z"/></g>
<g><path style="opacity:1" fill="#5278a6" d="M 215.5,335.5 C 216.825,339.276 217.491,343.443 217.5,348C 217.313,354.514 216.98,361.014 216.5,367.5C 215.167,367.5 213.833,367.5 212.5,367.5C 215.143,357.024 216.143,346.357 215.5,335.5 Z"/></g>
<g><path style="opacity:1" fill="#5a7ca7" d="M 782.5,337.5 C 778.405,351.992 774.072,366.326 769.5,380.5C 770.707,365.121 775.041,350.788 782.5,337.5 Z"/></g>
<g><path style="opacity:1" fill="#edf7fb" d="M 213.5,331.5 C 214.167,332.833 214.833,334.167 215.5,335.5C 216.143,346.357 215.143,357.024 212.5,367.5C 210.462,371.94 208.796,376.607 207.5,381.5C 203.774,387.24 200.44,393.24 197.5,399.5C 197.167,399.5 196.833,399.5 196.5,399.5C 196.338,397.473 196.505,395.473 197,393.5C 200.153,391.162 202.32,388.162 203.5,384.5C 202.311,383.571 200.978,383.238 199.5,383.5C 199.124,380.293 200.124,377.627 202.5,375.5C 203.192,376.025 203.692,376.692 204,377.5C 209.215,372.978 211.215,367.312 210,360.5C 210.333,360.833 210.667,361.167 211,361.5C 211.333,360.167 211.667,358.833 212,357.5C 212.333,358.167 212.667,358.833 213,359.5C 213.148,349.874 213.315,340.541 213.5,331.5 Z"/></g>
<g><path style="opacity:1" fill="#5a7ca7" d="M 212.5,367.5 C 213.695,373.354 212.028,378.02 207.5,381.5C 208.796,376.607 210.462,371.94 212.5,367.5 Z"/></g>
<g><path style="opacity:1" fill="#5879a3" d="M 207.5,381.5 C 207.66,383.199 207.494,384.866 207,386.5C 205.076,388.822 203.743,391.489 203,394.5C 201.25,396.424 199.417,398.091 197.5,399.5C 200.44,393.24 203.774,387.24 207.5,381.5 Z"/></g>
<g><path style="opacity:1" fill="#5f7ea5" d="M 196.5,399.5 C 196.833,399.5 197.167,399.5 197.5,399.5C 197.682,401.591 197.348,403.591 196.5,405.5C 193.773,407.58 191.106,409.58 188.5,411.5C 190.774,407.228 193.441,403.228 196.5,399.5 Z"/></g>
<g><path style="opacity:1" fill="#577ba6" d="M 761.5,399.5 C 756.479,406.521 750.479,412.521 743.5,417.5C 743.855,413.901 745.189,410.735 747.5,408C 748.549,407.508 749.549,407.674 750.5,408.5C 751.228,406.807 752.228,405.307 753.5,404C 756.08,402.232 758.747,400.732 761.5,399.5 Z"/></g>
<g><path style="opacity:1" fill="#5a7ca7" d="M 735.5,424.5 C 731.039,429.623 725.706,433.623 719.5,436.5C 719.5,434.833 719.5,433.167 719.5,431.5C 721.833,431.5 724.167,431.5 726.5,431.5C 726.908,426.105 729.908,423.772 735.5,424.5 Z"/></g>
<g><path style="opacity:1" fill="#5a81b1" d="M 329.5,442.5 C 325.02,441.302 320.687,439.969 316.5,438.5C 312.98,434.996 308.647,433.663 303.5,434.5C 293.025,431.857 282.358,430.857 271.5,431.5C 271.5,430.5 271.5,429.5 271.5,428.5C 277.956,428.901 284.29,428.234 290.5,426.5C 292.693,427.554 294.193,427.22 295,425.5C 295.813,427.436 296.313,429.436 296.5,431.5C 299.964,431.441 303.297,432.108 306.5,433.5C 309.799,432.79 313.133,432.457 316.5,432.5C 316.5,433.5 316.5,434.5 316.5,435.5C 317.5,435.5 318.5,435.5 319.5,435.5C 319.5,436.5 319.5,437.5 319.5,438.5C 321.857,438.337 324.19,438.503 326.5,439C 328.426,439.422 329.426,440.589 329.5,442.5 Z"/></g>
<g><path style="opacity:1" fill="#728caf" d="M 303.5,434.5 C 308.647,433.663 312.98,434.996 316.5,438.5C 311.736,438.231 307.403,436.898 303.5,434.5 Z"/></g>
<g><path style="opacity:1" fill="#557aa6" d="M 260.5,431.5 C 244.545,434.368 228.878,438.701 213.5,444.5C 214.031,442.376 215.365,440.876 217.5,440C 222.181,439.157 226.514,437.49 230.5,435C 240.204,432.097 250.204,430.93 260.5,431.5 Z"/></g>
<g><path style="opacity:1" fill="#5e7fa7" d="M 175.5,428.5 C 174.69,430.798 173.856,433.132 173,435.5C 169.196,438.309 165.363,440.976 161.5,443.5C 165.96,438.194 170.627,433.194 175.5,428.5 Z"/></g>
<g><path style="opacity:1" fill="#5c7daa" d="M 351.5,447.5 C 344.64,446.205 337.973,444.539 331.5,442.5C 333.288,442.029 335.122,441.696 337,441.5C 341.118,442.538 345.285,443.372 349.5,444C 350.973,444.71 351.64,445.876 351.5,447.5 Z"/></g>
<g><path style="opacity:1" fill="#5c7ea6" d="M 351.5,447.5 C 359.305,449.274 367.305,450.441 375.5,451C 377.027,452.032 378.36,453.199 379.5,454.5C 369.911,452.77 360.578,450.436 351.5,447.5 Z"/></g>
<g><path style="opacity:1" fill="#597fac" d="M 421.5,463.5 C 421.167,463.5 420.833,463.5 420.5,463.5C 406.548,461.378 392.881,458.378 379.5,454.5C 383.514,454.666 387.514,454.499 391.5,454C 393.927,452.409 396.593,451.575 399.5,451.5C 399.773,453.451 399.107,454.951 397.5,456C 404.752,457.786 412.085,459.286 419.5,460.5C 420.612,461.265 421.279,462.265 421.5,463.5 Z"/></g>
<g><path style="opacity:1" fill="#5b7ca5" d="M 194.5,453.5 C 190.409,457.094 185.742,459.761 180.5,461.5C 180.414,460.504 180.748,459.671 181.5,459C 184.732,457.77 187.399,455.77 189.5,453C 191.107,453.019 192.774,453.185 194.5,453.5 Z"/></g>
<g><path style="opacity:1" fill="#567aa7" d="M 699.5,447.5 C 699.047,448.458 698.381,449.292 697.5,450C 690.75,452.806 684.083,455.806 677.5,459C 670.227,461.476 662.894,463.642 655.5,465.5C 655.5,464.167 655.5,462.833 655.5,461.5C 657.819,462.167 660.153,462.334 662.5,462C 666.044,459.368 670.044,457.868 674.5,457.5C 678.017,453.87 682.35,452.536 687.5,453.5C 687.5,452.5 687.5,451.5 687.5,450.5C 691.858,450.71 695.858,449.71 699.5,447.5 Z"/></g>
<g><path style="opacity:1" fill="#5c7fab" d="M 423.5,463.5 C 430.619,463.107 437.619,463.774 444.5,465.5C 446.135,465.122 447.635,464.456 449,463.5C 452.75,466.108 456.584,468.441 460.5,470.5C 447.891,468.923 435.557,466.59 423.5,463.5 Z"/></g>
<g><path style="opacity:1" fill="#5f7ca7" d="M 175.5,464.5 C 164.293,472.806 151.627,476.472 137.5,475.5C 137.427,473.973 138.094,472.973 139.5,472.5C 139.611,473.117 139.944,473.617 140.5,474C 144.288,475.116 147.622,474.45 150.5,472C 155.007,471.702 159.34,470.702 163.5,469C 166.887,465.982 170.887,464.482 175.5,464.5 Z"/></g>
<g><path style="opacity:1" fill="#4a75b7" d="M 610.5,472.5 C 609.5,472.5 608.5,472.5 607.5,472.5C 602.138,472.472 596.805,472.806 591.5,473.5C 591.5,472.167 591.5,470.833 591.5,469.5C 570.167,469.5 548.833,469.5 527.5,469.5C 527.5,468.5 527.5,467.5 527.5,466.5C 551.165,467.521 574.831,467.687 598.5,467C 604.204,467.367 609.87,468.034 615.5,469C 614.113,470.683 612.447,471.85 610.5,472.5 Z"/></g>
<g><path style="opacity:1" fill="#96adce" d="M 482.5,473.5 C 488.726,473.388 494.726,474.054 500.5,475.5C 494.288,475.477 488.288,474.81 482.5,473.5 Z"/></g>
<g><path style="opacity:1" fill="#9caabe" d="M 139.5,470.5 C 139.5,471.167 139.5,471.833 139.5,472.5C 138.094,472.973 137.427,473.973 137.5,475.5C 136.761,475.631 136.094,475.464 135.5,475C 136.328,473.008 137.661,471.508 139.5,470.5 Z"/></g>
<g><path style="opacity:1" fill="#ecf8fd" d="M 420.5,463.5 C 420.833,463.5 421.167,463.5 421.5,463.5C 422.167,463.5 422.833,463.5 423.5,463.5C 435.557,466.59 447.891,468.923 460.5,470.5C 460.833,470.5 461.167,470.5 461.5,470.5C 468.357,471.568 475.357,472.568 482.5,473.5C 488.288,474.81 494.288,475.477 500.5,475.5C 506.021,475.782 511.354,476.449 516.5,477.5C 499.803,477.471 483.469,476.138 467.5,473.5C 460.11,474.752 453.277,473.419 447,469.5C 442.975,470.374 439.141,469.707 435.5,467.5C 434.446,467.68 433.446,468.013 432.5,468.5C 429.627,467.225 426.627,466.392 423.5,466C 422.058,465.623 421.058,464.79 420.5,463.5 Z"/></g>
<g><path style="opacity:1" fill="#5f7ea6" d="M 655.5,465.5 C 644.982,468.784 634.315,471.451 623.5,473.5C 591.656,477.825 559.656,479.492 527.5,478.5C 524.038,477.518 520.371,477.185 516.5,477.5C 511.354,476.449 506.021,475.782 500.5,475.5C 494.726,474.054 488.726,473.388 482.5,473.5C 475.357,472.568 468.357,471.568 461.5,470.5C 472.975,469.876 484.309,470.709 495.5,473C 511.527,473.837 527.527,475.004 543.5,476.5C 556.841,475.499 570.174,475.499 583.5,476.5C 591.888,475.797 599.888,474.463 607.5,472.5C 608.5,472.5 609.5,472.5 610.5,472.5C 625.414,469.869 640.414,467.536 655.5,465.5 Z"/></g>
<g><path style="opacity:1" fill="#ebfafd" d="M 623.5,473.5 C 623.539,474.583 623.873,475.583 624.5,476.5C 616.264,477.336 608.097,478.336 600,479.5C 575.869,479.817 551.703,479.484 527.5,478.5C 559.656,479.492 591.656,477.825 623.5,473.5 Z"/></g>
<g><path style="opacity:1" fill="#d7e6fb" d="M 200.5,539.5 C 190.167,539.5 179.833,539.5 169.5,539.5C 174.288,538.172 179.454,537.505 185,537.5C 190.546,537.505 195.712,538.172 200.5,539.5 Z"/></g>
<g><path style="opacity:1" fill="#5e7ba8" d="M 601.5,543.5 C 597.888,542.947 594.388,541.947 591,540.5C 589.674,540.755 588.674,541.422 588,542.5C 585.129,540.138 581.796,539.138 578,539.5C 572.945,540.699 567.779,541.699 562.5,542.5C 561.893,542.376 561.56,542.043 561.5,541.5C 570.035,536.694 579.202,535.361 589,537.5C 592.316,539.204 595.816,540.371 599.5,541C 600.756,541.417 601.423,542.25 601.5,543.5 Z"/></g>
<g><path style="opacity:1" fill="#e0f0f8" d="M 697.5,647.5 C 701.634,648.485 705.968,648.818 710.5,648.5C 711.16,611.818 710.494,575.485 708.5,539.5C 706.167,539.5 703.833,539.5 701.5,539.5C 700.167,539.5 698.833,539.5 697.5,539.5C 697.33,538.178 697.663,537.011 698.5,536C 701.525,534.566 704.525,534.066 707.5,534.5C 708.748,535.04 709.915,535.707 711,536.5C 711.333,536.167 711.667,535.833 712,535.5C 713.859,536.645 714.693,538.312 714.5,540.5C 713.209,557.434 712.542,574.434 712.5,591.5C 712.716,609.857 712.882,628.19 713,646.5C 711.253,649.21 710.253,652.21 710,655.5C 706.334,651.046 701.5,649.213 695.5,650C 696.066,649.005 696.733,648.172 697.5,647.5 Z"/></g>
<g><path style="opacity:1" fill="#587ba8" d="M 794.5,543.5 C 786.545,541.637 778.378,540.637 770,540.5C 763.9,540.496 758.067,541.496 752.5,543.5C 752.369,542.624 752.702,541.957 753.5,541.5C 766.719,534.945 779.886,534.945 793,541.5C 794.03,541.836 794.53,542.503 794.5,543.5 Z"/></g>
<g><path style="opacity:1" fill="#5d7ca2" d="M 431.5,537.5 C 435.449,538.709 439.449,539.876 443.5,541C 444.756,541.417 445.423,542.25 445.5,543.5C 441.056,541.556 436.389,540.556 431.5,540.5C 431.5,539.5 431.5,538.5 431.5,537.5 Z"/></g>
<g><path style="opacity:1" fill="#e9f9fe" d="M 308.5,540.5 C 303.595,539.555 298.595,539.221 293.5,539.5C 293.5,575.833 293.5,612.167 293.5,648.5C 292.883,648.389 292.383,648.056 292,647.5C 291.503,644.854 291.336,642.187 291.5,639.5C 292.167,623.67 292.5,607.67 292.5,591.5C 292.499,575.152 291.833,559.152 290.5,543.5C 289.032,541.389 289.365,539.556 291.5,538C 296.418,537.805 301.251,537.305 306,536.5C 307.481,537.471 308.315,538.804 308.5,540.5 Z"/></g>
<g><path style="opacity:1" fill="#728aa4" d="M 259.5,539.5 C 259.5,575.5 259.5,611.5 259.5,647.5C 263.702,647.817 267.702,647.483 271.5,646.5C 271.5,646.167 271.5,645.833 271.5,645.5C 271.5,610.5 271.5,575.5 271.5,540.5C 271.5,540.167 271.5,539.833 271.5,539.5C 272.498,575.663 272.832,611.996 272.5,648.5C 267.833,648.5 263.167,648.5 258.5,648.5C 258.168,611.996 258.502,575.663 259.5,539.5 Z"/></g>
<g><path style="opacity:1" fill="#c2d7ee" d="M 272.5,648.5 C 272.832,611.996 272.498,575.663 271.5,539.5C 267.5,539.5 263.5,539.5 259.5,539.5C 263.582,537.346 267.916,537.013 272.5,538.5C 273.83,575.331 273.83,611.998 272.5,648.5 Z"/></g>
<g><path style="opacity:1" fill="#fcfef6" d="M 290.5,543.5 C 291.833,559.152 292.499,575.152 292.5,591.5C 292.5,607.67 292.167,623.67 291.5,639.5C 290.735,640.66 289.735,641.66 288.5,642.5C 288.167,642 287.833,641.5 287.5,641C 289.146,608.447 290.146,575.947 290.5,543.5 Z"/></g>
<g><path style="opacity:1" fill="#4977b3" d="M 351.5,540.5 C 354.187,540.336 356.854,540.503 359.5,541C 360.252,541.671 360.586,542.504 360.5,543.5C 359.502,577.329 359.168,611.329 359.5,645.5C 356.833,645.5 354.167,645.5 351.5,645.5C 348.263,642.537 345.93,638.871 344.5,634.5C 343.583,633.873 342.583,633.539 341.5,633.5C 339.496,629.15 337.496,624.816 335.5,620.5C 335.808,618.076 335.474,615.743 334.5,613.5C 332.447,612.061 331.447,610.061 331.5,607.5C 330.5,607.5 329.5,607.5 328.5,607.5C 329.223,602.286 327.723,597.953 324,594.5C 323.517,593.552 323.351,592.552 323.5,591.5C 324.5,591.5 325.5,591.5 326.5,591.5C 326.338,589.473 326.505,587.473 327,585.5C 327.671,586.252 328.504,586.586 329.5,586.5C 331.401,588.006 333.068,589.673 334.5,591.5C 334.833,591.5 335.167,591.5 335.5,591.5C 337.347,593.861 338.68,596.528 339.5,599.5C 340.221,604.17 341.054,608.837 342,613.5C 343.639,615.806 345.639,617.806 348,619.5C 348.49,620.793 348.657,622.127 348.5,623.5C 349.5,623.5 350.5,623.5 351.5,623.5C 350.585,596.21 350.585,568.877 351.5,541.5C 351.5,541.167 351.5,540.833 351.5,540.5 Z"/></g>
<g><path style="opacity:1" fill="#4f76a7" d="M 360.5,543.5 C 360.5,577.833 360.5,612.167 360.5,646.5C 357.287,646.81 354.287,646.477 351.5,645.5C 354.167,645.5 356.833,645.5 359.5,645.5C 359.168,611.329 359.502,577.329 360.5,543.5 Z"/></g>
<g><path style="opacity:1" fill="#6785a9" d="M 351.5,540.5 C 351.5,540.167 351.5,539.833 351.5,539.5C 355.167,539.5 358.833,539.5 362.5,539.5C 362.5,575.833 362.5,612.167 362.5,648.5C 357.833,648.5 353.167,648.5 348.5,648.5C 347.352,644.213 345.685,640.213 343.5,636.5C 342.449,635.778 341.782,634.778 341.5,633.5C 342.583,633.539 343.583,633.873 344.5,634.5C 345.93,638.871 348.263,642.537 351.5,645.5C 354.287,646.477 357.287,646.81 360.5,646.5C 360.5,612.167 360.5,577.833 360.5,543.5C 360.586,542.504 360.252,541.671 359.5,541C 356.854,540.503 354.187,540.336 351.5,540.5 Z"/></g>
<g><path style="opacity:1" fill="#ecfafe" d="M 343.5,636.5 C 345.685,640.213 347.352,644.213 348.5,648.5C 353.167,648.5 357.833,648.5 362.5,648.5C 362.5,612.167 362.5,575.833 362.5,539.5C 358.833,539.5 355.167,539.5 351.5,539.5C 350.5,539.5 349.5,539.5 348.5,539.5C 348.831,565.339 348.498,591.005 347.5,616.5C 345.567,610.304 342.901,604.638 339.5,599.5C 338.68,596.528 337.347,593.861 335.5,591.5C 337.167,591.5 338.833,591.5 340.5,591.5C 340.263,592.791 340.596,593.791 341.5,594.5C 341.586,595.496 341.252,596.329 340.5,597C 342.037,598.11 342.703,599.61 342.5,601.5C 343.822,601.67 344.989,601.337 346,600.5C 347.041,589.53 347.541,578.53 347.5,567.5C 347.498,559.138 346.831,551.138 345.5,543.5C 344.6,539.962 345.933,537.296 349.5,535.5C 353.152,536.864 356.652,536.531 360,534.5C 360.853,536.125 361.853,536.458 363,535.5C 363.333,536.5 363.667,537.5 364,538.5C 364.833,575.505 364.667,612.505 363.5,649.5C 361.89,651.26 359.89,652.26 357.5,652.5C 354.593,651.99 351.759,651.323 349,650.5C 348.667,650.833 348.333,651.167 348,651.5C 346.35,647.975 344.517,643.475 342.5,638C 342.57,637.235 342.903,636.735 343.5,636.5 Z"/></g>
<g><path style="opacity:1" fill="#5679a4" d="M 488.5,539.5 C 492.167,539.5 495.833,539.5 499.5,539.5C 499.5,569.833 499.5,600.167 499.5,630.5C 508.44,632.472 517.773,633.139 527.5,632.5C 527.5,633.5 527.5,634.5 527.5,635.5C 520.159,635.334 512.826,635.5 505.5,636C 504.663,637.011 504.33,638.178 504.5,639.5C 502.143,639.663 499.81,639.497 497.5,639C 499.672,636.877 499.839,634.711 498,632.5C 497.5,601.835 497.333,571.168 497.5,540.5C 494.833,540.5 492.167,540.5 489.5,540.5C 489.5,541.5 489.5,542.5 489.5,543.5C 488.833,543.5 488.167,543.5 487.5,543.5C 487.167,543.5 486.833,543.5 486.5,543.5C 486.733,541.938 487.4,540.605 488.5,539.5 Z"/></g>
<g><path style="opacity:1" fill="#f0fbfe" d="M 499.5,539.5 C 500.837,540.315 501.837,541.482 502.5,543C 501.813,571.791 501.147,600.624 500.5,629.5C 510.172,629.334 519.839,629.5 529.5,630C 531.888,632.179 533.554,634.845 534.5,638C 531.52,641.047 530.853,644.547 532.5,648.5C 530.442,650.077 528.108,651.077 525.5,651.5C 515.585,649.746 505.585,649.079 495.5,649.5C 495.5,651.167 495.5,652.833 495.5,654.5C 492.402,654.587 492.068,654.087 494.5,653C 490.529,652.915 486.862,651.915 483.5,650C 484.416,649.722 485.082,649.222 485.5,648.5C 499.833,648.5 514.167,648.5 528.5,648.5C 528.5,643.167 528.5,637.833 528.5,632.5C 519.225,630.527 509.558,629.86 499.5,630.5C 499.5,600.167 499.5,569.833 499.5,539.5 Z"/></g>
<g><path style="opacity:1" fill="#4976b3" d="M 794.5,543.5 C 795.167,543.5 795.833,543.5 796.5,543.5C 797.853,544.526 798.853,545.859 799.5,547.5C 801.375,550.889 803.542,554.223 806,557.5C 806.497,559.81 806.663,562.143 806.5,564.5C 802.727,564.737 799.06,564.237 795.5,563C 794.663,561.989 794.33,560.822 794.5,559.5C 793.167,559.5 791.833,559.5 790.5,559.5C 790.719,558.325 790.386,557.325 789.5,556.5C 787.591,555.652 785.591,555.318 783.5,555.5C 783.5,555.167 783.5,554.833 783.5,554.5C 783.5,553.5 783.5,552.5 783.5,551.5C 775.826,551.334 768.159,551.5 760.5,552C 757.209,553.149 755.876,555.649 756.5,559.5C 752.523,561.63 750.19,564.963 749.5,569.5C 748.209,569.263 747.209,569.596 746.5,570.5C 744.484,571.486 743.151,573.153 742.5,575.5C 738.706,586.967 738.706,598.467 742.5,610C 741.841,612.462 741.507,614.962 741.5,617.5C 734.651,617.877 731.984,614.544 733.5,607.5C 732.5,607.5 731.5,607.5 730.5,607.5C 730.837,594.805 731.67,582.139 733,569.5C 733.759,567.365 735.259,566.032 737.5,565.5C 738.452,563.955 738.785,562.288 738.5,560.5C 739.822,560.67 740.989,560.337 742,559.5C 744.641,554.891 747.641,550.558 751,546.5C 751.483,545.552 751.649,544.552 751.5,543.5C 751.833,543.5 752.167,543.5 752.5,543.5C 758.067,541.496 763.9,540.496 770,540.5C 778.378,540.637 786.545,541.637 794.5,543.5 Z"/></g>
<g><path style="opacity:1" fill="#57769d" d="M 259.5,539.5 C 263.5,539.5 267.5,539.5 271.5,539.5C 271.5,539.833 271.5,540.167 271.5,540.5C 267.958,540.187 264.625,540.521 261.5,541.5C 260.336,575.998 260.169,610.664 261,645.5C 264.394,646.456 267.894,646.789 271.5,646.5C 267.702,647.483 263.702,647.817 259.5,647.5C 259.5,611.5 259.5,575.5 259.5,539.5 Z"/></g>
<g><path style="opacity:1" fill="#5279ac" d="M 261.5,541.5 C 261.5,575.833 261.5,610.167 261.5,644.5C 264.939,644.253 268.272,644.586 271.5,645.5C 271.5,645.833 271.5,646.167 271.5,646.5C 267.894,646.789 264.394,646.456 261,645.5C 260.169,610.664 260.336,575.998 261.5,541.5 Z"/></g>
<g><path style="opacity:1" fill="#4876b3" d="M 271.5,540.5 C 271.5,575.5 271.5,610.5 271.5,645.5C 268.272,644.586 264.939,644.253 261.5,644.5C 261.5,610.167 261.5,575.833 261.5,541.5C 264.625,540.521 267.958,540.187 271.5,540.5 Z"/></g>
<g><path style="opacity:1" fill="#4e75ae" d="M 309.5,543.5 C 311.572,545.35 312.905,547.683 313.5,550.5C 313.62,553.48 314.287,556.313 315.5,559C 313.001,557.724 310.334,556.558 307.5,555.5C 307.5,556.833 307.5,558.167 307.5,559.5C 309.167,559.5 310.833,559.5 312.5,559.5C 312.702,561.989 312.202,564.323 311,566.5C 310.014,567.171 308.847,567.171 307.5,566.5C 306.566,567.568 306.232,568.901 306.5,570.5C 305.833,572.167 305.167,573.833 304.5,575.5C 303.902,570.187 303.569,564.854 303.5,559.5C 304.5,559.5 305.5,559.5 306.5,559.5C 306.716,557.319 305.883,555.653 304,554.5C 303.003,550.251 303.503,546.251 305.5,542.5C 302.291,541.213 299.125,541.213 296,542.5C 295.5,574.832 295.333,607.165 295.5,639.5C 294.336,607.003 294.169,574.336 295,541.5C 298.73,540.54 302.563,540.207 306.5,540.5C 306.5,541.5 306.5,542.5 306.5,543.5C 307.5,543.5 308.5,543.5 309.5,543.5 Z"/></g>
<g><path style="opacity:1" fill="#6b8aab" d="M 351.5,539.5 C 351.5,539.833 351.5,540.167 351.5,540.5C 351.5,540.833 351.5,541.167 351.5,541.5C 349.674,566.814 348.84,592.48 349,618.5C 348.283,617.956 347.783,617.289 347.5,616.5C 348.498,591.005 348.831,565.339 348.5,539.5C 349.5,539.5 350.5,539.5 351.5,539.5 Z"/></g>
<g><path style="opacity:1" fill="#4976b3" d="M 431.5,537.5 C 431.5,538.5 431.5,539.5 431.5,540.5C 436.389,540.556 441.056,541.556 445.5,543.5C 446.492,543.328 447.158,543.662 447.5,544.5C 449.721,547.934 451.721,551.601 453.5,555.5C 456.153,556.285 456.82,557.785 455.5,560C 459.783,562.719 459.45,564.552 454.5,565.5C 452.462,564.366 450.462,564.366 448.5,565.5C 447.14,564.82 445.807,564.153 444.5,563.5C 443.887,559.416 441.887,556.249 438.5,554C 429.514,552.032 420.514,552.032 411.5,554C 407.132,555.238 404.466,558.071 403.5,562.5C 402.167,562.5 400.833,562.5 399.5,562.5C 399.601,558.263 399.101,554.93 398,552.5C 406.281,541.569 417.447,536.569 431.5,537.5 Z"/></g>
<g><path style="opacity:1" fill="#5a7aa4" d="M 444.5,563.5 C 434.519,552.791 422.852,550.791 409.5,557.5C 408.702,557.957 408.369,558.624 408.5,559.5C 406.515,560.047 404.849,561.047 403.5,562.5C 404.466,558.071 407.132,555.238 411.5,554C 420.514,552.032 429.514,552.032 438.5,554C 441.887,556.249 443.887,559.416 444.5,563.5 Z"/></g>
<g><path style="opacity:1" fill="#5979a3" d="M 783.5,554.5 C 777.848,553.698 772.182,553.531 766.5,554C 764.881,554.236 763.881,555.069 763.5,556.5C 760.679,556.545 758.346,557.545 756.5,559.5C 755.876,555.649 757.209,553.149 760.5,552C 768.159,551.5 775.826,551.334 783.5,551.5C 783.5,552.5 783.5,553.5 783.5,554.5 Z"/></g>
<g><path style="opacity:1" fill="#5577a3" d="M 447.5,544.5 C 454.888,550.244 460.222,557.577 463.5,566.5C 457.409,566.789 451.409,566.455 445.5,565.5C 444.662,565.158 444.328,564.492 444.5,563.5C 445.807,564.153 447.14,564.82 448.5,565.5C 450.462,564.366 452.462,564.366 454.5,565.5C 459.45,564.552 459.783,562.719 455.5,560C 456.82,557.785 456.153,556.285 453.5,555.5C 451.721,551.601 449.721,547.934 447.5,544.5 Z"/></g>
<g><path style="opacity:1" fill="#e6f5fc" d="M 783.5,554.5 C 783.5,554.833 783.5,555.167 783.5,555.5C 785.792,556.79 787.792,558.457 789.5,560.5C 782.621,557.822 775.455,556.156 768,555.5C 766.467,555.773 764.967,556.106 763.5,556.5C 763.881,555.069 764.881,554.236 766.5,554C 772.182,553.531 777.848,553.698 783.5,554.5 Z"/></g>
<g><path style="opacity:1" fill="#5b7ba6" d="M 607.5,547.5 C 611.584,551.251 614.918,555.585 617.5,560.5C 620.239,565.145 622.239,570.145 623.5,575.5C 622.167,575.5 620.833,575.5 619.5,575.5C 618.358,569.907 616.525,564.574 614,559.5C 610.367,556.344 608.2,552.344 607.5,547.5 Z"/></g>
<g><path style="opacity:1" fill="#fbfdfd" d="M 182.5,554.5 C 188.868,554.17 195.202,554.504 201.5,555.5C 205.282,555.997 208.615,557.33 211.5,559.5C 211.351,560.552 211.517,561.552 212,562.5C 214.621,564.449 216.454,566.949 217.5,570C 215.757,571.837 213.757,573.504 211.5,575C 215.655,575.122 219.655,575.289 223.5,575.5C 225.376,580.846 226.709,586.513 227.5,592.5C 226.591,597.05 225.591,601.55 224.5,606C 225.059,606.725 225.392,607.558 225.5,608.5C 222.039,612.792 219.206,617.459 217,622.5C 212.833,623.504 209.666,625.837 207.5,629.5C 207.5,629.833 207.5,630.167 207.5,630.5C 202.392,631.407 197.225,632.073 192,632.5C 188.424,632.485 185.258,631.818 182.5,630.5C 182.5,606.833 182.5,583.167 182.5,559.5C 182.5,557.833 182.5,556.167 182.5,554.5 Z"/></g>
<g><path style="opacity:1" fill="#5b7ba4" d="M 559.5,543.5 C 561.028,543.517 561.528,544.184 561,545.5C 556.696,549.458 552.863,553.791 549.5,558.5C 548.311,559.429 546.978,559.762 545.5,559.5C 545.5,558.5 545.5,557.5 545.5,556.5C 546.5,556.5 547.5,556.5 548.5,556.5C 550.049,550.418 553.715,546.085 559.5,543.5 Z"/></g>
<g><path style="opacity:1" fill="#fbfdfd" d="M 596.5,559.5 C 596.833,559.5 597.167,559.5 597.5,559.5C 599.77,562.367 602.27,565.033 605,567.5C 606.553,572.274 608.386,576.94 610.5,581.5C 611.585,590.153 611.585,598.819 610.5,607.5C 609.503,607.47 608.836,607.97 608.5,609C 608.243,613.555 606.576,617.389 603.5,620.5C 594.008,632.507 582.008,635.507 567.5,629.5C 564.529,627.748 561.862,625.748 559.5,623.5C 558.868,620.635 557.368,618.302 555,616.5C 551.29,605.825 549.79,594.825 550.5,583.5C 552.405,579.103 553.739,574.437 554.5,569.5C 555.5,569.5 556.5,569.5 557.5,569.5C 557.392,567.486 558.058,565.82 559.5,564.5C 559.5,564.167 559.5,563.833 559.5,563.5C 560.932,561.673 562.599,560.006 564.5,558.5C 568.057,557.482 571.39,555.982 574.5,554C 582.939,552.123 590.272,553.956 596.5,559.5 Z"/></g>
<g><path style="opacity:1" fill="#597ba7" d="M 169.5,539.5 C 179.833,539.5 190.167,539.5 200.5,539.5C 204.56,539.485 208.56,539.985 212.5,541C 214.437,541.122 215.77,541.955 216.5,543.5C 213.5,543.5 210.5,543.5 207.5,543.5C 205.695,541.803 203.361,540.97 200.5,541C 190.833,540.333 181.167,540.333 171.5,541C 170.748,541.671 170.414,542.504 170.5,543.5C 170.333,575.502 170.5,607.502 171,639.5C 171.232,640.737 171.732,641.737 172.5,642.5C 172.414,643.496 172.748,644.329 173.5,645C 186.886,645.364 200.22,644.864 213.5,643.5C 212.216,645.614 210.216,646.614 207.5,646.5C 195.167,646.5 182.833,646.5 170.5,646.5C 170.737,645.209 170.404,644.209 169.5,643.5C 169.5,608.833 169.5,574.167 169.5,539.5 Z"/></g>
<g><path style="opacity:1" fill="#5b7799" d="M 182.5,559.5 C 182.5,583.167 182.5,606.833 182.5,630.5C 181.609,629.739 180.942,628.739 180.5,627.5C 181.157,604.706 181.823,582.039 182.5,559.5 Z"/></g>
<g><path style="opacity:1" fill="#fbfef6" d="M 345.5,543.5 C 346.831,551.138 347.498,559.138 347.5,567.5C 347.541,578.53 347.041,589.53 346,600.5C 344.989,601.337 343.822,601.67 342.5,601.5C 342.703,599.61 342.037,598.11 340.5,597C 341.252,596.329 341.586,595.496 341.5,594.5C 341.75,593.078 342.583,592.078 344,591.5C 344.055,575.489 343.555,559.489 342.5,543.5C 343.5,543.5 344.5,543.5 345.5,543.5 Z"/></g>
<g><path style="opacity:1" fill="#f9fef5" d="M 484.5,559.5 C 484.831,586.339 484.498,613.005 483.5,639.5C 482.696,641.189 481.696,642.855 480.5,644.5C 480.167,643.667 479.833,642.833 479.5,642C 481.131,609.24 482.131,576.407 482.5,543.5C 483.167,548.985 483.833,554.319 484.5,559.5 Z"/></g>
<g><path style="opacity:1" fill="#eafcfe" d="M 499.5,539.5 C 495.833,539.5 492.167,539.5 488.5,539.5C 487.5,539.5 486.5,539.5 485.5,539.5C 485.5,575.833 485.5,612.167 485.5,648.5C 484.883,648.389 484.383,648.056 484,647.5C 483.503,644.854 483.336,642.187 483.5,639.5C 484.498,613.005 484.831,586.339 484.5,559.5C 484.707,551.679 484.04,544.345 482.5,537.5C 488.598,536.883 494.265,537.55 499.5,539.5 Z"/></g>
<g><path style="opacity:1" fill="#4a76b1" d="M 527.5,635.5 C 527.5,639.167 527.5,642.833 527.5,646.5C 513.833,646.5 500.167,646.5 486.5,646.5C 486.5,612.167 486.5,577.833 486.5,543.5C 486.833,543.5 487.167,543.5 487.5,543.5C 488.167,671.5 488.833,671.5 489.5,543.5C 489.5,542.5 489.5,541.5 489.5,540.5C 492.167,540.5 494.833,540.5 497.5,540.5C 497.333,571.168 497.5,601.835 498,632.5C 499.839,634.711 499.672,636.877 497.5,639C 499.81,639.497 502.143,639.663 504.5,639.5C 504.33,638.178 504.663,637.011 505.5,636C 512.826,635.5 520.159,635.334 527.5,635.5 Z"/></g>
<g><path style="opacity:1" fill="#4e75b9" d="M 487.5,543.5 C 488.167,543.5 488.833,543.5 489.5,543.5C 488.833,671.5 488.167,671.5 487.5,543.5 Z"/></g>
<g><path style="opacity:1" fill="#4778aa" d="M 490.5,543.5 C 491.5,543.5 492.5,543.5 493.5,543.5C 493.5,575.5 493.5,607.5 493.5,639.5C 492.5,639.5 491.5,639.5 490.5,639.5C 490.5,607.5 490.5,575.5 490.5,543.5 Z"/></g>
<g><path style="opacity:1" fill="#6c84a6" d="M 643.5,539.5 C 647.846,539.334 652.179,539.501 656.5,540C 657.337,541.011 657.67,542.178 657.5,543.5C 655.952,543.179 655.285,542.179 655.5,540.5C 652.15,540.335 648.817,540.502 645.5,541C 644.748,541.671 644.414,542.504 644.5,543.5C 644.333,577.502 644.5,611.502 645,645.5C 648.394,646.456 651.894,646.789 655.5,646.5C 655.5,629.167 655.5,611.833 655.5,594.5C 656.497,612.326 656.83,630.326 656.5,648.5C 652.167,648.5 647.833,648.5 643.5,648.5C 643.5,612.167 643.5,575.833 643.5,539.5 Z"/></g>
<g><path style="opacity:1" fill="#587aa7" d="M 431.5,537.5 C 417.447,536.569 406.281,541.569 398,552.5C 399.101,554.93 399.601,558.263 399.5,562.5C 400.833,562.5 402.167,562.5 403.5,562.5C 399.13,569.606 396.13,577.273 394.5,585.5C 393.195,587.397 392.529,589.731 392.5,592.5C 392.529,595.269 393.195,597.603 394.5,599.5C 394.5,602.167 394.5,604.833 394.5,607.5C 393.275,606.848 392.608,605.681 392.5,604C 391.519,600.223 390.852,596.39 390.5,592.5C 391.839,582.903 394.505,573.737 398.5,565C 397.922,563.189 397.422,561.355 397,559.5C 395.507,557.44 393.674,557.107 391.5,558.5C 390.785,561.709 389.618,564.709 388,567.5C 384.17,569.152 383.67,571.485 386.5,574.5C 384.531,577.39 384.198,580.39 385.5,583.5C 384.5,583.5 383.5,583.5 382.5,583.5C 380.65,590.957 381.316,598.124 384.5,605C 383.733,608.465 383.4,612.298 383.5,616.5C 382.883,616.389 382.383,616.056 382,615.5C 378.093,597.897 378.927,580.563 384.5,563.5C 387.288,560.758 389.455,557.425 391,553.5C 392.011,552.663 393.178,552.33 394.5,552.5C 394.5,551.5 394.5,550.5 394.5,549.5C 395.675,549.719 396.675,549.386 397.5,548.5C 399.167,545.5 401.5,543.167 404.5,541.5C 413.109,536.821 422.109,535.488 431.5,537.5 Z"/></g>
<g><path style="opacity:1" fill="#4976b3" d="M 601.5,543.5 C 603.94,544.238 605.94,545.571 607.5,547.5C 608.2,552.344 610.367,556.344 614,559.5C 616.525,564.574 618.358,569.907 619.5,575.5C 620.833,575.5 622.167,575.5 623.5,575.5C 623.5,587.167 623.5,598.833 623.5,610.5C 623.5,611.5 623.5,612.5 623.5,613.5C 621.876,613.36 620.71,614.027 620,615.5C 619.503,612.854 619.336,610.187 619.5,607.5C 618.167,607.5 616.833,607.5 615.5,607.5C 615.108,610.948 615.775,614.114 617.5,617C 617.37,618.059 616.87,618.892 616,619.5C 614.5,618.333 613,617.167 611.5,616C 611.704,613.379 611.704,610.545 611.5,607.5C 612.824,603.893 613.491,599.893 613.5,595.5C 613.388,588.14 612.888,580.806 612,573.5C 610.915,572.707 609.748,572.04 608.5,571.5C 607.833,568.833 607.167,566.167 606.5,563.5C 604.866,563.032 603.7,562.032 603,560.5C 602.667,560.833 602.333,561.167 602,561.5C 600.951,559.893 599.451,559.227 597.5,559.5C 597.167,559.5 596.833,559.5 596.5,559.5C 596.213,556.516 594.546,555.183 591.5,555.5C 591.5,554.167 591.5,552.833 591.5,551.5C 580.541,548.938 570.375,550.604 561,556.5C 560.127,556.265 559.293,555.931 558.5,555.5C 557.77,556.934 556.77,558.1 555.5,559C 556.793,559.49 558.127,559.657 559.5,559.5C 559.5,560.833 559.5,562.167 559.5,563.5C 559.5,563.833 559.5,564.167 559.5,564.5C 556.708,564.452 554.875,565.785 554,568.5C 551.133,573.099 549.966,578.099 550.5,583.5C 547.517,595.677 548.517,607.677 553.5,619.5C 555.536,620.885 557.536,622.218 559.5,623.5C 561.862,625.748 564.529,627.748 567.5,629.5C 568.945,631.133 570.279,632.966 571.5,635C 572.5,635.167 573.5,635.333 574.5,635.5C 579.729,634.076 585.063,633.243 590.5,633C 593.764,632.362 596.764,631.196 599.5,629.5C 598.26,630.973 597.26,632.64 596.5,634.5C 596.709,635.086 597.043,635.586 597.5,636C 600.777,635.799 604.111,635.632 607.5,635.5C 599.359,644.654 589.025,648.321 576.5,646.5C 570.439,646.912 565.606,645.579 562,642.5C 561.617,643.056 561.117,643.389 560.5,643.5C 560.167,643.5 559.833,643.5 559.5,643.5C 555.291,638.253 551.625,632.587 548.5,626.5C 547.305,624.703 545.638,623.703 543.5,623.5C 539.217,607.976 538.05,591.976 540,575.5C 540.853,573.065 541.853,570.731 543,568.5C 544.717,572.275 546.217,571.942 547.5,567.5C 546.923,565.45 545.59,564.45 543.5,564.5C 543.5,563.167 543.5,561.833 543.5,560.5C 543.842,559.662 544.508,559.328 545.5,559.5C 546.978,559.762 548.311,559.429 549.5,558.5C 552.863,553.791 556.696,549.458 561,545.5C 561.528,544.184 561.028,543.517 559.5,543.5C 559.5,542.167 560.167,541.5 561.5,541.5C 561.56,542.043 561.893,542.376 562.5,542.5C 567.779,541.699 572.945,540.699 578,539.5C 581.796,539.138 585.129,540.138 588,542.5C 588.674,541.422 589.674,540.755 591,540.5C 594.388,541.947 597.888,542.947 601.5,543.5 Z"/></g>
<g><path style="opacity:1" fill="#577ca7" d="M 597.5,559.5 C 599.451,559.227 600.951,559.893 602,561.5C 602.333,561.167 602.667,560.833 603,560.5C 603.7,562.032 604.866,563.032 606.5,563.5C 607.167,566.167 607.833,568.833 608.5,571.5C 609.748,572.04 610.915,572.707 612,573.5C 612.888,580.806 613.388,588.14 613.5,595.5C 613.491,599.893 612.824,603.893 611.5,607.5C 611.167,607.5 610.833,607.5 610.5,607.5C 611.585,598.819 611.585,590.153 610.5,581.5C 608.386,576.94 606.553,572.274 605,567.5C 602.27,565.033 599.77,562.367 597.5,559.5 Z"/></g>
<g><path style="opacity:1" fill="#5779a7" d="M 596.5,559.5 C 590.272,553.956 582.939,552.123 574.5,554C 571.39,555.982 568.057,557.482 564.5,558.5C 562.599,560.006 560.932,561.673 559.5,563.5C 559.5,562.167 559.5,560.833 559.5,559.5C 558.127,559.657 556.793,559.49 555.5,559C 556.77,558.1 557.77,556.934 558.5,555.5C 559.293,555.931 560.127,556.265 561,556.5C 570.375,550.604 580.541,548.938 591.5,551.5C 591.5,552.833 591.5,554.167 591.5,555.5C 594.546,555.183 596.213,556.516 596.5,559.5 Z"/></g>
<g><path style="opacity:1" fill="#eef9fd" d="M 796.5,543.5 C 800.885,544.467 804.385,546.801 807,550.5C 808.51,555.536 811.01,559.869 814.5,563.5C 815.452,565.045 815.785,566.712 815.5,568.5C 808.46,569.997 801.46,569.83 794.5,568C 792.69,565.481 791.023,562.981 789.5,560.5C 791.988,562.255 794.322,564.255 796.5,566.5C 802.013,567.816 807.68,567.816 813.5,566.5C 812.675,565.614 811.675,565.281 810.5,565.5C 809.978,562.747 809.144,560.08 808,557.5C 805.54,554.875 803.706,551.875 802.5,548.5C 801.675,547.614 800.675,547.281 799.5,547.5C 798.853,545.859 797.853,544.526 796.5,543.5 Z"/></g>
<g><path style="opacity:1" fill="#5979a4" d="M 799.5,547.5 C 800.675,547.281 801.675,547.614 802.5,548.5C 803.706,551.875 805.54,554.875 808,557.5C 809.144,560.08 809.978,562.747 810.5,565.5C 806.03,566.486 801.363,566.819 796.5,566.5C 794.322,564.255 791.988,562.255 789.5,560.5C 787.792,558.457 785.792,556.79 783.5,555.5C 785.591,555.318 787.591,555.652 789.5,556.5C 790.386,557.325 790.719,558.325 790.5,559.5C 791.833,559.5 793.167,559.5 794.5,559.5C 794.33,560.822 794.663,561.989 795.5,563C 799.06,564.237 802.727,564.737 806.5,564.5C 806.663,562.143 806.497,559.81 806,557.5C 803.542,554.223 801.375,550.889 799.5,547.5 Z"/></g>
<g><path style="opacity:1" fill="#edf9fb" d="M 444.5,563.5 C 444.328,564.492 444.662,565.158 445.5,565.5C 445.5,566.833 446.167,567.5 447.5,567.5C 445.507,568.537 443.507,568.203 441.5,566.5C 440.597,564.143 438.93,562.643 436.5,562C 438.912,559.965 438.245,558.965 434.5,559C 433.299,558.097 432.465,556.931 432,555.5C 431.25,556.126 430.416,556.626 429.5,557C 422.213,557.349 415.213,558.182 408.5,559.5C 408.369,558.624 408.702,557.957 409.5,557.5C 422.852,550.791 434.519,552.791 444.5,563.5 Z"/></g>
<g><path style="opacity:1" fill="#859ebc" d="M 445.5,565.5 C 451.409,566.455 457.409,566.789 463.5,566.5C 458.36,567.488 453.026,567.821 447.5,567.5C 446.167,567.5 445.5,566.833 445.5,565.5 Z"/></g>
<g><path style="opacity:1" fill="#8ea3bc" d="M 810.5,565.5 C 811.675,565.281 812.675,565.614 813.5,566.5C 807.68,567.816 802.013,567.816 796.5,566.5C 801.363,566.819 806.03,566.486 810.5,565.5 Z"/></g>
<g><path style="opacity:1" fill="#eef9fc" d="M 211.5,559.5 C 220.647,564.842 226.147,572.842 228,583.5C 228.725,592.398 228.225,601.232 226.5,610C 225.05,613.917 223.05,617.417 220.5,620.5C 217.623,625.478 213.29,628.478 207.5,629.5C 209.666,625.837 212.833,623.504 217,622.5C 219.206,617.459 222.039,612.792 225.5,608.5C 225.392,607.558 225.059,606.725 224.5,606C 225.591,601.55 226.591,597.05 227.5,592.5C 226.709,586.513 225.376,580.846 223.5,575.5C 219.655,575.289 215.655,575.122 211.5,575C 213.757,573.504 215.757,571.837 217.5,570C 216.454,566.949 214.621,564.449 212,562.5C 211.517,561.552 211.351,560.552 211.5,559.5 Z"/></g>
<g><path style="opacity:1" fill="#4976b5" d="M 318.5,559.5 C 319.404,560.209 319.737,561.209 319.5,562.5C 319.5,564.833 319.5,567.167 319.5,569.5C 323.068,569.759 324.401,571.759 323.5,575.5C 324.5,575.5 325.5,575.5 326.5,575.5C 326.813,578.247 326.48,580.914 325.5,583.5C 322.894,581.582 321.894,578.916 322.5,575.5C 321.5,575.5 320.5,575.5 319.5,575.5C 319.808,577.924 319.474,580.257 318.5,582.5C 317.914,582.291 317.414,581.957 317,581.5C 316.505,579.527 316.338,577.527 316.5,575.5C 315.5,575.5 314.5,575.5 313.5,575.5C 313.336,572.813 313.503,570.146 314,567.5C 315.205,566.929 316.372,566.262 317.5,565.5C 316.566,563.298 316.9,561.298 318.5,559.5 Z"/></g>
<g><path style="opacity:1" fill="#5e7aa1" d="M 319.5,562.5 C 322.757,566.215 325.091,570.548 326.5,575.5C 325.5,575.5 324.5,575.5 323.5,575.5C 324.401,571.759 323.068,569.759 319.5,569.5C 319.5,567.167 319.5,564.833 319.5,562.5 Z"/></g>
<g><path style="opacity:1" fill="#607da1" d="M 559.5,564.5 C 558.058,565.82 557.392,567.486 557.5,569.5C 556.5,569.5 555.5,569.5 554.5,569.5C 553.739,574.437 552.405,579.103 550.5,583.5C 549.966,578.099 551.133,573.099 554,568.5C 554.875,565.785 556.708,564.452 559.5,564.5 Z"/></g>
<g><path style="opacity:1" fill="#5478a6" d="M 216.5,543.5 C 220.64,545.375 224.474,547.708 228,550.5C 230.695,555.386 233.528,560.219 236.5,565C 238.91,570.969 240.244,577.136 240.5,583.5C 240.5,589.833 240.5,596.167 240.5,602.5C 240.806,605.385 240.473,608.052 239.5,610.5C 239.832,601.143 239.498,591.81 238.5,582.5C 237.522,582.977 236.689,583.643 236,584.5C 233.476,581.156 233.31,577.823 235.5,574.5C 234.926,571.823 234.259,569.157 233.5,566.5C 230.844,561.664 228.511,556.664 226.5,551.5C 223.754,549.527 220.754,548.027 217.5,547C 216.663,545.989 216.33,544.822 216.5,543.5 Z"/></g>
<g><path style="opacity:1" fill="#6a82a7" d="M 308.5,540.5 C 309.11,541.391 309.443,542.391 309.5,543.5C 308.5,543.5 307.5,543.5 306.5,543.5C 306.5,542.5 306.5,541.5 306.5,540.5C 302.563,540.207 298.73,540.54 295,541.5C 294.169,574.336 294.336,607.003 295.5,639.5C 295.5,641.5 295.5,643.5 295.5,645.5C 298.85,645.665 302.183,645.498 305.5,645C 306.406,643.301 306.739,641.467 306.5,639.5C 306.5,626.167 306.5,612.833 306.5,599.5C 306.833,599.5 307.167,599.5 307.5,599.5C 307.5,615.833 307.5,632.167 307.5,648.5C 302.833,648.5 298.167,648.5 293.5,648.5C 293.5,612.167 293.5,575.833 293.5,539.5C 298.595,539.221 303.595,539.555 308.5,540.5 Z"/></g>
<g><path style="opacity:1" fill="#4875ba" d="M 304.5,575.5 C 303.876,575.917 303.543,576.584 303.5,577.5C 305.162,580.979 305.828,584.646 305.5,588.5C 303.678,605.137 302.844,622.137 303,639.5C 302.832,607.331 302.332,575.331 301.5,543.5C 300.5,543.5 299.5,543.5 298.5,543.5C 298.165,575.68 297.165,607.68 295.5,639.5C 295.333,607.165 295.5,574.832 296,542.5C 299.125,541.213 302.291,541.213 305.5,542.5C 303.503,546.251 303.003,550.251 304,554.5C 305.883,555.653 306.716,557.319 306.5,559.5C 305.5,559.5 304.5,559.5 303.5,559.5C 303.569,564.854 303.902,570.187 304.5,575.5 Z"/></g>
<g><path style="opacity:1" fill="#e3f5fd" d="M 643.5,539.5 C 643.5,575.833 643.5,612.167 643.5,648.5C 642.5,648.5 641.5,648.5 640.5,648.5C 640.23,612.585 640.563,576.585 641.5,540.5C 642.183,540.137 642.85,539.804 643.5,539.5 Z"/></g>
<g><path style="opacity:1" fill="#edf8fc" d="M 729.5,575.5 C 727.892,588.908 728.392,602.241 731,615.5C 732.222,619.015 733.722,622.348 735.5,625.5C 735.5,626.167 735.5,626.833 735.5,627.5C 734.292,626.766 732.959,626.433 731.5,626.5C 730.752,624.416 730.752,622.416 731.5,620.5C 729.639,617.417 728.472,614.084 728,610.5C 727.667,611.5 727.333,612.5 727,613.5C 726.654,611.782 726.154,610.115 725.5,608.5C 726.478,597.552 726.811,586.552 726.5,575.5C 727.5,575.5 728.5,575.5 729.5,575.5 Z"/></g>
<g><path style="opacity:1" fill="#e9f6fb" d="M 617.5,560.5 C 619.641,561.033 621.475,562.7 623,565.5C 624.445,569.756 625.945,573.922 627.5,578C 627.891,587.552 627.891,597.052 627.5,606.5C 626.94,608.854 626.273,611.187 625.5,613.5C 624.817,613.863 624.15,614.196 623.5,614.5C 623.5,614.167 623.5,613.833 623.5,613.5C 623.5,612.5 623.5,611.5 623.5,610.5C 624.934,604.225 625.6,597.725 625.5,591C 625.719,585.568 625.052,580.401 623.5,575.5C 622.239,570.145 620.239,565.145 617.5,560.5 Z"/></g>
<g><path style="opacity:1" fill="#4876b4" d="M 207.5,543.5 C 210.5,543.5 213.5,543.5 216.5,543.5C 216.33,544.822 216.663,545.989 217.5,547C 220.754,548.027 223.754,549.527 226.5,551.5C 228.511,556.664 230.844,561.664 233.5,566.5C 234.259,569.157 234.926,571.823 235.5,574.5C 233.31,577.823 233.476,581.156 236,584.5C 236.689,583.643 237.522,582.977 238.5,582.5C 239.498,591.81 239.832,601.143 239.5,610.5C 238.596,609.791 238.263,608.791 238.5,607.5C 237.167,607.5 235.833,607.5 234.5,607.5C 235.192,611.721 234.192,615.387 231.5,618.5C 230.201,617.91 229.368,616.91 229,615.5C 229.923,600.492 229.59,585.492 228,570.5C 224.071,567.902 221.237,564.402 219.5,560C 217.527,559.505 215.527,559.338 213.5,559.5C 213.241,555.932 211.241,554.599 207.5,555.5C 207.5,554.5 207.5,553.5 207.5,552.5C 201.185,551.89 194.851,551.557 188.5,551.5C 188.116,549.335 188.783,547.668 190.5,546.5C 196.046,546.66 201.712,546.66 207.5,546.5C 207.5,547.833 207.5,549.167 207.5,550.5C 209.527,550.338 211.527,550.505 213.5,551C 216.632,552.635 219.632,554.468 222.5,556.5C 223.386,555.675 223.719,554.675 223.5,553.5C 220.774,553.736 218.441,552.903 216.5,551C 216.833,550.667 217.167,550.333 217.5,550C 213.589,548.556 210.256,546.389 207.5,543.5 Z"/></g>
<g><path style="opacity:1" fill="#ebf8fd" d="M 697.5,539.5 C 697.5,565.167 697.5,590.833 697.5,616.5C 697.167,616.5 696.833,616.5 696.5,616.5C 693.392,610.438 690.392,604.438 687.5,598.5C 687.5,598.167 687.5,597.833 687.5,597.5C 687.13,594.733 685.796,592.733 683.5,591.5C 679.811,584.121 676.144,576.788 672.5,569.5C 673.635,567.912 674.969,567.579 676.5,568.5C 676.497,571.984 677.664,575.317 680,578.5C 682.333,579.5 684,581.167 685,583.5C 685.755,586.688 686.589,589.855 687.5,593C 691.107,595.342 692.44,598.509 691.5,602.5C 693.005,603.842 693.672,605.508 693.5,607.5C 694.5,607.5 695.5,607.5 696.5,607.5C 696.169,584.661 696.503,561.994 697.5,539.5 Z"/></g>
<g><path style="opacity:1" fill="#5179a7" d="M 701.5,540.5 C 701.5,540.167 701.5,539.833 701.5,539.5C 703.833,539.5 706.167,539.5 708.5,539.5C 709.829,574.264 709.829,608.931 708.5,643.5C 708.667,610.165 708.5,576.832 708,543.5C 706.492,541.162 704.325,540.162 701.5,540.5 Z"/></g>
<g><path style="opacity:1" fill="#6181a8" d="M 327.5,578.5 C 331.215,581.929 333.549,586.262 334.5,591.5C 333.068,589.673 331.401,588.006 329.5,586.5C 328.226,584.007 327.56,581.341 327.5,578.5 Z"/></g>
<g><path style="opacity:1" fill="#4a76b2" d="M 657.5,543.5 C 663.838,551.105 668.505,559.772 671.5,569.5C 672.044,573.91 673.044,578.243 674.5,582.5C 677.236,585.903 680.236,588.903 683.5,591.5C 682.891,594.878 684.224,596.878 687.5,597.5C 687.5,597.833 687.5,598.167 687.5,598.5C 687.928,601.564 688.594,604.564 689.5,607.5C 688.503,607.47 687.836,607.97 687.5,609C 688.755,611.922 690.422,614.589 692.5,617C 691.084,619.265 689.084,620.431 686.5,620.5C 684.94,617.679 683.107,615.013 681,612.5C 679.525,606.594 677.525,600.928 675,595.5C 673.989,594.663 672.822,594.33 671.5,594.5C 671.715,592.821 671.048,591.821 669.5,591.5C 665.967,584.433 662.134,577.433 658,570.5C 657.085,569.672 656.419,568.672 656,567.5C 655.536,568.094 655.369,568.761 655.5,569.5C 653.914,568.587 652.414,568.587 651,569.5C 650.984,580.91 650.151,592.243 648.5,603.5C 649.517,617.011 651.183,630.344 653.5,643.5C 653.291,644.086 652.957,644.586 652.5,645C 650.527,645.495 648.527,645.662 646.5,645.5C 645.875,611.347 645.208,577.347 644.5,543.5C 644.414,542.504 644.748,541.671 645.5,541C 648.817,540.502 652.15,540.335 655.5,540.5C 655.285,542.179 655.952,543.179 657.5,543.5 Z"/></g>
<g><path style="opacity:1" fill="#4f7aac" d="M 313.5,550.5 C 315.345,553.338 317.012,556.338 318.5,559.5C 316.9,561.298 316.566,563.298 317.5,565.5C 316.372,566.262 315.205,566.929 314,567.5C 313.503,570.146 313.336,572.813 313.5,575.5C 314.5,575.5 315.5,575.5 316.5,575.5C 316.338,577.527 316.505,579.527 317,581.5C 317.414,581.957 317.914,582.291 318.5,582.5C 319.474,580.257 319.808,577.924 319.5,575.5C 320.5,575.5 321.5,575.5 322.5,575.5C 321.894,578.916 322.894,581.582 325.5,583.5C 326.48,580.914 326.813,578.247 326.5,575.5C 327.404,576.209 327.737,577.209 327.5,578.5C 327.56,581.341 328.226,584.007 329.5,586.5C 328.504,586.586 327.671,586.252 327,585.5C 326.505,587.473 326.338,589.473 326.5,591.5C 325.5,591.5 324.5,591.5 323.5,591.5C 323.351,592.552 323.517,593.552 324,594.5C 327.723,597.953 329.223,602.286 328.5,607.5C 322.042,594.849 315.375,582.183 308.5,569.5C 308.443,568.391 308.11,567.391 307.5,566.5C 308.847,567.171 310.014,567.171 311,566.5C 312.202,564.323 312.702,561.989 312.5,559.5C 310.833,559.5 309.167,559.5 307.5,559.5C 307.5,558.167 307.5,556.833 307.5,555.5C 310.334,556.558 313.001,557.724 315.5,559C 314.287,556.313 313.62,553.48 313.5,550.5 Z"/></g>
<g><path style="opacity:1" fill="#f2fafc" d="M 669.5,591.5 C 670.563,596.058 672.563,600.058 675.5,603.5C 674.778,603.918 674.278,604.584 674,605.5C 671.624,603.158 669.291,600.825 667,598.5C 667.278,593.954 666.111,589.621 663.5,585.5C 662.833,584.167 662.167,584.167 661.5,585.5C 663.086,587.173 663.753,589.173 663.5,591.5C 661.833,591.5 660.167,591.5 658.5,591.5C 659.322,602.02 659.822,612.687 660,623.5C 659.667,621.167 659.333,618.833 659,616.5C 658.333,624.167 658.333,631.833 659,639.5C 659.333,638.167 659.667,636.833 660,635.5C 661.375,645.753 657.042,652.086 647,654.5C 645.212,651.404 642.712,650.737 639.5,652.5C 639.232,650.901 639.566,649.568 640.5,648.5C 641.5,648.5 642.5,648.5 643.5,648.5C 647.833,648.5 652.167,648.5 656.5,648.5C 656.83,630.326 656.497,612.326 655.5,594.5C 655.5,586.167 655.5,577.833 655.5,569.5C 655.369,568.761 655.536,568.094 656,567.5C 656.419,568.672 657.085,569.672 658,570.5C 662.134,577.433 665.967,584.433 669.5,591.5 Z"/></g>
<g><path style="opacity:1" fill="#5979a5" d="M 671.5,569.5 C 671.833,569.5 672.167,569.5 672.5,569.5C 676.144,576.788 679.811,584.121 683.5,591.5C 680.236,588.903 677.236,585.903 674.5,582.5C 673.044,578.243 672.044,573.91 671.5,569.5 Z"/></g>
<g><path style="opacity:1" fill="#557aa5" d="M 543.5,560.5 C 543.5,561.833 543.5,563.167 543.5,564.5C 545.59,564.45 546.923,565.45 547.5,567.5C 546.217,571.942 544.717,572.275 543,568.5C 541.853,570.731 540.853,573.065 540,575.5C 538.05,591.976 539.217,607.976 543.5,623.5C 545.638,623.703 547.305,624.703 548.5,626.5C 551.625,632.587 555.291,638.253 559.5,643.5C 557.97,642.933 556.47,642.267 555,641.5C 551.834,636.016 548.001,631.183 543.5,627C 540.52,621.926 538.687,616.426 538,610.5C 536.557,599.869 536.224,589.202 537,578.5C 538.367,572.053 540.534,566.053 543.5,560.5 Z"/></g>
<g><path style="opacity:1" fill="#f2fcfb" d="M 461.5,626.5 C 465.614,615.622 467.614,604.289 467.5,592.5C 450.341,591.503 433.008,591.17 415.5,591.5C 415.5,590.5 415.5,589.5 415.5,588.5C 433.88,588.18 452.213,588.513 470.5,589.5C 471.347,591.061 471.014,592.561 469.5,594C 471.62,597.125 471.453,600.292 469,603.5C 468.746,608.474 467.913,613.308 466.5,618C 466.833,618.333 467.167,618.667 467.5,619C 464.853,619.315 464.187,620.482 465.5,622.5C 464.39,624.2 463.057,625.534 461.5,626.5 Z"/></g>
<g><path style="opacity:1" fill="#adc6e3" d="M 307.5,566.5 C 308.11,567.391 308.443,568.391 308.5,569.5C 307.506,579.319 307.173,589.319 307.5,599.5C 307.167,599.5 306.833,599.5 306.5,599.5C 306.5,589.833 306.5,580.167 306.5,570.5C 306.232,568.901 306.566,567.568 307.5,566.5 Z"/></g>
<g><path style="opacity:1" fill="#4b77ae" d="M 644.5,543.5 C 645.208,577.347 645.875,611.347 646.5,645.5C 648.527,645.662 650.527,645.495 652.5,645C 652.957,644.586 653.291,644.086 653.5,643.5C 651.183,630.344 649.517,617.011 648.5,603.5C 650.151,592.243 650.984,580.91 651,569.5C 652.414,568.587 653.914,568.587 655.5,569.5C 655.5,577.833 655.5,586.167 655.5,594.5C 655.5,611.833 655.5,629.167 655.5,646.5C 651.894,646.789 648.394,646.456 645,645.5C 644.5,611.502 644.333,577.502 644.5,543.5 Z"/></g>
<g><path style="opacity:1" fill="#5a799d" d="M 708.5,539.5 C 710.494,575.485 711.16,611.818 710.5,648.5C 705.968,648.818 701.634,648.485 697.5,647.5C 696.516,644.556 695.183,641.89 693.5,639.5C 694.833,639.5 696.167,639.5 697.5,639.5C 696.824,643.821 698.658,645.821 703,645.5C 704.5,645.333 706,645.167 707.5,645C 708.056,644.617 708.389,644.117 708.5,643.5C 709.829,608.931 709.829,574.264 708.5,539.5 Z"/></g>
<g><path style="opacity:1" fill="#7f99ba" d="M 240.5,583.5 C 241.818,586.258 242.485,589.424 242.5,593C 242.485,596.576 241.818,599.742 240.5,602.5C 240.5,596.167 240.5,589.833 240.5,583.5 Z"/></g>
<g><path style="opacity:1" fill="#aec8e4" d="M 394.5,585.5 C 394.5,590.167 394.5,594.833 394.5,599.5C 393.195,597.603 392.529,595.269 392.5,592.5C 392.529,589.731 393.195,587.397 394.5,585.5 Z"/></g>
<g><path style="opacity:1" fill="#6682a2" d="M 683.5,591.5 C 685.796,592.733 687.13,594.733 687.5,597.5C 684.224,596.878 682.891,594.878 683.5,591.5 Z"/></g>
<g><path style="opacity:1" fill="#4a77b2" d="M 465.5,592.5 C 462.9,596.964 462.9,601.464 465.5,606C 464.381,609.408 463.714,612.908 463.5,616.5C 461.61,616.297 460.11,616.963 459,618.5C 458.665,625.8 455.831,631.8 450.5,636.5C 450.863,637.183 451.196,637.85 451.5,638.5C 451.158,639.338 450.492,639.672 449.5,639.5C 446.332,640.864 442.999,641.697 439.5,642C 438.294,644.539 436.461,646.372 434,647.5C 426.135,648.894 418.302,648.727 410.5,647C 408.43,642.096 404.763,640.263 399.5,641.5C 399.5,639.833 399.5,638.167 399.5,636.5C 401.167,636.5 402.833,636.5 404.5,636.5C 404.616,633.09 402.95,631.756 399.5,632.5C 400.946,631.387 402.613,631.22 404.5,632C 405.376,633.586 406.376,635.086 407.5,636.5C 411.602,637.358 415.602,638.525 419.5,640C 418.833,640.667 418.167,641.333 417.5,642C 415.236,642.236 413.069,642.736 411,643.5C 410.462,645.473 411.296,646.473 413.5,646.5C 417.743,646.347 422.076,646.18 426.5,646C 426.167,645 425.833,644 425.5,643C 427.679,642.558 428.345,641.558 427.5,640C 430.146,639.503 432.813,639.336 435.5,639.5C 435.5,638.5 435.5,637.5 435.5,636.5C 431.228,635.987 427.395,636.987 424,639.5C 420.932,637.906 418.099,636.24 415.5,634.5C 422.222,634.71 428.888,634.21 435.5,633C 438.176,630.661 441.176,628.828 444.5,627.5C 446.058,625.009 447.058,622.343 447.5,619.5C 447.961,617.084 449.294,615.25 451.5,614C 452.148,612.56 452.481,611.06 452.5,609.5C 452.209,608.351 451.376,607.684 450,607.5C 438.528,608.447 427.028,608.78 415.5,608.5C 415.5,603.167 415.5,597.833 415.5,592.5C 432.167,592.5 448.833,592.5 465.5,592.5 Z"/></g>
<g><path style="opacity:1" fill="#5c789a" d="M 623.5,575.5 C 625.052,580.401 625.719,585.568 625.5,591C 625.6,597.725 624.934,604.225 623.5,610.5C 623.5,598.833 623.5,587.167 623.5,575.5 Z"/></g>
<g><path style="opacity:1" fill="#4b76b3" d="M 799.5,592.5 C 799.5,593.833 799.5,595.167 799.5,596.5C 803.291,595.969 806.957,594.969 810.5,593.5C 812.135,594.046 813.801,594.38 815.5,594.5C 815.5,598.167 815.5,601.833 815.5,605.5C 812.739,606.92 809.739,607.587 806.5,607.5C 792.465,608.054 778.465,608.054 764.5,607.5C 764.5,602.5 764.5,597.5 764.5,592.5C 776.167,592.5 787.833,592.5 799.5,592.5 Z"/></g>
<g><path style="opacity:1" fill="#5d7da6" d="M 550.5,583.5 C 549.79,594.825 551.29,605.825 555,616.5C 557.368,618.302 558.868,620.635 559.5,623.5C 557.536,622.218 555.536,620.885 553.5,619.5C 548.517,607.677 547.517,595.677 550.5,583.5 Z"/></g>
<g><path style="opacity:1" fill="#537aa4" d="M 465.5,592.5 C 466.167,592.5 466.833,592.5 467.5,592.5C 467.614,604.289 465.614,615.622 461.5,626.5C 460.662,626.842 460.328,627.508 460.5,628.5C 456.781,631.218 453.781,634.551 451.5,638.5C 451.196,637.85 450.863,637.183 450.5,636.5C 455.831,631.8 458.665,625.8 459,618.5C 460.11,616.963 461.61,616.297 463.5,616.5C 463.714,612.908 464.381,609.408 465.5,606C 462.9,601.464 462.9,596.964 465.5,592.5 Z"/></g>
<g><path style="opacity:1" fill="#5b7da3" d="M 669.5,591.5 C 671.048,591.821 671.715,592.821 671.5,594.5C 672.822,594.33 673.989,594.663 675,595.5C 677.525,600.928 679.525,606.594 681,612.5C 683.107,615.013 684.94,617.679 686.5,620.5C 686.5,621.5 686.5,622.5 686.5,623.5C 685.13,623.144 684.13,622.31 683.5,621C 680.128,615.427 677.461,609.594 675.5,603.5C 672.563,600.058 670.563,596.058 669.5,591.5 Z"/></g>
<g><path style="opacity:1" fill="#4f78ab" d="M 799.5,592.5 C 805.5,592.5 811.5,592.5 817.5,592.5C 817.529,598.21 817.029,603.877 816,609.5C 815.902,612.522 815.068,615.189 813.5,617.5C 813.657,616.127 813.49,614.793 813,613.5C 811.513,614.253 811.346,615.086 812.5,616C 811.906,616.464 811.239,616.631 810.5,616.5C 810.5,614.833 810.5,613.167 810.5,611.5C 807.743,611.378 805.743,612.545 804.5,615C 804.833,615.333 805.167,615.667 805.5,616C 803.772,619.185 802.439,622.519 801.5,626C 795.644,628.673 789.644,630.84 783.5,632.5C 783.5,631.833 783.5,631.167 783.5,630.5C 787.704,628.142 791.704,625.475 795.5,622.5C 797.578,621.094 799.745,619.761 802,618.5C 803.052,614.595 804.552,610.929 806.5,607.5C 809.739,607.587 812.739,606.92 815.5,605.5C 815.5,601.833 815.5,598.167 815.5,594.5C 813.801,594.38 812.135,594.046 810.5,593.5C 806.957,594.969 803.291,595.969 799.5,596.5C 799.5,595.167 799.5,593.833 799.5,592.5 Z"/></g>
<g><path style="opacity:1" fill="#4777b2" d="M 298.5,543.5 C 298.5,575.5 298.5,607.5 298.5,639.5C 299.5,639.5 300.5,639.5 301.5,639.5C 301.5,607.5 301.5,575.5 301.5,543.5C 302.332,575.331 302.832,607.331 303,639.5C 302.844,622.137 303.678,605.137 305.5,588.5C 305.17,605.675 305.503,622.675 306.5,639.5C 306.739,641.467 306.406,643.301 305.5,645C 302.183,645.498 298.85,645.665 295.5,645.5C 295.5,643.5 295.5,641.5 295.5,639.5C 297.165,607.68 298.165,575.68 298.5,543.5 Z"/></g>
<g><path style="opacity:1" fill="#447bac" d="M 298.5,543.5 C 299.5,543.5 300.5,543.5 301.5,543.5C 301.5,575.5 301.5,607.5 301.5,639.5C 300.5,639.5 299.5,639.5 298.5,639.5C 298.5,607.5 298.5,575.5 298.5,543.5 Z"/></g>
<g><path style="opacity:1" fill="#7690b7" d="M 415.5,591.5 C 433.008,591.17 450.341,591.503 467.5,592.5C 466.833,592.5 466.167,592.5 465.5,592.5C 448.833,592.5 432.167,592.5 415.5,592.5C 415.5,597.833 415.5,603.167 415.5,608.5C 427.028,608.78 438.528,608.447 450,607.5C 451.376,607.684 452.209,608.351 452.5,609.5C 439.5,609.5 426.5,609.5 413.5,609.5C 412.88,603.074 413.547,597.074 415.5,591.5 Z"/></g>
<g><path style="opacity:1" fill="#edf8fd" d="M 384.5,563.5 C 378.927,580.563 378.093,597.897 382,615.5C 382.383,616.056 382.883,616.389 383.5,616.5C 383.833,618.5 384.167,620.5 384.5,622.5C 381.496,621.148 379.663,618.815 379,615.5C 378.179,602.924 378.345,590.424 379.5,578C 377.53,574.582 377.697,571.082 380,567.5C 382.019,566.643 383.519,565.309 384.5,563.5 Z"/></g>
<g><path style="opacity:1" fill="#667e9d" d="M 697.5,539.5 C 698.833,539.5 700.167,539.5 701.5,539.5C 701.5,539.833 701.5,540.167 701.5,540.5C 700.167,565.833 698.833,591.167 697.5,616.5C 697.5,590.833 697.5,565.167 697.5,539.5 Z"/></g>
<g><path style="opacity:1" fill="#647fa3" d="M 687.5,598.5 C 690.392,604.438 693.392,610.438 696.5,616.5C 695.178,616.67 694.011,616.337 693,615.5C 692.058,612.626 690.891,609.96 689.5,607.5C 688.594,604.564 687.928,601.564 687.5,598.5 Z"/></g>
<g><path style="opacity:1" fill="#5379a7" d="M 751.5,543.5 C 751.649,544.552 751.483,545.552 751,546.5C 747.641,550.558 744.641,554.891 742,559.5C 740.989,560.337 739.822,560.67 738.5,560.5C 738.785,562.288 738.452,563.955 737.5,565.5C 735.259,566.032 733.759,567.365 733,569.5C 731.67,582.139 730.837,594.805 730.5,607.5C 731.5,607.5 732.5,607.5 733.5,607.5C 731.984,614.544 734.651,617.877 741.5,617.5C 741.507,614.962 741.841,612.462 742.5,610C 738.706,598.467 738.706,586.967 742.5,575.5C 743.151,573.153 744.484,571.486 746.5,570.5C 741.167,585.867 741.334,601.2 747,616.5C 749.368,618.302 750.868,620.635 751.5,623.5C 748.962,622.323 746.629,620.656 744.5,618.5C 743.914,618.709 743.414,619.043 743,619.5C 742.503,621.81 742.337,624.143 742.5,626.5C 739.203,626.671 738.869,626.005 741.5,624.5C 740.311,623.571 738.978,623.238 737.5,623.5C 737.762,622.022 737.429,620.689 736.5,619.5C 735.534,621.396 735.201,623.396 735.5,625.5C 733.722,622.348 732.222,619.015 731,615.5C 728.392,602.241 727.892,588.908 729.5,575.5C 731.774,569.015 734.441,562.681 737.5,556.5C 738.5,556.5 739.5,556.5 740.5,556.5C 741.64,553.857 742.974,551.191 744.5,548.5C 747.196,547.26 749.529,545.593 751.5,543.5 Z"/></g>
<g><path style="opacity:1" fill="#6486b1" d="M 817.5,592.5 C 811.5,592.5 805.5,592.5 799.5,592.5C 787.833,592.5 776.167,592.5 764.5,592.5C 764.5,597.5 764.5,602.5 764.5,607.5C 778.465,608.054 792.465,608.054 806.5,607.5C 804.552,610.929 803.052,614.595 802,618.5C 799.745,619.761 797.578,621.094 795.5,622.5C 797.63,618.361 799.297,614.028 800.5,609.5C 787.833,609.5 775.167,609.5 762.5,609.5C 762.5,603.5 762.5,597.5 762.5,591.5C 781.008,591.17 799.341,591.503 817.5,592.5 Z"/></g>
<g><path style="opacity:1" fill="#6380a1" d="M 328.5,607.5 C 329.5,607.5 330.5,607.5 331.5,607.5C 331.447,610.061 332.447,612.061 334.5,613.5C 335.474,615.743 335.808,618.076 335.5,620.5C 331.754,617.033 329.421,612.7 328.5,607.5 Z"/></g>
<g><path style="opacity:1" fill="#4a77b2" d="M 394.5,607.5 C 395.021,612.821 394.021,617.821 391.5,622.5C 393.074,623.631 394.741,623.798 396.5,623C 396.333,621.167 396.167,619.333 396,617.5C 397.011,618.337 398.178,618.67 399.5,618.5C 400.337,622.49 398.837,625.157 395,626.5C 392.849,626.235 391.182,625.235 390,623.5C 389.617,624.056 389.117,624.389 388.5,624.5C 388.158,623.662 387.492,623.328 386.5,623.5C 385.508,623.672 384.842,623.338 384.5,622.5C 384.167,620.5 383.833,618.5 383.5,616.5C 383.4,612.298 383.733,608.465 384.5,605C 381.316,598.124 380.65,590.957 382.5,583.5C 383.5,583.5 384.5,583.5 385.5,583.5C 384.198,580.39 384.531,577.39 386.5,574.5C 383.67,571.485 384.17,569.152 388,567.5C 389.618,564.709 390.785,561.709 391.5,558.5C 393.674,557.107 395.507,557.44 397,559.5C 397.422,561.355 397.922,563.189 398.5,565C 394.505,573.737 391.839,582.903 390.5,592.5C 390.852,596.39 391.519,600.223 392.5,604C 392.608,605.681 393.275,606.848 394.5,607.5 Z"/></g>
<g><path style="opacity:1" fill="#5379a7" d="M 351.5,541.5 C 350.585,568.877 350.585,596.21 351.5,623.5C 350.5,623.5 349.5,623.5 348.5,623.5C 348.657,622.127 348.49,620.793 348,619.5C 345.639,617.806 343.639,615.806 342,613.5C 341.054,608.837 340.221,604.17 339.5,599.5C 342.901,604.638 345.567,610.304 347.5,616.5C 347.783,617.289 348.283,617.956 349,618.5C 348.84,592.48 349.674,566.814 351.5,541.5 Z"/></g>
<g><path style="opacity:1" fill="#5179aa" d="M 207.5,543.5 C 210.256,546.389 213.589,548.556 217.5,550C 217.167,550.333 216.833,550.667 216.5,551C 218.441,552.903 220.774,553.736 223.5,553.5C 223.719,554.675 223.386,555.675 222.5,556.5C 219.632,554.468 216.632,552.635 213.5,551C 211.527,550.505 209.527,550.338 207.5,550.5C 207.5,549.167 207.5,547.833 207.5,546.5C 201.712,546.66 196.046,546.66 190.5,546.5C 188.783,547.668 188.116,549.335 188.5,551.5C 194.851,551.557 201.185,551.89 207.5,552.5C 207.5,553.5 207.5,554.5 207.5,555.5C 211.241,554.599 213.241,555.932 213.5,559.5C 215.527,559.338 217.527,559.505 219.5,560C 221.237,564.402 224.071,567.902 228,570.5C 229.59,585.492 229.923,600.492 229,615.5C 229.368,616.91 230.201,617.91 231.5,618.5C 234.192,615.387 235.192,611.721 234.5,607.5C 235.833,607.5 237.167,607.5 238.5,607.5C 238.263,608.791 238.596,609.791 239.5,610.5C 236.987,624.214 229.987,634.881 218.5,642.5C 218.387,639.951 219.054,637.618 220.5,635.5C 222.621,635.46 224.621,634.96 226.5,634C 227.466,631.901 228.8,630.068 230.5,628.5C 231.735,626.684 231.735,625.017 230.5,623.5C 229.167,623.5 227.833,623.5 226.5,623.5C 226.53,627.211 225.53,627.878 223.5,625.5C 224.037,624.259 224.704,623.092 225.5,622C 225.164,620.97 224.497,620.47 223.5,620.5C 222.798,619.884 221.798,619.884 220.5,620.5C 223.05,617.417 225.05,613.917 226.5,610C 228.225,601.232 228.725,592.398 228,583.5C 226.147,572.842 220.647,564.842 211.5,559.5C 208.615,557.33 205.282,555.997 201.5,555.5C 195.202,554.504 188.868,554.17 182.5,554.5C 182.178,552.278 182.845,550.444 184.5,549C 183.594,547.301 183.261,545.467 183.5,543.5C 189.509,543.666 195.509,543.499 201.5,543C 199.419,542.131 197.253,541.631 195,541.5C 187.67,542.04 180.504,542.707 173.5,543.5C 172.5,543.5 171.5,543.5 170.5,543.5C 170.414,542.504 170.748,541.671 171.5,541C 181.167,540.333 190.833,540.333 200.5,541C 203.361,540.97 205.695,541.803 207.5,543.5 Z"/></g>
<g><path style="opacity:1" fill="#4b78af" d="M 701.5,540.5 C 704.325,540.162 706.492,541.162 708,543.5C 708.5,576.832 708.667,610.165 708.5,643.5C 708.389,644.117 708.056,644.617 707.5,645C 706,645.167 704.5,645.333 703,645.5C 698.658,645.821 696.824,643.821 697.5,639.5C 696.167,639.5 694.833,639.5 693.5,639.5C 690.673,634.5 688.339,629.166 686.5,623.5C 686.5,622.5 686.5,621.5 686.5,620.5C 689.084,620.431 691.084,619.265 692.5,617C 690.422,614.589 688.755,611.922 687.5,609C 687.836,607.97 688.503,607.47 689.5,607.5C 690.891,609.96 692.058,612.626 693,615.5C 694.011,616.337 695.178,616.67 696.5,616.5C 696.833,616.5 697.167,616.5 697.5,616.5C 698.833,591.167 700.167,565.833 701.5,540.5 Z"/></g>
<g><path style="opacity:1" fill="#4775b7" d="M 701.5,541.5 C 703.451,541.227 704.951,541.893 706,543.5C 706.195,576.856 706.695,610.189 707.5,643.5C 704.202,643.984 701.536,642.984 699.5,640.5C 700.376,639.749 701.376,639.249 702.5,639C 700.821,637.174 699.654,635.008 699,632.5C 698.417,634.002 697.584,635.335 696.5,636.5C 692.894,632.754 691.56,628.42 692.5,623.5C 694.025,626.563 696.025,629.23 698.5,631.5C 699.895,628.337 700.228,625.17 699.5,622C 700.01,620.174 700.844,620.007 702,621.5C 702.492,620.451 702.326,619.451 701.5,618.5C 702.167,618.167 702.833,617.833 703.5,617.5C 702.674,611.548 702.674,605.548 703.5,599.5C 702.833,594.167 702.167,588.833 701.5,583.5C 702.418,569.507 702.418,555.507 701.5,541.5 Z"/></g>
<g><path style="opacity:1" fill="#5378a4" d="M 306.5,570.5 C 306.5,580.167 306.5,589.833 306.5,599.5C 306.5,612.833 306.5,626.167 306.5,639.5C 305.503,622.675 305.17,605.675 305.5,588.5C 305.828,584.646 305.162,580.979 303.5,577.5C 303.543,576.584 303.876,575.917 304.5,575.5C 305.167,573.833 305.833,572.167 306.5,570.5 Z"/></g>
<g><path style="opacity:1" fill="#6382aa" d="M 603.5,620.5 C 603.727,623.438 602.727,625.771 600.5,627.5C 599.662,627.842 599.328,628.508 599.5,629.5C 596.764,631.196 593.764,632.362 590.5,633C 585.063,633.243 579.729,634.076 574.5,635.5C 573.5,635.333 572.5,635.167 571.5,635C 570.279,632.966 568.945,631.133 567.5,629.5C 582.008,635.507 594.008,632.507 603.5,620.5 Z"/></g>
<g><path style="opacity:1" fill="#6a86a8" d="M 386.5,623.5 C 387.492,623.328 388.158,623.662 388.5,624.5C 391.253,627.762 393.253,631.429 394.5,635.5C 390.21,632.712 387.543,628.712 386.5,623.5 Z"/></g>
<g><path style="opacity:1" fill="#4d78b0" d="M 610.5,607.5 C 610.833,607.5 611.167,607.5 611.5,607.5C 611.704,610.545 611.704,613.379 611.5,616C 613,617.167 614.5,618.333 616,619.5C 616.87,618.892 617.37,618.059 617.5,617C 615.775,614.114 615.108,610.948 615.5,607.5C 616.833,607.5 618.167,607.5 619.5,607.5C 619.336,610.187 619.503,612.854 620,615.5C 620.71,614.027 621.876,613.36 623.5,613.5C 623.5,613.833 623.5,614.167 623.5,614.5C 621.314,616.597 619.981,619.264 619.5,622.5C 618.817,622.863 618.15,623.196 617.5,623.5C 614.893,626.474 612.56,629.807 610.5,633.5C 609.675,634.386 608.675,634.719 607.5,634.5C 607.5,631.833 607.5,629.167 607.5,626.5C 605.201,627.138 603.034,628.138 601,629.5C 600.536,628.906 600.369,628.239 600.5,627.5C 602.727,625.771 603.727,623.438 603.5,620.5C 606.576,617.389 608.243,613.555 608.5,609C 608.836,607.97 609.503,607.47 610.5,607.5 Z"/></g>
<g><path style="opacity:1" fill="#5278a9" d="M 394.5,607.5 C 397.713,613.583 401.213,619.583 405,625.5C 408.223,628.612 411.723,630.946 415.5,632.5C 413.801,632.66 412.134,632.494 410.5,632C 407.037,629.602 403.37,627.768 399.5,626.5C 399.5,627.5 399.5,628.5 399.5,629.5C 394.782,630.319 394.448,631.986 398.5,634.5C 399.298,634.043 399.631,633.376 399.5,632.5C 402.95,631.756 404.616,633.09 404.5,636.5C 402.833,636.5 401.167,636.5 399.5,636.5C 399.5,638.167 399.5,639.833 399.5,641.5C 397.633,639.716 395.966,637.716 394.5,635.5C 393.253,631.429 391.253,627.762 388.5,624.5C 389.117,624.389 389.617,624.056 390,623.5C 391.182,625.235 392.849,626.235 395,626.5C 398.837,625.157 400.337,622.49 399.5,618.5C 398.178,618.67 397.011,618.337 396,617.5C 396.167,619.333 396.333,621.167 396.5,623C 394.741,623.798 393.074,623.631 391.5,622.5C 394.021,617.821 395.021,612.821 394.5,607.5 Z"/></g>
<g><path style="opacity:1" fill="#587ca4" d="M 220.5,620.5 C 220.933,629.717 216.6,633.05 207.5,630.5C 207.5,630.167 207.5,629.833 207.5,629.5C 213.29,628.478 217.623,625.478 220.5,620.5 Z"/></g>
<g><path style="opacity:1" fill="#4575bd" d="M 223.5,620.5 C 224.497,620.47 225.164,620.97 225.5,622C 224.704,623.092 224.037,624.259 223.5,625.5C 225.53,627.878 226.53,627.211 226.5,623.5C 227.833,623.5 229.167,623.5 230.5,623.5C 230.579,624.93 230.246,626.264 229.5,627.5C 227.823,629.54 226.156,631.54 224.5,633.5C 223.5,633 222.5,632.5 221.5,632C 221.833,631.667 222.167,631.333 222.5,631C 221.692,630.692 221.025,630.192 220.5,629.5C 221.659,626.519 222.659,623.519 223.5,620.5 Z"/></g>
<g><path style="opacity:1" fill="#a4b9d1" d="M 499.5,630.5 C 509.558,629.86 519.225,630.527 528.5,632.5C 528.167,632.5 527.833,632.5 527.5,632.5C 517.773,633.139 508.44,632.472 499.5,630.5 Z"/></g>
<g><path style="opacity:1" fill="#4e78af" d="M 751.5,623.5 C 753.437,625.091 755.437,626.758 757.5,628.5C 760.88,629.923 764.214,631.257 767.5,632.5C 767.5,632.833 767.5,633.167 767.5,633.5C 764.813,633.336 762.146,633.503 759.5,634C 760.308,635.706 761.641,636.539 763.5,636.5C 763.5,637.5 763.5,638.5 763.5,639.5C 771.196,639.169 778.862,639.503 786.5,640.5C 786.291,641.086 785.957,641.586 785.5,642C 787.101,642.273 788.601,642.773 790,643.5C 791.579,641.959 793.413,640.792 795.5,640C 794.833,639.667 794.167,639.333 793.5,639C 794.357,638.311 795.023,637.478 795.5,636.5C 797.095,635.566 798.761,635.566 800.5,636.5C 798.465,640.865 795.131,643.865 790.5,645.5C 789.292,646.234 787.959,646.567 786.5,646.5C 777.198,649.112 767.865,649.112 758.5,646.5C 755.607,646.969 753.607,645.969 752.5,643.5C 760.602,646.208 768.935,647.042 777.5,646C 778.672,645.581 779.672,644.915 780.5,644C 778.371,642.897 776.037,642.397 773.5,642.5C 771.241,642.532 769.075,642.866 767,643.5C 761.732,641.647 756.732,639.314 752,636.5C 750.092,636.715 748.926,637.715 748.5,639.5C 747.24,637.633 745.573,636.3 743.5,635.5C 742.764,633.771 741.43,632.771 739.5,632.5C 739.719,631.325 739.386,630.325 738.5,629.5C 737.261,629.058 736.261,628.391 735.5,627.5C 735.5,626.833 735.5,626.167 735.5,625.5C 735.201,623.396 735.534,621.396 736.5,619.5C 737.429,620.689 737.762,622.022 737.5,623.5C 738.978,623.238 740.311,623.571 741.5,624.5C 738.869,626.005 739.203,626.671 742.5,626.5C 742.337,624.143 742.503,621.81 743,619.5C 743.414,619.043 743.914,618.709 744.5,618.5C 746.629,620.656 748.962,622.323 751.5,623.5 Z"/></g>
<g><path style="opacity:1" fill="#4a76b0" d="M 223.5,620.5 C 222.659,623.519 221.659,626.519 220.5,629.5C 221.025,630.192 221.692,630.692 222.5,631C 222.167,631.333 221.833,631.667 221.5,632C 222.5,632.5 223.5,633 224.5,633.5C 226.156,631.54 227.823,629.54 229.5,627.5C 230.246,626.264 230.579,624.93 230.5,623.5C 231.735,625.017 231.735,626.684 230.5,628.5C 228.8,630.068 227.466,631.901 226.5,634C 224.621,634.96 222.621,635.46 220.5,635.5C 219.054,637.618 218.387,639.951 218.5,642.5C 216.883,643.038 215.216,643.371 213.5,643.5C 200.22,644.864 186.886,645.364 173.5,645C 172.748,644.329 172.414,643.496 172.5,642.5C 173.458,642.953 174.292,643.619 175,644.5C 181.753,643.686 188.586,643.186 195.5,643C 196.833,642.667 198.167,642.333 199.5,642C 198.167,641.333 198.167,640.667 199.5,640C 202.146,639.503 204.813,639.336 207.5,639.5C 207.923,637.219 207.256,635.552 205.5,634.5C 206.806,633.533 207.473,632.199 207.5,630.5C 216.6,633.05 220.933,629.717 220.5,620.5C 221.798,619.884 222.798,619.884 223.5,620.5 Z"/></g>
<g><path style="opacity:1" fill="#6886a9" d="M 447.5,619.5 C 447.058,622.343 446.058,625.009 444.5,627.5C 441.176,628.828 438.176,630.661 435.5,633C 428.888,634.21 422.222,634.71 415.5,634.5C 415.5,633.833 415.5,633.167 415.5,632.5C 425.426,633.784 434.426,631.617 442.5,626C 444.03,623.648 445.697,621.481 447.5,619.5 Z"/></g>
<g><path style="opacity:1" fill="#4775b9" d="M 607.5,634.5 C 607.5,634.833 607.5,635.167 607.5,635.5C 604.111,635.632 600.777,635.799 597.5,636C 597.043,635.586 596.709,635.086 596.5,634.5C 597.26,632.64 598.26,630.973 599.5,629.5C 599.328,628.508 599.662,627.842 600.5,627.5C 600.369,628.239 600.536,628.906 601,629.5C 603.034,628.138 605.201,627.138 607.5,626.5C 607.5,629.167 607.5,631.833 607.5,634.5 Z"/></g>
<g><path style="opacity:1" fill="#8099b8" d="M 783.5,630.5 C 783.5,631.167 783.5,631.833 783.5,632.5C 778.36,633.488 773.026,633.821 767.5,633.5C 767.5,633.167 767.5,632.833 767.5,632.5C 773.058,632.943 778.391,632.276 783.5,630.5 Z"/></g>
<g><path style="opacity:1" fill="#5a789f" d="M 813.5,617.5 C 813.5,618.5 813.5,619.5 813.5,620.5C 812.5,620.5 811.5,620.5 810.5,620.5C 809.969,623.237 809.136,625.904 808,628.5C 805.998,630.503 804.498,632.836 803.5,635.5C 802.583,636.127 801.583,636.461 800.5,636.5C 803.258,632.065 805.925,627.565 808.5,623C 807.989,620.681 808.656,618.514 810.5,616.5C 811.239,616.631 811.906,616.464 812.5,616C 811.346,615.086 811.513,614.253 813,613.5C 813.49,614.793 813.657,616.127 813.5,617.5 Z"/></g>
<g><path style="opacity:1" fill="#5277a8" d="M 182.5,554.5 C 182.5,556.167 182.5,557.833 182.5,559.5C 181.823,582.039 181.157,604.706 180.5,627.5C 180.942,628.739 181.609,629.739 182.5,630.5C 185.258,631.818 188.424,632.485 192,632.5C 197.225,632.073 202.392,631.407 207.5,630.5C 207.473,632.199 206.806,633.533 205.5,634.5C 196.572,636.482 187.905,635.815 179.5,632.5C 178.447,631.562 177.78,630.395 177.5,629C 178.152,605.856 178.819,582.69 179.5,559.5C 180.065,557.456 181.065,555.79 182.5,554.5 Z"/></g>
<g><path style="opacity:1" fill="#4976b4" d="M 810.5,616.5 C 808.656,618.514 807.989,620.681 808.5,623C 805.925,627.565 803.258,632.065 800.5,636.5C 798.761,635.566 797.095,635.566 795.5,636.5C 795.023,637.478 794.357,638.311 793.5,639C 794.167,639.333 794.833,639.667 795.5,640C 793.413,640.792 791.579,641.959 790,643.5C 788.601,642.773 787.101,642.273 785.5,642C 785.957,641.586 786.291,641.086 786.5,640.5C 778.862,639.503 771.196,639.169 763.5,639.5C 763.5,638.5 763.5,637.5 763.5,636.5C 761.641,636.539 760.308,635.706 759.5,634C 762.146,633.503 764.813,633.336 767.5,633.5C 773.026,633.821 778.36,633.488 783.5,632.5C 789.644,630.84 795.644,628.673 801.5,626C 802.439,622.519 803.772,619.185 805.5,616C 805.167,615.667 804.833,615.333 804.5,615C 805.743,612.545 807.743,611.378 810.5,611.5C 810.5,613.167 810.5,614.833 810.5,616.5 Z"/></g>
<g><path style="opacity:1" fill="#4976b7" d="M 415.5,632.5 C 415.5,633.167 415.5,633.833 415.5,634.5C 418.099,636.24 420.932,637.906 424,639.5C 427.395,636.987 431.228,635.987 435.5,636.5C 435.5,637.5 435.5,638.5 435.5,639.5C 432.813,639.336 430.146,639.503 427.5,640C 428.345,641.558 427.679,642.558 425.5,643C 425.833,644 426.167,645 426.5,646C 422.076,646.18 417.743,646.347 413.5,646.5C 411.296,646.473 410.462,645.473 411,643.5C 413.069,642.736 415.236,642.236 417.5,642C 418.167,641.333 418.833,640.667 419.5,640C 415.602,638.525 411.602,637.358 407.5,636.5C 406.376,635.086 405.376,633.586 404.5,632C 402.613,631.22 400.946,631.387 399.5,632.5C 399.631,633.376 399.298,634.043 398.5,634.5C 394.448,631.986 394.782,630.319 399.5,629.5C 399.5,628.5 399.5,627.5 399.5,626.5C 403.37,627.768 407.037,629.602 410.5,632C 412.134,632.494 413.801,632.66 415.5,632.5 Z"/></g>
<g><path style="opacity:1" fill="#4876b6" d="M 182.5,554.5 C 181.065,555.79 180.065,557.456 179.5,559.5C 178.819,582.69 178.152,605.856 177.5,629C 177.78,630.395 178.447,631.562 179.5,632.5C 187.905,635.815 196.572,636.482 205.5,634.5C 207.256,635.552 207.923,637.219 207.5,639.5C 204.813,639.336 202.146,639.503 199.5,640C 198.167,640.667 198.167,641.333 199.5,642C 198.167,642.333 196.833,642.667 195.5,643C 188.586,643.186 181.753,643.686 175,644.5C 174.292,643.619 173.458,642.953 172.5,642.5C 171.732,641.737 171.232,640.737 171,639.5C 170.5,607.502 170.333,575.502 170.5,543.5C 171.5,543.5 172.5,543.5 173.5,543.5C 180.504,542.707 187.67,542.04 195,541.5C 197.253,541.631 199.419,542.131 201.5,543C 195.509,543.499 189.509,543.666 183.5,543.5C 183.261,545.467 183.594,547.301 184.5,549C 182.845,550.444 182.178,552.278 182.5,554.5 Z"/></g>
<g><path style="opacity:1" fill="#477aaa" d="M 173.5,543.5 C 174.833,543.5 176.167,543.5 177.5,543.5C 178.881,546.765 178.381,549.765 176,552.5C 175.5,580.831 175.333,609.165 175.5,637.5C 177.308,637.491 178.975,637.991 180.5,639C 178.19,639.497 175.857,639.663 173.5,639.5C 173.5,607.5 173.5,575.5 173.5,543.5 Z"/></g>
<g><path style="opacity:1" fill="#ebf6fa" d="M 460.5,628.5 C 459.272,630.01 459.272,631.51 460.5,633C 457.291,636.685 454.958,640.519 453.5,644.5C 451.019,646.805 448.686,646.805 446.5,644.5C 441.297,650.231 434.964,652.565 427.5,651.5C 427.5,650.833 427.5,650.167 427.5,649.5C 431.607,649.482 435.607,648.815 439.5,647.5C 442.973,644.795 446.306,642.128 449.5,639.5C 450.492,639.672 451.158,639.338 451.5,638.5C 453.781,634.551 456.781,631.218 460.5,628.5 Z"/></g>
<g><path style="opacity:1" fill="#6484a1" d="M 743.5,635.5 C 745.573,636.3 747.24,637.633 748.5,639.5C 749.5,639.5 750.5,639.5 751.5,639.5C 751.5,640.833 751.5,642.167 751.5,643.5C 747.519,642.251 744.853,639.585 743.5,635.5 Z"/></g>
<g><path style="opacity:1" fill="#6482a7" d="M 449.5,639.5 C 446.306,642.128 442.973,644.795 439.5,647.5C 435.607,648.815 431.607,649.482 427.5,649.5C 424.833,649.5 422.167,649.5 419.5,649.5C 411.642,649.557 404.975,646.89 399.5,641.5C 404.763,640.263 408.43,642.096 410.5,647C 418.302,648.727 426.135,648.894 434,647.5C 436.461,646.372 438.294,644.539 439.5,642C 442.999,641.697 446.332,640.864 449.5,639.5 Z"/></g>
<g><path style="opacity:1" fill="#4b75b7" d="M 752.5,643.5 C 752.167,643.5 751.833,643.5 751.5,643.5C 751.5,642.167 751.5,640.833 751.5,639.5C 750.5,639.5 749.5,639.5 748.5,639.5C 748.926,637.715 750.092,636.715 752,636.5C 756.732,639.314 761.732,641.647 767,643.5C 769.075,642.866 771.241,642.532 773.5,642.5C 776.037,642.397 778.371,642.897 780.5,644C 779.672,644.915 778.672,645.581 777.5,646C 768.935,647.042 760.602,646.208 752.5,643.5 Z"/></g>
<g><path style="opacity:1" fill="#5478a5" d="M 617.5,623.5 C 615.752,630.191 612.085,635.525 606.5,639.5C 605.614,640.325 605.281,641.325 605.5,642.5C 604.127,642.343 602.793,642.51 601.5,643C 598.278,645.122 594.944,646.955 591.5,648.5C 582.426,648.704 573.426,648.037 564.5,646.5C 562.368,646.446 561.035,645.446 560.5,643.5C 561.117,643.389 561.617,643.056 562,642.5C 565.606,645.579 570.439,646.912 576.5,646.5C 589.025,648.321 599.359,644.654 607.5,635.5C 607.5,635.167 607.5,634.833 607.5,634.5C 608.675,634.719 609.675,634.386 610.5,633.5C 612.56,629.807 614.893,626.474 617.5,623.5 Z"/></g>
<g><path style="opacity:1" fill="#edf8fb" d="M 739.5,632.5 C 741.43,632.771 742.764,633.771 743.5,635.5C 744.853,639.585 747.519,642.251 751.5,643.5C 751.833,643.5 752.167,643.5 752.5,643.5C 753.607,645.969 755.607,646.969 758.5,646.5C 758.881,647.931 759.881,648.764 761.5,649C 768.833,649.667 776.167,649.667 783.5,649C 785.119,648.764 786.119,647.931 786.5,646.5C 787.959,646.567 789.292,646.234 790.5,645.5C 790.611,646.117 790.944,646.617 791.5,647C 788.509,649.598 785.509,652.098 782.5,654.5C 778.475,652.357 774.308,652.023 770,653.5C 766.519,652.877 763.019,652.377 759.5,652C 757.099,649.938 754.433,648.271 751.5,647C 751.07,646.08 750.736,645.247 750.5,644.5C 749.318,646.645 747.818,646.645 746,644.5C 744.991,642.975 744.491,641.308 744.5,639.5C 743.127,639.657 741.793,639.49 740.5,639C 740.833,638.667 741.167,638.333 741.5,638C 739.419,636.4 738.752,634.566 739.5,632.5 Z"/></g>
<g><path style="opacity:1" fill="#758ea9" d="M 169.5,643.5 C 170.404,644.209 170.737,645.209 170.5,646.5C 182.833,646.5 195.167,646.5 207.5,646.5C 195.211,648.48 182.544,649.147 169.5,648.5C 169.5,646.833 169.5,645.167 169.5,643.5 Z"/></g>
<g><path style="opacity:1" fill="#6b84a1" d="M 488.5,539.5 C 487.4,540.605 486.733,541.938 486.5,543.5C 486.5,577.833 486.5,612.167 486.5,646.5C 500.167,646.5 513.833,646.5 527.5,646.5C 527.5,642.833 527.5,639.167 527.5,635.5C 527.5,634.5 527.5,633.5 527.5,632.5C 527.833,632.5 528.167,632.5 528.5,632.5C 528.5,637.833 528.5,643.167 528.5,648.5C 514.167,648.5 499.833,648.5 485.5,648.5C 485.5,612.167 485.5,575.833 485.5,539.5C 486.5,539.5 487.5,539.5 488.5,539.5 Z"/></g>
<g><path style="opacity:1" fill="#6e8bad" d="M 564.5,646.5 C 573.426,648.037 582.426,648.704 591.5,648.5C 589.052,649.473 586.385,649.806 583.5,649.5C 580.833,649.5 578.167,649.5 575.5,649.5C 572.626,649.549 569.792,649.216 567,648.5C 565.624,648.316 564.791,647.649 564.5,646.5 Z"/></g>
<g><path style="opacity:1" fill="#6585a5" d="M 758.5,646.5 C 767.865,649.112 777.198,649.112 786.5,646.5C 786.119,647.931 785.119,648.764 783.5,649C 776.167,649.667 768.833,649.667 761.5,649C 759.881,648.764 758.881,647.931 758.5,646.5 Z"/></g>
<g><path style="opacity:1" fill="#c7daf2" d="M 419.5,649.5 C 422.167,649.5 424.833,649.5 427.5,649.5C 427.5,650.167 427.5,650.833 427.5,651.5C 424.482,651.665 421.482,651.498 418.5,651C 419.056,650.617 419.389,650.117 419.5,649.5 Z"/></g>
<g><path style="opacity:1" fill="#c4d6eb" d="M 575.5,649.5 C 578.167,649.5 580.833,649.5 583.5,649.5C 582.666,650.748 581.333,651.415 579.5,651.5C 577.667,651.415 576.334,650.748 575.5,649.5 Z"/></g>
<g><path style="opacity:1" fill="#a2a1a0" d="M -0.5,7.5 C 0.166667,319.167 0.833333,630.833 1.5,942.5C 315.167,942.5 628.833,942.5 942.5,942.5C 941.849,926.797 942.516,911.464 944.5,896.5C 944.5,912.5 944.5,928.5 944.5,944.5C 629.5,944.5 314.5,944.5 -0.5,944.5C -0.5,632.167 -0.5,319.833 -0.5,7.5 Z"/></g>
</svg>
