<?xml version="1.0" encoding="UTF-8"?>
<!DOCTYPE svg PUBLIC "-//W3C//DTD SVG 1.1//EN" "http://www.w3.org/Graphics/SVG/1.1/DTD/svg11.dtd">
<svg xmlns="http://www.w3.org/2000/svg" version="1.1" width="240px" height="240px" style="shape-rendering:geometricPrecision; text-rendering:geometricPrecision; image-rendering:optimizeQuality; fill-rule:evenodd; clip-rule:evenodd" xmlns:xlink="http://www.w3.org/1999/xlink">
<g><path style="opacity:1" fill="#fcfbfb" d="M -0.5,-0.5 C 13.1667,-0.5 26.8333,-0.5 40.5,-0.5C 40.5,0.166667 40.5,0.833333 40.5,1.5C 39.501,55.9975 39.1677,110.664 39.5,165.5C 95.3358,165.832 151.002,165.499 206.5,164.5C 207.499,109.669 207.832,54.6692 207.5,-0.5C 218.167,-0.5 228.833,-0.5 239.5,-0.5C 239.5,79.5 239.5,159.5 239.5,239.5C 200.167,239.5 160.833,239.5 121.5,239.5C 124.203,237.89 127.203,236.89 130.5,236.5C 130.334,228.826 130.5,221.159 131,213.5C 132.442,211.609 133.609,209.609 134.5,207.5C 137.65,203.881 140.316,199.881 142.5,195.5C 143.338,195.158 143.672,194.492 143.5,193.5C 146.399,190.048 149.066,186.382 151.5,182.5C 152.043,182.44 152.376,182.107 152.5,181.5C 147.682,180.188 143.015,180.188 138.5,181.5C 137.662,181.842 137.328,182.508 137.5,183.5C 132.942,189.594 128.609,195.927 124.5,202.5C 121.579,198.981 118.913,195.314 116.5,191.5C 115.331,188.489 113.664,185.822 111.5,183.5C 111.5,183.167 111.5,182.833 111.5,182.5C 111.5,182.167 111.5,181.833 111.5,181.5C 106.695,180.513 101.695,180.179 96.5,180.5C 94.5993,183.328 95.266,184.994 98.5,185.5C 102.411,190.322 106.078,195.322 109.5,200.5C 111.446,204.439 113.779,208.106 116.5,211.5C 116.557,212.609 116.89,213.609 117.5,214.5C 117.198,222.918 117.531,231.252 118.5,239.5C 78.8333,239.5 39.1667,239.5 -0.5,239.5C -0.5,159.5 -0.5,79.5 -0.5,-0.5 Z"/></g>
<g><path style="opacity:1" fill="#dab9e9" d="M 40.5,-0.5 C 94.5,-0.5 148.5,-0.5 202.5,-0.5C 148.833,0.166667 95.1667,0.833333 41.5,1.5C 41.1667,1.5 40.8333,1.5 40.5,1.5C 40.5,0.833333 40.5,0.166667 40.5,-0.5 Z"/></g>
<g><path style="opacity:1" fill="#d8a5f2" d="M 202.5,-0.5 C 203.5,-0.5 204.5,-0.5 205.5,-0.5C 205.5,0.166667 205.5,0.833333 205.5,1.5C 151.167,1.5 96.8333,1.5 42.5,1.5C 42.1667,1.5 41.8333,1.5 41.5,1.5C 95.1667,0.833333 148.833,0.166667 202.5,-0.5 Z"/></g>
<g><path style="opacity:1" fill="#610191" d="M 42.5,2.5 C 96.5887,1.86823 150.589,2.5349 204.5,4.5C 204.5,5.5 204.5,6.5 204.5,7.5C 203.167,7.5 201.833,7.5 200.5,7.5C 200.5,58.1667 200.5,108.833 200.5,159.5C 199.5,159.5 198.5,159.5 197.5,159.5C 197.667,110.166 197.5,60.8322 197,11.5C 195.126,11.8102 193.293,11.3102 191.5,10C 143.5,9.33333 95.5,9.33333 47.5,10C 46.09,10.3678 45.09,11.2011 44.5,12.5C 44.8269,61.8026 45.8269,110.803 47.5,159.5C 47.5,160.5 47.5,161.5 47.5,162.5C 95.6696,162.168 143.67,162.501 191.5,163.5C 142.167,163.5 92.8333,163.5 43.5,163.5C 43.4326,162.041 43.7659,160.708 44.5,159.5C 44.6667,111.166 44.5,62.8322 44,14.5C 43.6174,13.944 43.1174,13.6107 42.5,13.5C 42.5,11.8333 42.5,10.1667 42.5,8.5C 68.0946,7.21329 93.7612,6.54662 119.5,6.5C 144.352,6.51161 169.185,6.84494 194,7.5C 195.607,7.23076 196.774,6.39742 197.5,5C 145.377,4.51956 93.3774,4.35289 41.5,4.5C 41.3284,3.50838 41.6618,2.84171 42.5,2.5 Z"/></g>
<g><path style="opacity:1" fill="#5e019b" d="M 42.5,13.5 C 43.1174,13.6107 43.6174,13.944 44,14.5C 44.5,62.8322 44.6667,111.166 44.5,159.5C 42.5047,111.178 41.838,62.5114 42.5,13.5 Z"/></g>
<g><path style="opacity:1" fill="#feecfe" d="M 205.5,-0.5 C 206.167,-0.5 206.833,-0.5 207.5,-0.5C 207.832,54.6692 207.499,109.669 206.5,164.5C 206.832,109.997 206.499,55.6641 205.5,1.5C 205.5,0.833333 205.5,0.166667 205.5,-0.5 Z"/></g>
<g><path style="opacity:1" fill="#4c1274" d="M 42.5,2.5 C 42.5,2.16667 42.5,1.83333 42.5,1.5C 96.8333,1.5 151.167,1.5 205.5,1.5C 206.499,55.6641 206.832,109.997 206.5,164.5C 151.833,164.5 97.1667,164.5 42.5,164.5C 42.5,164.167 42.5,163.833 42.5,163.5C 42.8333,163.5 43.1667,163.5 43.5,163.5C 92.8333,163.5 142.167,163.5 191.5,163.5C 195.833,163.5 200.167,163.5 204.5,163.5C 204.5,111.5 204.5,59.5 204.5,7.5C 204.5,6.5 204.5,5.5 204.5,4.5C 150.589,2.5349 96.5887,1.86823 42.5,2.5 Z"/></g>
<g><path style="opacity:1" fill="#4a055d" d="M 40.5,1.5 C 40.8333,1.5 41.1667,1.5 41.5,1.5C 41.8333,1.5 42.1667,1.5 42.5,1.5C 42.5,1.83333 42.5,2.16667 42.5,2.5C 41.6618,2.84171 41.3284,3.50838 41.5,4.5C 41.1677,57.6693 41.5011,110.669 42.5,163.5C 42.5,163.833 42.5,164.167 42.5,164.5C 40.5042,110.51 39.8375,56.1769 40.5,1.5 Z"/></g>
<g><path style="opacity:1" fill="#64018a" d="M 204.5,7.5 C 204.5,59.5 204.5,111.5 204.5,163.5C 200.167,163.5 195.833,163.5 191.5,163.5C 143.67,162.501 95.6696,162.168 47.5,162.5C 47.5,161.5 47.5,160.5 47.5,159.5C 45.8269,110.803 44.8269,61.8026 44.5,12.5C 45.09,11.2011 46.09,10.3678 47.5,10C 95.5,9.33333 143.5,9.33333 191.5,10C 193.293,11.3102 195.126,11.8102 197,11.5C 197.5,60.8322 197.667,110.166 197.5,159.5C 198.5,159.5 199.5,159.5 200.5,159.5C 200.5,108.833 200.5,58.1667 200.5,7.5C 201.833,7.5 203.167,7.5 204.5,7.5 Z"/></g>
<g><path style="opacity:1" fill="#62008e" d="M 47.5,159.5 C 47.5,110.167 47.5,60.8333 47.5,11.5C 95.5046,11.1667 143.505,11.5001 191.5,12.5C 192.908,13.2432 194.241,14.0766 195.5,15C 194.503,63.0948 194.169,111.261 194.5,159.5C 145.5,160.833 96.5,160.833 47.5,159.5 Z"/></g>
<g><path style="opacity:1" fill="#f7ecf7" d="M 100.5,40.5 C 102.412,42.6572 104.079,44.9906 105.5,47.5C 105.66,49.1992 105.494,50.8659 105,52.5C 99.4174,60.9266 99.0841,69.5933 104,78.5C 106.436,81.4468 109.269,83.7801 112.5,85.5C 102.177,87.2507 94.6766,83.2507 90,73.5C 89.5017,70.1832 89.335,66.8499 89.5,63.5C 93.9324,56.2984 97.5991,48.6318 100.5,40.5 Z"/></g>
<g><path style="opacity:1" fill="#f9f5f9" d="M 117.5,84.5 C 117.5,85.1667 117.167,85.5 116.5,85.5C 103.976,78.0561 100.81,67.7228 107,54.5C 111.333,48.6705 115.833,43.0038 120.5,37.5C 120.5,37.1667 120.5,36.8333 120.5,36.5C 123.135,33.921 125.301,30.921 127,27.5C 130.84,33.6806 132.173,40.3473 131,47.5C 124.047,52.7749 119.047,59.4416 116,67.5C 115.052,73.3505 115.552,79.0172 117.5,84.5 Z"/></g>
<g><path style="opacity:1" fill="#541b73" d="M 147.5,56.5 C 147.821,58.0481 148.821,58.7148 150.5,58.5C 145.903,62.1417 140.903,65.3084 135.5,68C 133.959,69.3712 132.625,70.8712 131.5,72.5C 128.283,75.0615 126.283,78.3948 125.5,82.5C 124.596,83.209 124.263,84.209 124.5,85.5C 123.655,84.3285 122.989,82.9952 122.5,81.5C 123.72,75.0598 127.054,69.8932 132.5,66C 137.597,62.7961 142.597,59.6295 147.5,56.5 Z"/></g>
<g><path style="opacity:1" fill="#f9fbf4" d="M 95.5,54.5 C 98.1292,55.3335 99.4625,57.1668 99.5,60C 98.2596,64.3415 98.2596,68.6748 99.5,73C 98.7993,75.3804 97.6326,77.5471 96,79.5C 95.3763,77.246 94.043,75.5794 92,74.5C 91.2483,71.1064 91.4149,67.773 92.5,64.5C 93.325,63.6143 94.325,63.281 95.5,63.5C 94.4589,60.4578 94.4589,57.4578 95.5,54.5 Z"/></g>
<g><path style="opacity:1" fill="#571575" d="M 135.5,47.5 C 132.501,51.3316 129.001,54.6649 125,57.5C 118.44,65.3238 116.94,73.9904 120.5,83.5C 119.609,84.1098 118.609,84.4431 117.5,84.5C 115.552,79.0172 115.052,73.3505 116,67.5C 119.047,59.4416 124.047,52.7749 131,47.5C 132.173,40.3473 130.84,33.6806 127,27.5C 125.301,30.921 123.135,33.921 120.5,36.5C 121.122,32.0867 123.289,28.7534 127,26.5C 129.429,27.2616 131.262,28.7616 132.5,31C 133.448,31.4828 134.448,31.6495 135.5,31.5C 134.543,35.0938 133.876,38.7604 133.5,42.5C 133.556,44.6397 134.223,46.3064 135.5,47.5 Z"/></g>
<g><path style="opacity:1" fill="#470e63" d="M 100.5,40.5 C 97.5991,48.6318 93.9324,56.2984 89.5,63.5C 89.3398,61.8008 89.5065,60.1341 90,58.5C 93.7887,52.578 97.2887,46.578 100.5,40.5 Z"/></g>
<g><path style="opacity:1" fill="#f8f4f8" d="M 147.5,56.5 C 142.597,59.6295 137.597,62.7961 132.5,66C 127.054,69.8932 123.72,75.0598 122.5,81.5C 121.833,82.1667 121.167,82.8333 120.5,83.5C 116.94,73.9904 118.44,65.3238 125,57.5C 129.001,54.6649 132.501,51.3316 135.5,47.5C 138.521,44.6336 141.021,41.3003 143,37.5C 146.845,43.2365 148.345,49.5698 147.5,56.5 Z"/></g>
<g><path style="opacity:1" fill="#561376" d="M 153.5,71.5 C 155.328,67.0148 156.328,62.3482 156.5,57.5C 157.629,55.3718 157.796,53.0385 157,50.5C 155.961,51.2438 155.461,52.2438 155.5,53.5C 154.194,55.4727 152.527,57.1394 150.5,58.5C 149.846,54.3174 151.512,51.484 155.5,50C 160.148,48.6901 161.148,49.6901 158.5,53C 158.833,54 159.167,55 159.5,56C 158.014,60.3678 157.181,64.8678 157,69.5C 155.887,70.305 154.721,70.9717 153.5,71.5 Z"/></g>
<g><path style="opacity:1" fill="#ebb8f0" d="M 156.5,57.5 C 156.768,55.901 156.434,54.5676 155.5,53.5C 155.461,52.2438 155.961,51.2438 157,50.5C 157.796,53.0385 157.629,55.3718 156.5,57.5 Z"/></g>
<g><path style="opacity:1" fill="#4f1472" d="M 120.5,37.5 C 115.833,43.0038 111.333,48.6705 107,54.5C 100.81,67.7228 103.976,78.0561 116.5,85.5C 115.295,86.6857 113.961,86.6857 112.5,85.5C 109.269,83.7801 106.436,81.4468 104,78.5C 99.0841,69.5933 99.4174,60.9266 105,52.5C 105.494,50.8659 105.66,49.1992 105.5,47.5C 106.29,48.6085 106.79,49.9419 107,51.5C 109.264,48.9243 110.43,45.9243 110.5,42.5C 114.297,41.6888 117.631,40.0221 120.5,37.5 Z"/></g>
<g><path style="opacity:1" fill="#f8f9f8" d="M 155.5,53.5 C 156.434,54.5676 156.768,55.901 156.5,57.5C 156.328,62.3482 155.328,67.0148 153.5,71.5C 151.86,74.8044 149.527,77.471 146.5,79.5C 144.801,79.3398 143.134,79.5065 141.5,80C 144.167,80.6667 144.167,81.3333 141.5,82C 137.167,83.1667 132.833,84.3333 128.5,85.5C 126.16,83.3755 126.16,81.0421 128.5,78.5C 130.923,77.2882 131.923,75.2882 131.5,72.5C 132.625,70.8712 133.959,69.3712 135.5,68C 140.903,65.3084 145.903,62.1417 150.5,58.5C 152.527,57.1394 154.194,55.4727 155.5,53.5 Z"/></g>
<g><path style="opacity:1" fill="#f9edfb" d="M 131.5,72.5 C 131.923,75.2882 130.923,77.2882 128.5,78.5C 126.16,81.0421 126.16,83.3755 128.5,85.5C 132.833,84.3333 137.167,83.1667 141.5,82C 144.167,81.3333 144.167,80.6667 141.5,80C 143.134,79.5065 144.801,79.3398 146.5,79.5C 145.5,80.8333 144.5,82.1667 143.5,83.5C 139.015,85.3279 134.348,86.3279 129.5,86.5C 128.167,86.5 126.833,86.5 125.5,86.5C 125.5,85.1667 125.5,83.8333 125.5,82.5C 126.283,78.3948 128.283,75.0615 131.5,72.5 Z"/></g>
<g><path style="opacity:1" fill="#c490d3" d="M 125.5,82.5 C 125.5,83.8333 125.5,85.1667 125.5,86.5C 126.833,86.5 128.167,86.5 129.5,86.5C 128.903,87.1386 128.07,87.472 127,87.5C 125.624,87.3158 124.791,86.6491 124.5,85.5C 124.263,84.209 124.596,83.209 125.5,82.5 Z"/></g>
<g><path style="opacity:1" fill="#5b1581" d="M 89.5,63.5 C 89.335,66.8499 89.5017,70.1832 90,73.5C 94.6766,83.2507 102.177,87.2507 112.5,85.5C 113.961,86.6857 115.295,86.6857 116.5,85.5C 117.167,85.5 117.5,85.1667 117.5,84.5C 118.609,84.4431 119.609,84.1098 120.5,83.5C 121.167,82.8333 121.833,82.1667 122.5,81.5C 122.989,82.9952 123.655,84.3285 124.5,85.5C 124.791,86.6491 125.624,87.3158 127,87.5C 128.07,87.472 128.903,87.1386 129.5,86.5C 134.348,86.3279 139.015,85.3279 143.5,83.5C 142.412,84.9998 141.079,86.3331 139.5,87.5C 137.234,88.3142 134.9,88.8142 132.5,89C 133.167,91.3333 133.833,93.6667 134.5,96C 132.842,97.8302 130.842,99.1636 128.5,100C 135.119,102.617 134.786,104.117 127.5,104.5C 127.768,102.901 127.434,101.568 126.5,100.5C 121.968,100.182 117.634,100.515 113.5,101.5C 113.998,106.152 114.331,110.819 114.5,115.5C 115.43,122.805 116.097,130.138 116.5,137.5C 115.195,135.603 114.529,133.269 114.5,130.5C 113.217,120.188 112.217,109.855 111.5,99.5C 109.738,99.6427 108.071,99.3094 106.5,98.5C 106.167,95.1667 105.833,91.8333 105.5,88.5C 103.902,89.4847 102.235,89.6514 100.5,89C 98.8656,84.7452 96.3656,83.5786 93,85.5C 92.5348,84.0692 91.7014,82.9025 90.5,82C 90.8333,81 91.1667,80 91.5,79C 88.0866,76.801 86.7533,73.6343 87.5,69.5C 87.5391,67.0478 88.2057,65.0478 89.5,63.5 Z"/></g>
<g><path style="opacity:1" fill="#5e048a" d="M 41.5,4.5 C 93.3774,4.35289 145.377,4.51956 197.5,5C 196.774,6.39742 195.607,7.23076 194,7.5C 169.185,6.84494 144.352,6.51161 119.5,6.5C 93.7612,6.54662 68.0946,7.21329 42.5,8.5C 42.5,10.1667 42.5,11.8333 42.5,13.5C 41.838,62.5114 42.5047,111.178 44.5,159.5C 43.7659,160.708 43.4326,162.041 43.5,163.5C 43.1667,163.5 42.8333,163.5 42.5,163.5C 41.5011,110.669 41.1677,57.6693 41.5,4.5 Z"/></g>
<g><path style="opacity:1" fill="#fcf6fc" d="M 108.5,90.5 C 116.167,90.5 123.833,90.5 131.5,90.5C 131.5,92.5 131.5,94.5 131.5,96.5C 123.833,96.5 116.167,96.5 108.5,96.5C 108.5,94.5 108.5,92.5 108.5,90.5 Z"/></g>
<g><path style="opacity:1" fill="#d3ade0" d="M 108.5,90.5 C 108.5,92.5 108.5,94.5 108.5,96.5C 116.167,96.5 123.833,96.5 131.5,96.5C 123.684,97.4924 115.684,97.8257 107.5,97.5C 107.198,94.9407 107.532,92.6074 108.5,90.5 Z"/></g>
<g><path style="opacity:1" fill="#fbfaf9" d="M 113.5,101.5 C 117.167,101.5 120.833,101.5 124.5,101.5C 123.44,115.654 121.774,129.654 119.5,143.5C 118.937,133.807 117.27,124.474 114.5,115.5C 114.331,110.819 113.998,106.152 113.5,101.5 Z"/></g>
<g><path style="opacity:1" fill="#f4e3f9" d="M 113.5,101.5 C 117.634,100.515 121.968,100.182 126.5,100.5C 124.393,115.778 122.727,131.111 121.5,146.5C 120.167,146.5 118.833,146.5 117.5,146.5C 117.784,144.585 117.451,142.919 116.5,141.5C 116.5,140.167 116.5,138.833 116.5,137.5C 116.097,130.138 115.43,122.805 114.5,115.5C 117.27,124.474 118.937,133.807 119.5,143.5C 121.774,129.654 123.44,115.654 124.5,101.5C 120.833,101.5 117.167,101.5 113.5,101.5 Z"/></g>
<g><path style="opacity:1" fill="#581e78" d="M 126.5,100.5 C 127.434,101.568 127.768,102.901 127.5,104.5C 125.722,118.838 123.888,133.172 122,147.5C 120.333,148.833 118.667,148.833 117,147.5C 116.505,145.527 116.338,143.527 116.5,141.5C 117.451,142.919 117.784,144.585 117.5,146.5C 118.833,146.5 120.167,146.5 121.5,146.5C 122.727,131.111 124.393,115.778 126.5,100.5 Z"/></g>
<g><path style="opacity:1" fill="#bc90d2" d="M 40.5,1.5 C 39.8375,56.1769 40.5042,110.51 42.5,164.5C 97.1667,164.5 151.833,164.5 206.5,164.5C 151.002,165.499 95.3358,165.832 39.5,165.5C 39.1677,110.664 39.501,55.9975 40.5,1.5 Z"/></g>
<g><path style="opacity:1" fill="#f8fef2" d="M 47.5,166.5 C 96.251,166.01 144.918,166.51 193.5,168C 143.459,168.352 93.4591,168.685 43.5,169C 44.8584,168.066 46.1917,167.232 47.5,166.5 Z"/></g>
<g><path style="opacity:1" fill="#dec3e4" d="M 111.5,181.5 C 106.786,181.173 102.12,181.507 97.5,182.5C 98.1272,183.417 98.4606,184.417 98.5,185.5C 95.266,184.994 94.5993,183.328 96.5,180.5C 101.695,180.179 106.695,180.513 111.5,181.5 Z"/></g>
<g><path style="opacity:1" fill="#d6b9e5" d="M 138.5,181.5 C 143.015,180.188 147.682,180.188 152.5,181.5C 152.376,182.107 152.043,182.44 151.5,182.5C 147.366,181.515 143.032,181.182 138.5,181.5 Z"/></g>
<g><path style="opacity:1" fill="#4c1669" d="M 138.5,181.5 C 143.032,181.182 147.366,181.515 151.5,182.5C 149.066,186.382 146.399,190.048 143.5,193.5C 143.249,191.83 142.582,190.33 141.5,189C 142,188.5 142.5,188 143,187.5C 143.423,188.956 144.256,189.456 145.5,189C 147.219,187.13 148.219,184.963 148.5,182.5C 144.766,182.323 141.099,182.656 137.5,183.5C 137.328,182.508 137.662,181.842 138.5,181.5 Z"/></g>
<g><path style="opacity:1" fill="#b689c9" d="M 78.5,181.5 C 78.5,192.5 78.5,203.5 78.5,214.5C 77.8333,214.5 77.1667,214.5 76.5,214.5C 76.5,214.167 76.5,213.833 76.5,213.5C 77.1667,202.833 77.8333,192.167 78.5,181.5 Z"/></g>
<g><path style="opacity:1" fill="#4c1566" d="M 111.5,183.5 C 113.664,185.822 115.331,188.489 116.5,191.5C 113.231,189.886 111.564,187.219 111.5,183.5 Z"/></g>
<g><path style="opacity:1" fill="#f3cff7" d="M 194.5,181.5 C 198.634,180.515 202.968,180.182 207.5,180.5C 207.828,192.678 207.495,204.678 206.5,216.5C 206.828,204.655 206.495,192.988 205.5,181.5C 201.833,181.5 198.167,181.5 194.5,181.5 Z"/></g>
<g><path style="opacity:1" fill="#561c6d" d="M 111.5,181.5 C 111.5,181.833 111.5,182.167 111.5,182.5C 107.833,182.5 104.167,182.5 100.5,182.5C 103.479,188.458 106.479,194.458 109.5,200.5C 106.078,195.322 102.411,190.322 98.5,185.5C 98.4606,184.417 98.1272,183.417 97.5,182.5C 102.12,181.507 106.786,181.173 111.5,181.5 Z"/></g>
<g><path style="opacity:1" fill="#48026b" d="M 194.5,181.5 C 198.167,181.5 201.833,181.5 205.5,181.5C 205.828,193.345 205.495,205.012 204.5,216.5C 204.5,205.167 204.5,193.833 204.5,182.5C 201.5,182.5 198.5,182.5 195.5,182.5C 195.828,194.012 195.495,205.346 194.5,216.5C 194.5,204.833 194.5,193.167 194.5,181.5 Z"/></g>
<g><path style="opacity:1" fill="#620291" d="M 76.5,232.5 C 76.1667,231.833 75.8333,231.167 75.5,230.5C 75.23,227.236 73.8967,224.236 71.5,221.5C 71.5112,218.155 73.1779,216.489 76.5,216.5C 75.8803,220.302 76.7137,223.635 79,226.5C 78.9931,222.623 79.1597,218.623 79.5,214.5C 79.5,203.833 79.5,193.167 79.5,182.5C 82.4475,182.223 85.2809,182.556 88,183.5C 88.6667,199.833 88.6667,216.167 88,232.5C 86.7009,233.98 85.0342,234.646 83,234.5C 80.5582,234.518 78.3915,233.851 76.5,232.5 Z"/></g>
<g><path style="opacity:1" fill="#640392" d="M 143.5,193.5 C 143.672,194.492 143.338,195.158 142.5,195.5C 142.19,194.262 141.69,194.262 141,195.5C 139.477,198.555 137.477,201.222 135,203.5C 132.057,201.663 130.891,198.997 131.5,195.5C 134.216,193.816 137.216,192.65 140.5,192C 138.866,191.506 137.199,191.34 135.5,191.5C 136.639,188.996 137.306,186.33 137.5,183.5C 141.099,182.656 144.766,182.323 148.5,182.5C 148.219,184.963 147.219,187.13 145.5,189C 144.256,189.456 143.423,188.956 143,187.5C 142.5,188 142,188.5 141.5,189C 142.582,190.33 143.249,191.83 143.5,193.5 Z"/></g>
<g><path style="opacity:1" fill="#5b0c7e" d="M 137.5,183.5 C 137.306,186.33 136.639,188.996 135.5,191.5C 137.199,191.34 138.866,191.506 140.5,192C 137.216,192.65 134.216,193.816 131.5,195.5C 130.891,198.997 132.057,201.663 135,203.5C 137.477,201.222 139.477,198.555 141,195.5C 141.69,194.262 142.19,194.262 142.5,195.5C 140.316,199.881 137.65,203.881 134.5,207.5C 133.833,207.5 133.167,207.5 132.5,207.5C 130.851,205.825 129.518,203.825 128.5,201.5C 127.614,202.325 127.281,203.325 127.5,204.5C 125.058,204.354 124.391,205.187 125.5,207C 124.056,207.781 122.723,207.614 121.5,206.5C 121.833,205.833 122.167,205.167 122.5,204.5C 120.102,200.287 118.102,195.954 116.5,191.5C 118.913,195.314 121.579,198.981 124.5,202.5C 128.609,195.927 132.942,189.594 137.5,183.5 Z"/></g>
<g><path style="opacity:1" fill="#511b70" d="M 63.5,197.5 C 68.3017,202.427 72.635,207.76 76.5,213.5C 76.5,213.833 76.5,214.167 76.5,214.5C 73.9387,212.36 71.6054,210.027 69.5,207.5C 67.1023,204.429 65.1023,201.095 63.5,197.5 Z"/></g>
<g><path style="opacity:1" fill="#62028e" d="M 111.5,182.5 C 111.5,182.833 111.5,183.167 111.5,183.5C 111.564,187.219 113.231,189.886 116.5,191.5C 118.102,195.954 120.102,200.287 122.5,204.5C 122.167,205.167 121.833,205.833 121.5,206.5C 122.723,207.614 124.056,207.781 125.5,207C 124.391,205.187 125.058,204.354 127.5,204.5C 127.281,203.325 127.614,202.325 128.5,201.5C 129.518,203.825 130.851,205.825 132.5,207.5C 132.205,209.423 131.372,211.09 130,212.5C 129.816,220.079 129.316,227.579 128.5,235C 125.571,235.777 122.737,235.61 120,234.5C 119.667,227.5 119.333,220.5 119,213.5C 118.583,212.244 117.75,211.577 116.5,211.5C 113.779,208.106 111.446,204.439 109.5,200.5C 106.479,194.458 103.479,188.458 100.5,182.5C 104.167,182.5 107.833,182.5 111.5,182.5 Z"/></g>
<g><path style="opacity:1" fill="#4f106d" d="M 177.5,226.5 C 173.862,226.262 171.029,224.596 169,221.5C 168.5,208.504 168.333,195.504 168.5,182.5C 165.167,182.5 161.833,182.5 158.5,182.5C 158.333,193.838 158.5,205.172 159,216.5C 162.264,232.571 172.097,238.738 188.5,235C 195.172,234.317 199.339,230.817 201,224.5C 202.011,223.663 203.178,223.33 204.5,223.5C 200.17,233.597 192.337,238.264 181,237.5C 168.337,237.833 160.671,231.833 158,219.5C 157.5,206.838 157.333,194.171 157.5,181.5C 161.5,181.5 165.5,181.5 169.5,181.5C 169.333,193.838 169.5,206.171 170,218.5C 171.044,219.623 171.71,220.956 172,222.5C 174.015,223.697 175.849,225.03 177.5,226.5 Z"/></g>
<g><path style="opacity:1" fill="#6b367e" d="M 205.5,181.5 C 206.495,192.988 206.828,204.655 206.5,216.5C 206.279,219.067 205.612,221.401 204.5,223.5C 204.5,221.167 204.5,218.833 204.5,216.5C 205.495,205.012 205.828,193.345 205.5,181.5 Z"/></g>
<g><path style="opacity:1" fill="#592279" d="M 78.5,181.5 C 82.5,181.5 86.5,181.5 90.5,181.5C 90.5,199.833 90.5,218.167 90.5,236.5C 86.8183,236.665 83.1516,236.499 79.5,236C 78.2899,234.961 77.2899,233.794 76.5,232.5C 78.3915,233.851 80.5582,234.518 83,234.5C 85.0342,234.646 86.7009,233.98 88,232.5C 88.6667,216.167 88.6667,199.833 88,183.5C 85.2809,182.556 82.4475,182.223 79.5,182.5C 79.5,193.167 79.5,203.833 79.5,214.5C 79.1667,214.5 78.8333,214.5 78.5,214.5C 78.5,203.5 78.5,192.5 78.5,181.5 Z"/></g>
<g><path style="opacity:1" fill="#5f0a84" d="M 69.5,207.5 C 71.6054,210.027 73.9387,212.36 76.5,214.5C 77.1667,214.5 77.8333,214.5 78.5,214.5C 78.8333,214.5 79.1667,214.5 79.5,214.5C 79.1597,218.623 78.9931,222.623 79,226.5C 76.7137,223.635 75.8803,220.302 76.5,216.5C 73.1779,216.489 71.5112,218.155 71.5,221.5C 73.8967,224.236 75.23,227.236 75.5,230.5C 67.816,221.478 60.4827,212.145 53.5,202.5C 53.1583,201.662 52.4916,201.328 51.5,201.5C 51.1667,201.5 50.8333,201.5 50.5,201.5C 51.3242,198.236 51.6576,194.902 51.5,191.5C 52.5,191.5 53.5,191.5 54.5,191.5C 54.3347,195.182 54.5014,198.848 55,202.5C 55.414,202.957 55.914,203.291 56.5,203.5C 57.1667,201.5 57.8333,199.5 58.5,197.5C 61.0918,200.314 61.0918,203.147 58.5,206C 59.798,208.899 61.6314,211.399 64,213.5C 64.49,212.207 64.6567,210.873 64.5,209.5C 66.3904,209.297 67.8904,209.963 69,211.5C 69.49,210.207 69.6567,208.873 69.5,207.5 Z"/></g>
<g><path style="opacity:1" fill="#460668" d="M 63.5,196.5 C 60.0576,193.359 56.3909,190.359 52.5,187.5C 52.277,186.033 51.9437,184.533 51.5,183C 48.1832,182.502 44.8499,182.335 41.5,182.5C 41.5,200.167 41.5,217.833 41.5,235.5C 44.5,235.5 47.5,235.5 50.5,235.5C 50.5,224.167 50.5,212.833 50.5,201.5C 50.8333,201.5 51.1667,201.5 51.5,201.5C 51.5,213.167 51.5,224.833 51.5,236.5C 47.8333,236.5 44.1667,236.5 40.5,236.5C 40.5,218.167 40.5,199.833 40.5,181.5C 44.5138,181.334 48.5138,181.501 52.5,182C 55.9989,186.994 59.6656,191.827 63.5,196.5 Z"/></g>
<g><path style="opacity:1" fill="#885b9f" d="M 51.5,201.5 C 52.4916,201.328 53.1583,201.662 53.5,202.5C 52.8333,213.833 52.1667,225.167 51.5,236.5C 51.5,224.833 51.5,213.167 51.5,201.5 Z"/></g>
<g><path style="opacity:1" fill="#450963" d="M 132.5,207.5 C 133.167,207.5 133.833,207.5 134.5,207.5C 133.609,209.609 132.442,211.609 131,213.5C 130.5,221.159 130.334,228.826 130.5,236.5C 126.5,236.5 122.5,236.5 118.5,236.5C 118.825,228.981 118.492,221.648 117.5,214.5C 116.89,213.609 116.557,212.609 116.5,211.5C 117.75,211.577 118.583,212.244 119,213.5C 119.333,220.5 119.667,227.5 120,234.5C 122.737,235.61 125.571,235.777 128.5,235C 129.316,227.579 129.816,220.079 130,212.5C 131.372,211.09 132.205,209.423 132.5,207.5 Z"/></g>
<g><path style="opacity:1" fill="#75438c" d="M 194.5,181.5 C 194.5,193.167 194.5,204.833 194.5,216.5C 194.018,224.141 189.851,227.808 182,227.5C 180.293,227.492 178.793,227.158 177.5,226.5C 184.387,227.714 189.553,225.381 193,219.5C 193.169,206.66 193.669,193.993 194.5,181.5 Z"/></g>
<g><path style="opacity:1" fill="#62028e" d="M 177.5,226.5 C 178.793,227.158 180.293,227.492 182,227.5C 189.851,227.808 194.018,224.141 194.5,216.5C 195.495,205.346 195.828,194.012 195.5,182.5C 198.5,182.5 201.5,182.5 204.5,182.5C 204.5,193.833 204.5,205.167 204.5,216.5C 204.5,218.833 204.5,221.167 204.5,223.5C 203.178,223.33 202.011,223.663 201,224.5C 199.339,230.817 195.172,234.317 188.5,235C 172.097,238.738 162.264,232.571 159,216.5C 158.5,205.172 158.333,193.838 158.5,182.5C 161.833,182.5 165.167,182.5 168.5,182.5C 168.333,195.504 168.5,208.504 169,221.5C 171.029,224.596 173.862,226.262 177.5,226.5 Z"/></g>
<g><path style="opacity:1" fill="#630290" d="M 63.5,196.5 C 63.5,196.833 63.5,197.167 63.5,197.5C 65.1023,201.095 67.1023,204.429 69.5,207.5C 69.6567,208.873 69.49,210.207 69,211.5C 67.8904,209.963 66.3904,209.297 64.5,209.5C 64.6567,210.873 64.49,212.207 64,213.5C 61.6314,211.399 59.798,208.899 58.5,206C 61.0918,203.147 61.0918,200.314 58.5,197.5C 57.8333,199.5 57.1667,201.5 56.5,203.5C 55.914,203.291 55.414,202.957 55,202.5C 54.5014,198.848 54.3347,195.182 54.5,191.5C 53.5,191.5 52.5,191.5 51.5,191.5C 51.6576,194.902 51.3242,198.236 50.5,201.5C 50.5,212.833 50.5,224.167 50.5,235.5C 47.5,235.5 44.5,235.5 41.5,235.5C 41.5,217.833 41.5,200.167 41.5,182.5C 44.8499,182.335 48.1832,182.502 51.5,183C 51.9437,184.533 52.277,186.033 52.5,187.5C 56.3909,190.359 60.0576,193.359 63.5,196.5 Z"/></g>
<g><path style="opacity:1" fill="#e3c9ec" d="M 117.5,214.5 C 118.492,221.648 118.825,228.981 118.5,236.5C 122.5,236.5 126.5,236.5 130.5,236.5C 127.203,236.89 124.203,237.89 121.5,239.5C 120.5,239.5 119.5,239.5 118.5,239.5C 117.531,231.252 117.198,222.918 117.5,214.5 Z"/></g>
</svg>
