<?xml version="1.0" encoding="UTF-8"?>
<!DOCTYPE svg PUBLIC "-//W3C//DTD SVG 1.1//EN" "http://www.w3.org/Graphics/SVG/1.1/DTD/svg11.dtd">
<svg xmlns="http://www.w3.org/2000/svg" version="1.1" width="799px" height="799px" style="shape-rendering:geometricPrecision; text-rendering:geometricPrecision; image-rendering:optimizeQuality; fill-rule:evenodd; clip-rule:evenodd" xmlns:xlink="http://www.w3.org/1999/xlink">
<g><path style="opacity:1" fill="#fefefe" d="M -0.5,-0.5 C 265.833,-0.5 532.167,-0.5 798.5,-0.5C 798.5,265.833 798.5,532.167 798.5,798.5C 669.833,798.5 541.167,798.5 412.5,798.5C 546.229,789.574 651.729,730.908 729,622.5C 785.969,535.011 806.969,439.344 792,335.5C 770.334,219.552 710.834,129.052 613.5,64C 518.829,5.40568 416.829,-12.261 307.5,11C 172.603,46.8899 78.4368,129.39 25,258.5C 10.5951,299.096 2.09512,340.763 -0.5,383.5C -0.5,255.5 -0.5,127.5 -0.5,-0.5 Z"/></g>
<g><path style="opacity:1" fill="#b11518" d="M 412.5,798.5 C 400.167,798.5 387.833,798.5 375.5,798.5C 244.767,787.096 141.934,728.096 67,621.5C 26.1804,558.874 3.68036,490.207 -0.5,415.5C -0.5,404.833 -0.5,394.167 -0.5,383.5C 2.09512,340.763 10.5951,299.096 25,258.5C 78.4368,129.39 172.603,46.8899 307.5,11C 416.829,-12.261 518.829,5.40568 613.5,64C 710.834,129.052 770.334,219.552 792,335.5C 806.969,439.344 785.969,535.011 729,622.5C 651.729,730.908 546.229,789.574 412.5,798.5 Z"/></g>
<g><path style="opacity:1" fill="#fdfcfc" d="M 775.5,340.5 C 775.366,347.138 776.366,353.471 778.5,359.5C 788.062,476.323 753.562,577.657 675,663.5C 587.257,751.097 481.09,789.93 356.5,780C 244.9,764.976 155.4,712.809 88,623.5C 50.9518,570.548 28.1185,511.881 19.5,447.5C 19.2296,442.972 18.5629,438.639 17.5,434.5C 9.01513,290.33 62.0151,174.83 176.5,88C 276.823,20.0008 385.823,1.33414 503.5,32C 626.008,70.843 710.842,150.01 758,269.5C 765.869,292.644 771.703,316.31 775.5,340.5 Z"/></g>
<g><path style="opacity:1" fill="#b1191b" d="M 624.5,115.5 C 626.932,116.75 629.266,118.25 631.5,120C 641.202,128.704 650.536,137.704 659.5,147C 656.337,150.995 653.004,154.828 649.5,158.5C 648.686,156.048 649.186,153.715 651,151.5C 650.83,142.842 646.83,136.509 639,132.5C 633.512,136.654 628.679,141.488 624.5,147C 630.135,152.818 635.968,152.985 642,147.5C 642.5,147.833 643,148.167 643.5,148.5C 637.989,154.843 632.323,161.009 626.5,167C 625.668,167.688 625.002,167.521 624.5,166.5C 629.063,160.115 628.396,154.449 622.5,149.5C 617.461,154.537 612.794,159.871 608.5,165.5C 614.953,175.9 623.953,179.233 635.5,175.5C 636.167,175.833 636.833,176.167 637.5,176.5C 634.09,180.238 630.09,183.238 625.5,185.5C 613.815,175.479 602.482,165.146 591.5,154.5C 592.576,153.344 593.576,153.511 594.5,155C 596.167,155.667 597.833,155.667 599.5,155C 610.01,144.837 619.344,133.837 627.5,122C 626.71,119.718 625.71,117.552 624.5,115.5 Z"/></g>
<g><path style="opacity:1" fill="#c65557" d="M 375.5,106.5 C 371.081,107.972 366.414,108.638 361.5,108.5C 365.919,107.028 370.586,106.362 375.5,106.5 Z"/></g>
<g><path style="opacity:1" fill="#b2181a" d="M 543.5,66.5 C 551.809,70.6537 559.809,75.3203 567.5,80.5C 567.167,80.8333 566.833,81.1667 566.5,81.5C 563.803,79.1649 561.303,79.1649 559,81.5C 557.498,91.8366 556.998,102.17 557.5,112.5C 565.423,106.621 573.257,100.621 581,94.5C 581.746,91.2106 580.58,88.7106 577.5,87C 578.5,86.3333 579.5,86.3333 580.5,87C 584.737,89.2765 588.737,91.7765 592.5,94.5C 588.538,94.9424 584.871,96.109 581.5,98C 569.309,107.691 556.976,117.191 544.5,126.5C 543.009,125.652 542.342,124.319 542.5,122.5C 543.915,106.843 545.249,91.1761 546.5,75.5C 546.317,72.1545 545.317,69.1545 543.5,66.5 Z"/></g>
<g><path style="opacity:1" fill="#b2191b" d="M 327.5,44.5 C 329.857,44.3367 332.19,44.5034 334.5,45C 331.229,45.9604 329.562,48.1271 329.5,51.5C 332.453,61.9849 334.787,72.6516 336.5,83.5C 336.444,91.0578 332.777,95.8911 325.5,98C 317.956,100.144 310.289,100.811 302.5,100C 296.559,97.9856 293.059,93.8189 292,87.5C 289.664,78.1544 287.33,68.821 285,59.5C 282.86,57.5131 280.36,56.1798 277.5,55.5C 286.432,53.2466 295.432,51.2466 304.5,49.5C 304.833,49.8333 305.167,50.1667 305.5,50.5C 303.887,51.4274 302.221,52.2607 300.5,53C 299.106,53.956 298.439,55.2894 298.5,57C 301.155,67.1387 303.655,77.3054 306,87.5C 308.635,94.9017 313.802,97.735 321.5,96C 328.56,94.7757 332.227,90.609 332.5,83.5C 331.06,73.0144 328.894,62.6811 326,52.5C 323.552,49.5265 320.386,48.0265 316.5,48C 320.333,46.9662 323.999,45.7995 327.5,44.5 Z"/></g>
<g><path style="opacity:1" fill="#b3191b" d="M 474.5,47.5 C 483.82,49.1637 493.153,50.8303 502.5,52.5C 499.631,53.0781 496.965,54.0781 494.5,55.5C 491.523,68.0766 488.857,80.7433 486.5,93.5C 486.111,97.8616 488.111,100.362 492.5,101C 489.167,101.667 485.833,101.667 482.5,101C 476.911,99.582 471.244,98.582 465.5,98C 465.043,97.586 464.709,97.086 464.5,96.5C 467.593,96.0019 470.426,95.0019 473,93.5C 476.117,79.9214 478.45,66.2547 480,52.5C 477.736,51.1495 475.902,49.4828 474.5,47.5 Z"/></g>
<g><path style="opacity:1" fill="#b01518" d="M 422.5,69.5 C 423.376,62.3224 424.209,54.989 425,47.5C 425.167,54.3333 425.333,61.1667 425.5,68C 425.497,75.2009 424.83,82.0342 423.5,88.5C 410.779,76.4459 398.446,64.1126 386.5,51.5C 386.44,50.9569 386.107,50.6236 385.5,50.5C 384.176,61.6596 384.176,72.6596 385.5,83.5C 387.204,86.5931 389.871,88.2598 393.5,88.5C 386.833,89.8333 380.167,89.8333 373.5,88.5C 376.36,87.8202 378.86,86.4869 381,84.5C 381.667,71.5 381.667,58.5 381,45.5C 378.591,43.3799 376.091,41.3799 373.5,39.5C 379.807,38.3361 386.141,38.1694 392.5,39C 402.422,49.4205 412.422,59.5872 422.5,69.5 Z"/></g>
<g><path style="opacity:1" fill="#c46163" d="M 386.5,51.5 C 385.506,61.9869 385.172,72.6536 385.5,83.5C 384.176,72.6596 384.176,61.6596 385.5,50.5C 386.107,50.6236 386.44,50.9569 386.5,51.5 Z"/></g>
<g><path style="opacity:1" fill="#b6212a" d="M 423.5,88.5 C 424.83,82.0342 425.497,75.2009 425.5,68C 425.333,61.1667 425.167,54.3333 425,47.5C 424.209,54.989 423.376,62.3224 422.5,69.5C 422.666,60.8269 422.5,52.1603 422,43.5C 419.958,41.2232 417.458,39.5565 414.5,38.5C 420.5,37.1667 426.5,37.1667 432.5,38.5C 430.195,39.231 428.362,40.5643 427,42.5C 426.5,58.1631 426.333,73.8298 426.5,89.5C 425.209,89.7373 424.209,89.404 423.5,88.5 Z"/></g>
<g><path style="opacity:1" fill="#b11719" d="M 181.5,101.5 C 186.754,105.083 191.42,109.416 195.5,114.5C 188.885,114.702 182.219,114.868 175.5,115C 167.145,118.722 164.645,124.889 168,133.5C 173.5,143 181,150.5 190.5,156C 198.188,159.159 204.688,157.659 210,151.5C 211.301,149.635 211.635,147.635 211,145.5C 208.167,142.667 205.333,139.833 202.5,137C 199.039,136.126 196.039,136.96 193.5,139.5C 193.167,139.167 192.833,138.833 192.5,138.5C 198.524,131.296 205.191,125.129 212.5,120C 210.718,122.243 210.218,124.743 211,127.5C 214.549,130.713 217.716,134.213 220.5,138C 215.548,150.618 206.881,159.618 194.5,165C 177.232,167.115 165.732,159.948 160,143.5C 157.788,132.761 160.621,123.595 168.5,116C 172.75,113.626 176.916,111.126 181,108.5C 181.497,106.19 181.663,103.857 181.5,101.5 Z"/></g>
<g><path style="opacity:1" fill="#b2191b" d="M 119.5,166.5 C 120.205,169.228 120.872,172.061 121.5,175C 134.384,184.268 147.051,193.768 159.5,203.5C 159.291,204.086 158.957,204.586 158.5,205C 140.472,206.002 122.472,207.335 104.5,209C 113.167,215.667 121.833,222.333 130.5,229C 134.389,230.14 137.722,229.307 140.5,226.5C 140.833,226.833 141.167,227.167 141.5,227.5C 138.078,232.678 134.411,237.678 130.5,242.5C 130.167,242 129.833,241.5 129.5,241C 132.158,238.02 132.158,235.02 129.5,232C 119.884,225.385 110.55,218.385 101.5,211C 97.1212,209.539 92.7879,209.039 88.5,209.5C 91.376,204.914 94.376,200.414 97.5,196C 111.542,195.277 125.542,194.277 139.5,193C 133.116,187.615 126.45,182.615 119.5,178C 116.258,177.014 113.592,177.848 111.5,180.5C 110.417,179.635 110.251,178.635 111,177.5C 113.842,173.803 116.675,170.137 119.5,166.5 Z"/></g>
<g><path style="opacity:1" fill="#b1171a" d="M 688.5,179.5 C 690.017,179.511 691.184,180.177 692,181.5C 696.423,188.011 701.089,194.345 706,200.5C 709.337,205.178 711.504,210.345 712.5,216C 708.948,229.418 701.281,232.585 689.5,225.5C 688.914,225.709 688.414,226.043 688,226.5C 684.675,236.14 681.508,245.807 678.5,255.5C 674.854,251.368 671.854,246.868 669.5,242C 672.337,232.655 675.67,223.489 679.5,214.5C 678.635,213.417 677.635,213.251 676.5,214C 671.578,217.378 666.745,220.878 662,224.5C 661.218,227.257 661.718,229.757 663.5,232C 663.167,232.167 662.833,232.333 662.5,232.5C 656.45,226.078 651.117,219.078 646.5,211.5C 646.833,211.167 647.167,210.833 647.5,210.5C 650.055,213.722 653.055,214.222 656.5,212C 667.936,203.864 679.103,195.364 690,186.5C 690.6,183.905 690.1,181.571 688.5,179.5 Z"/></g>
<g><path style="opacity:1" fill="#f9f6f5" d="M 697.5,198.5 C 704.211,200.601 706.045,204.935 703,211.5C 695.982,221.602 688.649,221.935 681,212.5C 680.333,211.833 680.333,211.167 681,210.5C 686.656,206.601 692.156,202.601 697.5,198.5 Z"/></g>
<g><path style="opacity:1" fill="#b21619" d="M 106.5,297.5 C 105.833,295.167 105.167,292.833 104.5,290.5C 92.0858,284.858 79.4191,279.692 66.5,275C 64.7412,274.202 63.0745,274.369 61.5,275.5C 60.5,276.833 59.5,278.167 58.5,279.5C 58.1667,279 57.8333,278.5 57.5,278C 60.4634,269.9 63.2967,261.734 66,253.5C 66.414,253.043 66.914,252.709 67.5,252.5C 67.8867,254.731 68.0534,257.064 68,259.5C 68.5,261.333 69.6667,262.5 71.5,263C 82.8432,267.34 94.1766,271.673 105.5,276C 107.5,276.667 109.5,276.667 111.5,276C 112.376,274.414 113.376,272.914 114.5,271.5C 114.833,271.833 115.167,272.167 115.5,272.5C 112.292,280.792 109.292,289.125 106.5,297.5 Z"/></g>
<g><path style="opacity:1" fill="#b1181a" d="M 375.5,106.5 C 463.036,101.644 538.703,128.811 602.5,188C 667.06,252.979 696.56,331.479 691,423.5C 680.508,523.71 632.674,600.21 547.5,653C 460.696,701.004 371.362,706.337 279.5,669C 179.375,620.856 121.542,541.689 106,431.5C 97.6895,332.398 129.523,248.898 201.5,181C 247.15,140.35 300.483,116.183 361.5,108.5C 366.414,108.638 371.081,107.972 375.5,106.5 Z"/></g>
<g><path style="opacity:1" fill="#e9b8b2" d="M 375.5,115.5 C 370.417,117.078 365.084,117.745 359.5,117.5C 364.616,116.194 369.949,115.527 375.5,115.5 Z"/></g>
<g><path style="opacity:1" fill="#fbf9f9" d="M 359.5,117.5 C 365.084,117.745 370.417,117.078 375.5,115.5C 475.125,110.243 556.959,145.576 621,221.5C 680.107,298.863 697.107,384.863 672,479.5C 643.552,568.612 586.052,630.778 499.5,666C 389.864,703.237 291.531,684.237 204.5,609C 134.564,540.543 105.064,457.376 116,359.5C 132.754,262.089 184.587,190.256 271.5,144C 299.345,130.218 328.678,121.385 359.5,117.5 Z"/></g>
<g><path style="opacity:1" fill="#b11116" d="M 377.5,132.5 C 489.327,129.148 574.16,174.814 632,269.5C 672.993,347.899 676.326,427.899 642,509.5C 603.701,589.544 541.534,640.044 455.5,661C 340.235,680.716 247.735,644.216 178,551.5C 126.411,471.444 117.411,386.777 151,297.5C 195.736,200.263 271.236,145.263 377.5,132.5 Z"/></g>
<g><path style="opacity:1" fill="#c5535a" d="M 337.5,197.5 C 338.144,209.216 337.478,220.549 335.5,231.5C 336.147,220.068 336.813,208.735 337.5,197.5 Z"/></g>
<g><path style="opacity:1" fill="#fdfcfc" d="M 431.5,180.5 C 444.347,179.039 453.514,184.039 459,195.5C 459.5,207.495 459.667,219.495 459.5,231.5C 511.414,244.789 557.747,268.622 598.5,303C 608.264,314.576 607.597,325.576 596.5,336C 589.644,340.068 582.644,340.401 575.5,337C 551.531,316.678 525.531,299.344 497.5,285C 485.336,280.001 473.003,275.501 460.5,271.5C 459.501,288.153 459.167,304.82 459.5,321.5C 483.358,329.594 505.358,341.094 525.5,356C 548.558,373.389 569.391,393.222 588,415.5C 596.333,426.5 604.667,437.5 613,448.5C 620.448,459.225 620.282,469.725 612.5,480C 602.796,487.493 593.296,487.326 584,479.5C 570.874,460.26 556.54,441.927 541,424.5C 514.893,396.372 484.393,374.539 449.5,359C 443.275,357.21 436.942,355.876 430.5,355C 424.172,352.518 420.006,348.018 418,341.5C 417.333,292.5 417.333,243.5 418,194.5C 420.661,188.006 425.161,183.339 431.5,180.5 Z"/></g>
<g><path style="opacity:1" fill="#fdfcfc" d="M 335.5,231.5 C 337.478,220.549 338.144,209.216 337.5,197.5C 340.272,187.02 347.105,181.353 358,180.5C 368.755,180.923 375.755,186.257 379,196.5C 379.667,244.5 379.667,292.5 379,340.5C 377.3,346.4 373.8,350.9 368.5,354C 361.907,355.726 355.24,357.059 348.5,358C 309.407,375.445 275.907,400.279 248,432.5C 234.785,448.714 221.951,465.214 209.5,482C 197.396,488.297 187.563,485.797 180,474.5C 176.482,467.005 176.816,459.672 181,452.5C 204.258,417.24 232.424,386.406 265.5,360C 285.262,345.113 306.596,332.78 329.5,323C 332.063,321.921 334.729,321.421 337.5,321.5C 337.833,304.82 337.499,288.153 336.5,271.5C 316.581,277.127 297.581,284.96 279.5,295C 258.224,309.277 237.224,323.944 216.5,339C 201.112,340.779 192.779,333.946 191.5,318.5C 191.988,310.833 195.321,304.666 201.5,300C 241.004,267.413 285.67,244.58 335.5,231.5 Z"/></g>
<g><path style="opacity:1" fill="#b11a1b" d="M 725.5,273.5 C 735.732,272.023 742.565,276.023 746,285.5C 746.366,291.175 746.2,296.841 745.5,302.5C 746.5,302.5 747.5,302.5 748.5,302.5C 748.5,303.5 748.5,304.5 748.5,305.5C 743.969,305.894 739.469,306.561 735,307.5C 734.167,307.167 733.333,306.833 732.5,306.5C 736.492,303.341 739.992,299.674 743,295.5C 745.976,285.546 742.476,281.046 732.5,282C 731.667,282.833 730.833,283.667 730,284.5C 727.673,291.157 725.34,297.823 723,304.5C 717.332,312.944 709.832,315.111 700.5,311C 696.855,307.547 694.355,303.38 693,298.5C 692.816,291.954 692.15,285.621 691,279.5C 696.653,277.068 702.486,276.401 708.5,277.5C 703.695,279.992 699.528,283.325 696,287.5C 693.699,293.362 694.533,298.695 698.5,303.5C 701.438,304.575 704.438,304.741 707.5,304C 709.259,302.992 710.426,301.492 711,299.5C 712.57,292.891 714.903,286.557 718,280.5C 719.742,277.254 722.242,274.921 725.5,273.5 Z"/></g>
<g><path style="opacity:1" fill="#cb7b7d" d="M 104.5,290.5 C 105.167,292.833 105.833,295.167 106.5,297.5C 106.44,298.043 106.107,298.376 105.5,298.5C 104.52,295.914 104.187,293.247 104.5,290.5 Z"/></g>
<g><path style="opacity:1" fill="#ecbfb9" d="M 775.5,340.5 C 777.136,346.603 778.136,352.936 778.5,359.5C 776.366,353.471 775.366,347.138 775.5,340.5 Z"/></g>
<g><path style="opacity:1" fill="#d08789" d="M 709.5,352.5 C 708.532,354.607 708.198,356.941 708.5,359.5C 707.2,356.976 707.2,354.309 708.5,351.5C 709.107,351.624 709.44,351.957 709.5,352.5 Z"/></g>
<g><path style="opacity:1" fill="#b31b1c" d="M 708.5,359.5 C 708.198,356.941 708.532,354.607 709.5,352.5C 710.074,354.788 711.074,356.955 712.5,359C 726.504,359.217 740.504,358.884 754.5,358C 756.229,356.211 756.896,354.044 756.5,351.5C 757.5,351.5 758.5,351.5 759.5,351.5C 760.004,360.865 760.004,370.199 759.5,379.5C 757.811,372.052 753.144,369.386 745.5,371.5C 734.835,372.03 724.168,372.53 713.5,373C 712.029,375.243 711.029,377.743 710.5,380.5C 709.426,373.536 708.759,366.536 708.5,359.5 Z"/></g>
<g><path style="opacity:1" fill="#cd7071" d="M 89.5,355.5 C 89.56,354.957 89.8933,354.624 90.5,354.5C 91.8032,357.645 91.8032,360.645 90.5,363.5C 90.8064,360.615 90.4731,357.948 89.5,355.5 Z"/></g>
<g><path style="opacity:1" fill="#b2181b" d="M 89.5,355.5 C 90.4731,357.948 90.8064,360.615 90.5,363.5C 90.5,369.5 90.5,375.5 90.5,381.5C 89.5,381.5 88.5,381.5 87.5,381.5C 88.1446,378.453 87.1446,376.287 84.5,375C 70.1847,373.626 55.8513,372.959 41.5,373C 40.4063,374.78 39.4063,376.614 38.5,378.5C 37.7078,369.494 38.0411,360.494 39.5,351.5C 39.9282,354.522 41.2615,357.022 43.5,359C 50.1671,359.779 56.8337,360.112 63.5,360C 57.5,353 51.5,346 45.5,339C 44.2161,338.316 43.0495,338.483 42,339.5C 41.6401,341.608 40.9734,343.608 40,345.5C 39.2675,337.755 39.7675,330.088 41.5,322.5C 44.7688,332.762 50.4355,341.429 58.5,348.5C 68.6394,341.527 78.6394,334.361 88.5,327C 90.0488,325.786 91.2155,324.286 92,322.5C 92.6667,329.833 92.6667,337.167 92,344.5C 90.5766,350.903 89.7433,350.569 89.5,343.5C 88.1266,343.343 86.7932,343.51 85.5,344C 80.1667,348 74.8333,352 69.5,356C 67.9632,357.11 67.2965,358.61 67.5,360.5C 72.8598,360.391 78.1931,360.724 83.5,361.5C 87.262,361.336 89.262,359.336 89.5,355.5 Z"/></g>
<g><path style="opacity:1" fill="#fdfcfc" d="M 391.5,364.5 C 404.884,362.881 414.051,368.214 419,380.5C 419.5,386.825 419.666,393.158 419.5,399.5C 424.232,399.378 428.898,399.878 433.5,401C 477.886,417.052 512.386,445.219 537,485.5C 541.667,493.5 546.333,501.5 551,509.5C 555.143,518.454 559.81,527.12 565,535.5C 572.817,554.868 566.651,566.868 546.5,571.5C 538.114,571.288 532.28,567.288 529,559.5C 516.975,531.099 501.642,504.766 483,480.5C 468.67,464.563 451.503,452.396 431.5,444C 427.553,442.516 423.553,441.35 419.5,440.5C 419.034,454.931 419.534,469.264 421,483.5C 422.529,484.729 423.696,486.229 424.5,488C 438.499,496.334 450.999,506.5 462,518.5C 474.763,539.116 485.43,560.783 494,583.5C 499.457,599.487 494.624,610.987 479.5,618C 475.5,618.667 471.5,618.667 467.5,618C 465.413,617.208 463.579,616.041 462,614.5C 455.813,598.945 449.813,583.278 444,567.5C 438.763,554.18 430.93,542.68 420.5,533C 413.676,528.279 406.176,525.113 398,523.5C 383.49,526.425 372.156,534.092 364,546.5C 358.538,555.091 353.871,564.091 350,573.5C 345.272,585.682 340.939,598.016 337,610.5C 333.979,616.011 329.312,618.678 323,618.5C 311.484,617.654 304.151,611.654 301,600.5C 300.333,596.5 300.333,592.5 301,588.5C 309.658,561.85 321.992,537.183 338,514.5C 347.642,505.187 358.142,497.02 369.5,490C 372.04,487.795 374.207,485.295 376,482.5C 376.667,468.5 376.667,454.5 376,440.5C 350.695,448.785 329.362,463.118 312,483.5C 293.697,507.751 278.697,534.084 267,562.5C 258.088,573.134 247.921,574.301 236.5,566C 230.015,559.878 227.515,552.378 229,543.5C 240.232,521.933 251.899,500.6 264,479.5C 288.607,442.568 321.773,416.402 363.5,401C 367.751,399.805 372.085,399.305 376.5,399.5C 376.109,392.079 376.609,384.746 378,377.5C 381.101,371.563 385.601,367.23 391.5,364.5 Z"/></g>
<g><path style="opacity:1" fill="#b11518" d="M 757.5,454.5 C 756.518,457.962 756.185,461.629 756.5,465.5C 751.5,465.5 746.5,465.5 741.5,465.5C 745.006,463.455 748.506,461.122 752,458.5C 754.164,455.553 754.998,452.219 754.5,448.5C 739.845,447.417 725.178,446.917 710.5,447C 709.244,447.417 708.577,448.25 708.5,449.5C 707.71,450.609 707.21,451.942 707,453.5C 706.502,450.183 706.335,446.85 706.5,443.5C 706.17,437.132 706.504,430.798 707.5,424.5C 708.041,427.734 709.374,430.567 711.5,433C 722.154,433.833 732.82,434.333 743.5,434.5C 747.298,435.483 751.298,435.817 755.5,435.5C 755.802,432.941 755.468,430.607 754.5,428.5C 754.256,425.737 752.923,423.571 750.5,422C 748.158,420.829 745.824,419.662 743.5,418.5C 748.456,417.506 753.456,417.173 758.5,417.5C 757.906,429.825 757.573,442.158 757.5,454.5 Z"/></g>
<g><path style="opacity:1" fill="#ecb0b0" d="M 754.5,428.5 C 755.468,430.607 755.802,432.941 755.5,435.5C 751.298,435.817 747.298,435.483 743.5,434.5C 747.167,434.5 750.833,434.5 754.5,434.5C 754.5,432.5 754.5,430.5 754.5,428.5 Z"/></g>
<g><path style="opacity:1" fill="#ca6767" d="M 17.5,434.5 C 18.5629,438.639 19.2296,442.972 19.5,447.5C 17.8227,443.455 17.1561,439.122 17.5,434.5 Z"/></g>
<g><path style="opacity:1" fill="#b11519" d="M 63.5,429.5 C 67.8461,429.334 72.1794,429.501 76.5,430C 75.5842,430.278 74.9175,430.778 74.5,431.5C 70.6049,432.393 67.9382,434.726 66.5,438.5C 65.5386,440.265 65.2053,442.265 65.5,444.5C 70.3633,444.819 75.03,444.486 79.5,443.5C 82.2469,443.813 84.9135,443.48 87.5,442.5C 90.8329,429.827 86.4996,420.827 74.5,415.5C 76,415.167 77.5,414.833 79,414.5C 82.8862,414.931 86.7196,415.597 90.5,416.5C 91.1956,432.18 91.1956,447.847 90.5,463.5C 89.6427,457.081 85.976,454.748 79.5,456.5C 67.8396,457.136 56.1729,457.636 44.5,458C 42.2615,459.978 40.9282,462.478 40.5,465.5C 39.5212,449.845 38.8545,434.178 38.5,418.5C 43.544,418.173 48.544,418.506 53.5,419.5C 42.3315,424.291 38.6648,432.625 42.5,444.5C 49.5,444.5 56.5,444.5 63.5,444.5C 63.5422,436.532 59.5422,431.865 51.5,430.5C 55.4454,429.509 59.4454,429.176 63.5,429.5 Z"/></g>
<g><path style="opacity:1" fill="#d17e82" d="M 66.5,438.5 C 66.5,440.167 66.5,441.833 66.5,443.5C 70.8333,443.5 75.1667,443.5 79.5,443.5C 75.03,444.486 70.3633,444.819 65.5,444.5C 65.2053,442.265 65.5386,440.265 66.5,438.5 Z"/></g>
<g><path style="opacity:1" fill="#d2797b" d="M 63.5,429.5 C 67.97,428.514 72.6367,428.181 77.5,428.5C 77.5,429.5 77.5,430.5 77.5,431.5C 76.5,431.5 75.5,431.5 74.5,431.5C 74.9175,430.778 75.5842,430.278 76.5,430C 72.1794,429.501 67.8461,429.334 63.5,429.5 Z"/></g>
<g><path style="opacity:1" fill="#da9191" d="M 706.5,443.5 C 706.335,446.85 706.502,450.183 707,453.5C 707.21,451.942 707.71,450.609 708.5,449.5C 708.5,451.167 708.5,452.833 708.5,454.5C 707.5,454.5 706.5,454.5 705.5,454.5C 705.185,450.629 705.518,446.962 706.5,443.5 Z"/></g>
<g><path style="opacity:1" fill="#fefefe" d="M -0.5,415.5 C 3.68036,490.207 26.1804,558.874 67,621.5C 141.934,728.096 244.767,787.096 375.5,798.5C 250.167,798.5 124.833,798.5 -0.5,798.5C -0.5,670.833 -0.5,543.167 -0.5,415.5 Z"/></g>
<g><path style="opacity:1" fill="#cf7577" d="M 757.5,454.5 C 757.5,458.5 757.5,462.5 757.5,466.5C 751.974,466.821 746.64,466.488 741.5,465.5C 746.5,465.5 751.5,465.5 756.5,465.5C 756.185,461.629 756.518,457.962 757.5,454.5 Z"/></g>
<g><path style="opacity:1" fill="#b1181a" d="M 693.5,498.5 C 694.004,501.453 695.004,504.286 696.5,507C 701.055,509.628 705.888,511.462 711,512.5C 720.844,511.054 730.677,509.554 740.5,508C 743.076,507.218 745.076,505.718 746.5,503.5C 746.833,504 747.167,504.5 747.5,505C 744.462,513.948 741.128,522.782 737.5,531.5C 736.472,529.56 736.472,527.56 737.5,525.5C 736.921,523.539 735.587,522.539 733.5,522.5C 726.197,523.996 718.863,525.33 711.5,526.5C 716.309,533.143 721.309,539.643 726.5,546C 727.549,546.492 728.549,546.326 729.5,545.5C 730.5,544.167 731.5,542.833 732.5,541.5C 732.833,542 733.167,542.5 733.5,543C 731.911,548.342 729.911,553.509 727.5,558.5C 726.692,556.577 726.192,554.577 726,552.5C 719.799,544.597 713.965,536.431 708.5,528C 702.933,524.921 697.1,522.421 691,520.5C 688.14,521.185 685.973,522.852 684.5,525.5C 686.034,516.232 689.034,507.232 693.5,498.5 Z"/></g>
<g><path style="opacity:1" fill="#b2171a" d="M 63.5,501.5 C 70.8538,500.783 77.0205,503.117 82,508.5C 84.2655,513.134 86.4322,517.801 88.5,522.5C 94.1667,520.333 99.8333,518.167 105.5,516C 106.971,513.757 107.971,511.257 108.5,508.5C 111.792,516.206 114.792,524.04 117.5,532C 117.167,532.5 116.833,533 116.5,533.5C 113.813,529.686 110.147,528.52 105.5,530C 96.1782,533.332 86.8449,536.665 77.5,540C 74.2458,541.027 71.2458,542.527 68.5,544.5C 67.7868,546.776 67.2868,549.109 67,551.5C 61.5555,539.903 57.7222,527.737 55.5,515C 55.464,512.37 55.964,509.87 57,507.5C 59.0627,505.266 61.2294,503.266 63.5,501.5 Z"/></g>
<g><path style="opacity:1" fill="#f9f5f5" d="M 73.5,513.5 C 80.4777,513.827 84.1444,517.494 84.5,524.5C 77.057,526.595 69.7236,528.762 62.5,531C 59.3252,525.885 59.9919,521.385 64.5,517.5C 67.4824,515.836 70.4824,514.503 73.5,513.5 Z"/></g>
<g><path style="opacity:1" fill="#b11619" d="M 255.5,684.5 C 263.316,683.508 271.316,683.174 279.5,683.5C 273.135,698.564 265.968,713.23 258,727.5C 256.573,732.583 258.407,735.917 263.5,737.5C 263,737.833 262.5,738.167 262,738.5C 252.784,734.476 243.95,729.81 235.5,724.5C 235.833,724.167 236.167,723.833 236.5,723.5C 240.106,726.032 243.606,726.032 247,723.5C 252.5,711.667 258,699.833 263.5,688C 261.604,685.412 258.937,684.245 255.5,684.5 Z"/></g>
<g><path style="opacity:1" fill="#b1181a" d="M 439.5,707.5 C 459.746,705.913 469.246,715.246 468,735.5C 464.592,749.908 455.759,759.074 441.5,763C 437.129,763.641 432.796,764.474 428.5,765.5C 427.833,765.167 427.167,764.833 426.5,764.5C 438.602,762.229 446.936,755.395 451.5,744C 451.167,743.5 450.833,743 450.5,742.5C 431.193,745.691 423.693,737.691 428,718.5C 430.412,713.252 434.246,709.586 439.5,707.5 Z"/></g>
<g><path style="opacity:1" fill="#f9f4f4" d="M 443.5,709.5 C 447.683,708.846 450.516,710.512 452,714.5C 453.734,722.795 453.901,731.128 452.5,739.5C 449.813,739.664 447.146,739.497 444.5,739C 443.299,738.097 442.465,736.931 442,735.5C 440.533,728.223 440.199,720.889 441,713.5C 441.662,712.016 442.496,710.683 443.5,709.5 Z"/></g>
<g><path style="opacity:1" fill="#b1171a" d="M 529.5,682.5 C 541.979,681.462 546.479,686.795 543,698.5C 541.5,700 540,701.5 538.5,703C 543.368,704.067 548.034,705.734 552.5,708C 560.813,716.862 560.147,725.195 550.5,733C 543.936,736.799 536.936,738.466 529.5,738C 519.266,730.884 518.933,723.217 528.5,715C 521.392,714.427 515.892,711.261 512,705.5C 511.146,701.375 511.48,697.375 513,693.5C 517.356,687.92 522.856,684.253 529.5,682.5 Z"/></g>
<g><path style="opacity:1" fill="#faf8f7" d="M 535.5,715.5 C 545.908,716.066 550.075,721.399 548,731.5C 543.667,735.5 539.333,735.5 535,731.5C 533.546,728.929 532.38,726.262 531.5,723.5C 531.5,720.833 531.5,718.167 531.5,715.5C 532.833,715.5 534.167,715.5 535.5,715.5 Z"/></g>
<g><path style="opacity:1" fill="#f8f2f1" d="M 525.5,686.5 C 532.327,687.427 535.994,691.427 536.5,698.5C 536.43,699.772 536.097,700.938 535.5,702C 529.622,703.653 524.788,702.153 521,697.5C 518.867,692.436 520.367,688.769 525.5,686.5 Z"/></g>
<g><path style="opacity:1" fill="#cb6e70" d="M 535.5,715.5 C 534.167,715.5 532.833,715.5 531.5,715.5C 531.5,718.167 531.5,720.833 531.5,723.5C 530.523,720.713 530.19,717.713 530.5,714.5C 532.415,714.216 534.081,714.549 535.5,715.5 Z"/></g>
<g><path style="opacity:1" fill="#b1191b" d="M 345.5,708.5 C 353.023,707.927 360.356,708.76 367.5,711C 371.518,714.943 372.351,719.443 370,724.5C 367.094,727.037 363.927,729.204 360.5,731C 365.721,733.888 369.555,738.055 372,743.5C 373.453,753.392 369.286,759.558 359.5,762C 351.769,763.397 344.436,762.397 337.5,759C 330.29,748.221 332.956,740.721 345.5,736.5C 337.105,732.283 333.938,725.616 336,716.5C 338.325,712.765 341.491,710.099 345.5,708.5 Z"/></g>
<g><path style="opacity:1" fill="#f8f4f2" d="M 349.5,710.5 C 356.992,709.058 360.658,712.058 360.5,719.5C 360.583,722.54 359.916,725.373 358.5,728C 356.711,728.52 355.044,728.187 353.5,727C 349.941,724.455 347.608,721.121 346.5,717C 346.84,714.489 347.84,712.322 349.5,710.5 Z"/></g>
<g><path style="opacity:1" fill="#f9f7f6" d="M 348.5,738.5 C 352.599,740.308 356.099,742.975 359,746.5C 359.667,749.833 359.667,753.167 359,756.5C 356.487,760.212 352.987,761.378 348.5,760C 343.249,752.737 343.249,745.57 348.5,738.5 Z"/></g>
</svg>
