<?xml version="1.0" encoding="UTF-8"?>
<!DOCTYPE svg PUBLIC "-//W3C//DTD SVG 1.1//EN" "http://www.w3.org/Graphics/SVG/1.1/DTD/svg11.dtd">
<svg xmlns="http://www.w3.org/2000/svg" version="1.1" width="440px" height="208px" style="shape-rendering:geometricPrecision; text-rendering:geometricPrecision; image-rendering:optimizeQuality; fill-rule:evenodd; clip-rule:evenodd" xmlns:xlink="http://www.w3.org/1999/xlink">
<g><path style="opacity:1" fill="#f4f7f9" d="M 306.5,10.5 C 314.833,10.5 323.167,10.5 331.5,10.5C 330.722,11.1556 330.056,11.9889 329.5,13C 330.167,15.3333 330.833,17.6667 331.5,20C 330.201,23.8469 330.201,27.6803 331.5,31.5C 325.369,54.9879 321.369,78.8212 319.5,103C 319.515,133.959 319.515,165.125 319.5,196.5C 316.833,196.5 314.167,196.5 311.5,196.5C 311.869,147.822 311.369,99.1548 310,50.5C 307.978,42.2273 306.145,33.8939 304.5,25.5C 305.652,20.5607 306.319,15.5607 306.5,10.5 Z"/></g>
<g><path style="opacity:1" fill="#b7bcbe" d="M 290.5,9.5 C 287.713,10.4767 284.713,10.81 281.5,10.5C 281.168,22.1857 281.501,33.8523 282.5,45.5C 294.849,59.02 301.683,75.02 303,93.5C 304.636,128.137 306.136,162.471 307.5,196.5C 307.833,196.5 308.167,196.5 308.5,196.5C 309.5,196.5 310.5,196.5 311.5,196.5C 314.167,196.5 316.833,196.5 319.5,196.5C 321.5,196.5 323.5,196.5 325.5,196.5C 327.833,196.5 330.167,196.5 332.5,196.5C 334.833,196.5 337.167,196.5 339.5,196.5C 341.857,196.663 344.19,196.497 346.5,196C 345.339,171.906 345.173,147.739 346,123.5C 347.022,113.392 348.688,103.392 351,93.5C 355.221,77.388 359.054,61.2213 362.5,45C 363.474,35.031 363.474,24.8643 362.5,14.5C 363.5,15.1667 364.5,15.8333 365.5,16.5C 365.079,26.4699 364.913,36.4699 365,46.5C 359.525,70.0683 354.525,93.735 350,117.5C 349.5,143.831 349.333,170.165 349.5,196.5C 348.833,196.5 348.5,196.833 348.5,197.5C 333.167,197.5 317.833,197.5 302.5,197.5C 302.5,197.167 302.5,196.833 302.5,196.5C 302.667,171.164 302.5,145.831 302,120.5C 300.435,109.75 298.435,99.0832 296,88.5C 293.859,80.2058 289.692,73.2058 283.5,67.5C 282.817,67.8627 282.15,68.1961 281.5,68.5C 281.817,64.2984 281.483,60.2984 280.5,56.5C 280.5,40.8333 280.5,25.1667 280.5,9.5C 283.833,9.5 287.167,9.5 290.5,9.5 Z"/></g>
<g><path style="opacity:1" fill="#c9cdcf" d="M 290.5,9.5 C 309.674,9.16971 328.674,9.50304 347.5,10.5C 345.5,10.5 343.5,10.5 341.5,10.5C 338.167,10.5 334.833,10.5 331.5,10.5C 323.167,10.5 314.833,10.5 306.5,10.5C 303.833,10.5 301.167,10.5 298.5,10.5C 296.143,10.3367 293.81,10.5034 291.5,11C 291.957,11.414 292.291,11.914 292.5,12.5C 288.848,20.7705 288.681,29.1039 292,37.5C 297.69,49.6852 301.69,62.3519 304,75.5C 307.27,115.744 308.437,156.077 307.5,196.5C 306.136,162.471 304.636,128.137 303,93.5C 301.683,75.02 294.849,59.02 282.5,45.5C 281.501,33.8523 281.168,22.1857 281.5,10.5C 284.713,10.81 287.713,10.4767 290.5,9.5 Z"/></g>
<g><path style="opacity:1" fill="#9fa4a6" d="M 372.5,21.5 C 374.89,22.8908 376.557,24.8908 377.5,27.5C 379.23,33.3428 379.397,39.3428 378,45.5C 375.292,62.3651 372.125,78.8651 368.5,95C 369.91,95.3678 370.91,96.2011 371.5,97.5C 369.629,103.353 368.463,109.353 368,115.5C 367.172,142.405 367.339,169.239 368.5,196C 364.848,196.499 361.182,196.665 357.5,196.5C 356.343,170.239 356.177,143.905 357,117.5C 361.447,95.5485 366.28,73.7151 371.5,52C 371.167,51.6667 370.833,51.3333 370.5,51C 372.704,41.2582 373.371,31.4249 372.5,21.5 Z"/></g>
<g><path style="opacity:0.652" fill="#202020" d="M 131.5,45.5 C 136.511,45.3341 141.511,45.5007 146.5,46C 153.251,49.5896 154.751,54.7563 151,61.5C 150.097,62.7014 148.931,63.5348 147.5,64C 149.961,68.4215 152.294,72.9215 154.5,77.5C 152.926,78.6309 151.259,78.7975 149.5,78C 146.787,74.0758 144.453,69.9091 142.5,65.5C 140.257,64.5258 137.924,64.1924 135.5,64.5C 135.666,68.8461 135.499,73.1794 135,77.5C 133.644,78.3802 132.144,78.7135 130.5,78.5C 130.19,67.4187 130.523,56.4187 131.5,45.5 Z M 135.5,50.5 C 139.182,50.3347 142.848,50.5014 146.5,51C 147.833,53.6667 147.833,56.3333 146.5,59C 142.94,60.2367 139.273,60.7367 135.5,60.5C 135.5,57.1667 135.5,53.8333 135.5,50.5 Z"/></g>
<g><path style="opacity:0.605" fill="#212121" d="M 178.5,45.5 C 180.167,45.5 181.833,45.5 183.5,45.5C 183.667,56.1719 183.5,66.8385 183,77.5C 181.644,78.3802 180.144,78.7135 178.5,78.5C 178.5,67.5 178.5,56.5 178.5,45.5 Z"/></g>
<g><path style="opacity:0.635" fill="#212121" d="M 244.5,45.5 C 246.167,45.5 247.833,45.5 249.5,45.5C 249.666,55.5056 249.5,65.5056 249,75.5C 242.485,79.7488 236.485,79.0821 231,73.5C 229.466,69.2891 229.133,64.9558 230,60.5C 233.399,54.7 238.066,53.3667 244,56.5C 244.499,52.8484 244.665,49.1817 244.5,45.5 Z M 236.5,59.5 C 239.157,59.162 241.49,59.8287 243.5,61.5C 244.491,65.4454 244.824,69.4454 244.5,73.5C 235.672,74.1607 232.505,70.1607 235,61.5C 235.717,60.9558 236.217,60.2891 236.5,59.5 Z"/></g>
<g><path style="opacity:0.628" fill="#212121" d="M 162.5,54.5 C 174.238,54.9283 178.404,60.9283 175,72.5C 170.353,78.9312 164.52,80.0979 157.5,76C 154.145,70.8006 153.645,65.3006 156,59.5C 157.805,57.1743 159.972,55.5077 162.5,54.5 Z M 162.5,59.5 C 165.365,59.0548 167.865,59.7215 170,61.5C 170.667,64.8333 170.667,68.1667 170,71.5C 165.732,75.4095 162.399,74.7429 160,69.5C 159.024,65.673 159.857,62.3396 162.5,59.5 Z"/></g>
<g><path style="opacity:0.631" fill="#212121" d="M 191.5,54.5 C 196.447,53.6276 200.613,54.9609 204,58.5C 204.667,64.1667 204.667,69.8333 204,75.5C 197.76,79.6091 191.76,79.2758 186,74.5C 185.151,65.1955 189.318,61.8621 198.5,64.5C 200.324,60.842 199.157,59.1754 195,59.5C 192.378,59.9253 189.878,60.4253 187.5,61C 186.253,59.5064 186.253,58.0064 187.5,56.5C 189.026,56.0057 190.359,55.339 191.5,54.5 Z M 191.5,68.5 C 193.857,68.3367 196.19,68.5034 198.5,69C 199.38,70.3561 199.714,71.8561 199.5,73.5C 196.813,73.6641 194.146,73.4974 191.5,73C 190.272,71.5098 190.272,70.0098 191.5,68.5 Z"/></g>
<g><path style="opacity:0.624" fill="#212121" d="M 213.5,54.5 C 218.515,54.2564 222.682,55.9231 226,59.5C 226.5,65.8246 226.666,72.1579 226.5,78.5C 224.856,78.7135 223.356,78.3802 222,77.5C 221.667,72.1667 221.333,66.8333 221,61.5C 218.582,59.3199 215.916,58.9865 213,60.5C 212.501,66.4908 212.334,72.4908 212.5,78.5C 210.856,78.7135 209.356,78.3802 208,77.5C 207.333,71.1667 207.333,64.8333 208,58.5C 208.374,57.5838 208.874,56.7504 209.5,56C 211.058,55.79 212.391,55.29 213.5,54.5 Z"/></g>
<g><path style="opacity:1" fill="#e5e8eb" d="M 331.5,10.5 C 334.833,10.5 338.167,10.5 341.5,10.5C 342.05,32.2782 338.883,53.6115 332,74.5C 329.793,84.7393 328.127,95.0726 327,105.5C 325.602,135.811 325.102,166.145 325.5,196.5C 323.5,196.5 321.5,196.5 319.5,196.5C 319.515,165.125 319.515,133.959 319.5,103C 321.369,78.8212 325.369,54.9879 331.5,31.5C 330.201,27.6803 330.201,23.8469 331.5,20C 330.833,17.6667 330.167,15.3333 329.5,13C 330.056,11.9889 330.722,11.1556 331.5,10.5 Z"/></g>
<g><path style="opacity:1" fill="#abb1b4" d="M 302.5,196.5 C 301.5,196.5 300.5,196.5 299.5,196.5C 299.942,167.134 299.442,137.801 298,108.5C 296.486,95.8125 291.486,84.8125 283,75.5C 282.722,76.4158 282.222,77.0825 281.5,77.5C 281.5,74.5 281.5,71.5 281.5,68.5C 282.15,68.1961 282.817,67.8627 283.5,67.5C 289.692,73.2058 293.859,80.2058 296,88.5C 298.435,99.0832 300.435,109.75 302,120.5C 302.5,145.831 302.667,171.164 302.5,196.5 Z"/></g>
<g><path style="opacity:0.798" fill="#202020" d="M 22.5,75.5 C 31.8393,75.3335 41.1726,75.5002 50.5,76C 55.5732,77.4056 59.0732,80.5723 61,85.5C 63.045,93.4972 61.2117,100.331 55.5,106C 61.1872,109.533 64.1872,114.7 64.5,121.5C 63.7481,130.52 59.0815,136.354 50.5,139C 41.1667,139.667 31.8333,139.667 22.5,139C 21.5,138.167 20.5,137.333 19.5,136.5C 18.3463,117.544 18.1797,98.5436 19,79.5C 19.6897,77.6498 20.8564,76.3164 22.5,75.5 Z M 27.5,82.5 C 34.5736,82.161 41.5736,82.661 48.5,84C 51.9338,85.5293 53.6004,88.196 53.5,92C 53.5131,95.6373 52.1798,98.6373 49.5,101C 42.2542,102.391 34.9209,102.891 27.5,102.5C 27.5,95.8333 27.5,89.1667 27.5,82.5 Z M 27.5,110.5 C 35.253,110.104 42.9196,110.604 50.5,112C 56.778,117.629 57.1114,123.629 51.5,130C 43.5852,131.401 35.5852,131.901 27.5,131.5C 27.5,124.5 27.5,117.5 27.5,110.5 Z"/></g>
<g><path style="opacity:0.778" fill="#212121" d="M 84.5,93.5 C 102.21,93.5546 110.21,102.555 108.5,120.5C 97.8333,120.5 87.1667,120.5 76.5,120.5C 77.8405,128.195 82.5072,132.195 90.5,132.5C 95.7165,131.928 100.55,130.261 105,127.5C 107.956,131.129 107.789,134.296 104.5,137C 94.6129,141.965 84.9462,141.632 75.5,136C 67.6313,126.985 65.7979,116.818 70,105.5C 72.9402,99.0471 77.7735,95.0471 84.5,93.5 Z M 83.5,101.5 C 93.2,99.8819 98.5333,103.882 99.5,113.5C 91.8333,113.5 84.1667,113.5 76.5,113.5C 76.7956,108.233 79.1289,104.233 83.5,101.5 Z"/></g>
<g><path style="opacity:0.784" fill="#212121" d="M 155.5,93.5 C 164.367,92.5153 170.867,95.8486 175,103.5C 176.586,116.11 176.92,128.776 176,141.5C 173.642,151.187 167.476,156.687 157.5,158C 153.848,158.499 150.182,158.665 146.5,158.5C 146.5,155.833 146.5,153.167 146.5,150.5C 153.85,151.696 160.35,150.03 166,145.5C 167.952,141.696 168.619,137.696 168,133.5C 157.812,140.731 148.479,139.731 140,130.5C 136.426,121.019 136.759,111.686 141,102.5C 145.015,97.9464 149.848,94.9464 155.5,93.5 Z M 155.5,101.5 C 166.047,101.225 170.38,106.392 168.5,117C 168.333,119.5 168.167,122 168,124.5C 161.089,131.51 154.089,131.844 147,125.5C 144.168,117.584 145.335,110.417 150.5,104C 152.315,103.243 153.981,102.41 155.5,101.5 Z"/></g>
<g><path style="opacity:0.784" fill="#212121" d="M 196.5,93.5 C 214.294,93.6335 222.294,102.634 220.5,120.5C 209.828,120.333 199.161,120.5 188.5,121C 192.596,131.172 199.929,134.505 210.5,131C 212.746,129.961 214.913,128.794 217,127.5C 218.64,129.579 219.806,131.912 220.5,134.5C 207.427,143.223 195.261,142.223 184,131.5C 180.226,123.445 179.56,115.112 182,106.5C 185.162,100.164 189.996,95.8308 196.5,93.5 Z M 196.5,101.5 C 205.648,99.734 210.981,103.401 212.5,112.5C 204.521,113.665 196.521,113.832 188.5,113C 189.436,107.908 192.102,104.075 196.5,101.5 Z"/></g>
<g><path style="opacity:0.793" fill="#212121" d="M 126.5,94.5 C 130.167,94.5 133.833,94.5 137.5,94.5C 137.5,97.1667 137.5,99.8333 137.5,102.5C 134.15,102.335 130.817,102.502 127.5,103C 125.714,103.785 124.214,104.951 123,106.5C 121.569,117.422 121.069,128.422 121.5,139.5C 118.833,139.5 116.167,139.5 113.5,139.5C 113.333,128.495 113.5,117.495 114,106.5C 116.085,100.246 120.252,96.2462 126.5,94.5 Z"/></g>
<g><path style="opacity:0.732" fill="#202020" d="M 238.5,94.5 C 242.5,94.5 246.5,94.5 250.5,94.5C 250.5,97.1667 250.5,99.8333 250.5,102.5C 247.15,102.335 243.817,102.502 240.5,103C 237.943,103.685 236.109,105.185 235,107.5C 234.5,118.161 234.333,128.828 234.5,139.5C 231.5,139.5 228.5,139.5 225.5,139.5C 225.113,127.779 225.613,116.113 227,104.5C 229.194,99.1709 233.027,95.8375 238.5,94.5 Z"/></g>
<g><path style="opacity:0.999" fill="#8f9496" d="M 377.5,27.5 C 382.928,33.0216 386.261,39.6883 387.5,47.5C 390.465,66.1003 384.799,81.6003 370.5,94C 373.004,94.6976 375.337,95.5309 377.5,96.5C 376.86,99.8649 376.026,103.198 375,106.5C 374.5,136.498 374.333,166.498 374.5,196.5C 365.874,197.411 357.208,197.745 348.5,197.5C 348.5,196.833 348.833,196.5 349.5,196.5C 352.167,196.5 354.833,196.5 357.5,196.5C 361.182,196.665 364.848,196.499 368.5,196C 367.339,169.239 367.172,142.405 368,115.5C 368.463,109.353 369.629,103.353 371.5,97.5C 370.91,96.2011 369.91,95.3678 368.5,95C 372.125,78.8651 375.292,62.3651 378,45.5C 379.397,39.3428 379.23,33.3428 377.5,27.5 Z"/></g>
<g><path style="opacity:0.999" fill="#818689" d="M 377.5,96.5 C 379.965,96.767 382.299,97.4336 384.5,98.5C 384.5,130.167 384.5,161.833 384.5,193.5C 381.156,194.508 377.823,195.508 374.5,196.5C 374.333,166.498 374.5,136.498 375,106.5C 376.026,103.198 376.86,99.8649 377.5,96.5 Z"/></g>
<g><path style="opacity:0.192" fill="#1e1e1e" d="M 388.5,40.5 C 388.802,43.0593 388.468,45.3926 387.5,47.5C 386.261,39.6883 382.928,33.0216 377.5,27.5C 376.557,24.8908 374.89,22.8908 372.5,21.5C 370.445,19.4453 368.112,17.7787 365.5,16.5C 364.5,15.8333 363.5,15.1667 362.5,14.5C 360.5,13.8333 358.5,13.1667 356.5,12.5C 354.007,11.2264 351.341,10.5597 348.5,10.5C 348.167,10.5 347.833,10.5 347.5,10.5C 328.674,9.50304 309.674,9.16971 290.5,9.5C 287.167,9.5 283.833,9.5 280.5,9.5C 280.5,25.1667 280.5,40.8333 280.5,56.5C 280.5,70.8333 280.5,85.1667 280.5,99.5C 280.5,132.167 280.5,164.833 280.5,197.5C 285.167,197.5 289.833,197.5 294.5,197.5C 297.167,197.5 299.833,197.5 302.5,197.5C 317.833,197.5 333.167,197.5 348.5,197.5C 357.208,197.745 365.874,197.411 374.5,196.5C 377.823,195.508 381.156,194.508 384.5,193.5C 386.368,192.737 388.035,191.737 389.5,190.5C 392.511,189.331 395.178,187.664 397.5,185.5C 400.881,183.12 403.547,180.12 405.5,176.5C 411.277,169.194 414.944,160.86 416.5,151.5C 417.167,148.833 417.833,146.167 418.5,143.5C 419.195,168.589 408.195,186.756 385.5,198C 379.36,200.228 373.026,201.561 366.5,202C 338.5,202.667 310.5,202.667 282.5,202C 280.598,201.801 279.098,200.967 278,199.5C 277.17,135.126 277.337,70.7927 278.5,6.5C 279.729,5.71893 281.062,5.21893 282.5,5C 302.167,4.33333 321.833,4.33333 341.5,5C 364.957,6.70921 380.624,18.5425 388.5,40.5 Z"/></g>
<g><path style="opacity:0.998" fill="#787d7f" d="M 384.5,98.5 C 385.609,98.5569 386.609,98.8902 387.5,99.5C 389.466,129.677 390.133,160.011 389.5,190.5C 388.035,191.737 386.368,192.737 384.5,193.5C 384.5,161.833 384.5,130.167 384.5,98.5 Z"/></g>
<g><path style="opacity:1" fill="#aeb3b5" d="M 365.5,16.5 C 368.112,17.7787 370.445,19.4453 372.5,21.5C 373.371,31.4249 372.704,41.2582 370.5,51C 370.833,51.3333 371.167,51.6667 371.5,52C 366.28,73.7151 361.447,95.5485 357,117.5C 356.177,143.905 356.343,170.239 357.5,196.5C 354.833,196.5 352.167,196.5 349.5,196.5C 349.333,170.165 349.5,143.831 350,117.5C 354.525,93.735 359.525,70.0683 365,46.5C 364.913,36.4699 365.079,26.4699 365.5,16.5 Z"/></g>
<g><path style="opacity:1" fill="#93999d" d="M 280.5,56.5 C 281.483,60.2984 281.817,64.2984 281.5,68.5C 281.5,71.5 281.5,74.5 281.5,77.5C 281.5,84.1667 281.5,90.8333 281.5,97.5C 284.263,97.7438 286.429,99.0771 288,101.5C 291.561,108.4 293.894,115.733 295,123.5C 295.5,147.831 295.667,172.164 295.5,196.5C 296.833,196.5 298.167,196.5 299.5,196.5C 300.5,196.5 301.5,196.5 302.5,196.5C 302.5,196.833 302.5,197.167 302.5,197.5C 299.833,197.5 297.167,197.5 294.5,197.5C 293.791,196.596 292.791,196.263 291.5,196.5C 292.655,174.906 292.821,153.239 292,131.5C 291.146,123.797 288.146,117.13 283,111.5C 282.722,112.416 282.222,113.082 281.5,113.5C 281.819,108.637 281.486,103.97 280.5,99.5C 280.5,85.1667 280.5,70.8333 280.5,56.5 Z"/></g>
<g><path style="opacity:1" fill="#6e7375" d="M 387.5,99.5 C 391.221,101.354 394.554,103.687 397.5,106.5C 397.5,132.833 397.5,159.167 397.5,185.5C 395.178,187.664 392.511,189.331 389.5,190.5C 390.133,160.011 389.466,129.677 387.5,99.5 Z"/></g>
<g><path style="opacity:0.999" fill="#666b6d" d="M 397.5,106.5 C 399.833,108.167 401.833,110.167 403.5,112.5C 404.156,133.863 404.822,155.197 405.5,176.5C 403.547,180.12 400.881,183.12 397.5,185.5C 397.5,159.167 397.5,132.833 397.5,106.5 Z"/></g>
<g><path style="opacity:0.999" fill="#5d6264" d="M 403.5,112.5 C 413.194,123.582 417.528,136.582 416.5,151.5C 414.944,160.86 411.277,169.194 405.5,176.5C 404.822,155.197 404.156,133.863 403.5,112.5 Z"/></g>
<g><path style="opacity:0.678" fill="#73797c" d="M 280.5,99.5 C 281.486,103.97 281.819,108.637 281.5,113.5C 281.5,141.167 281.5,168.833 281.5,196.5C 284.833,196.5 288.167,196.5 291.5,196.5C 292.791,196.263 293.791,196.596 294.5,197.5C 289.833,197.5 285.167,197.5 280.5,197.5C 280.5,164.833 280.5,132.167 280.5,99.5 Z"/></g>
<g><path style="opacity:1" fill="#d3d7da" d="M 298.5,10.5 C 298.611,11.1174 298.944,11.6174 299.5,12C 298.137,13.9449 297.303,16.1116 297,18.5C 296.333,23.1667 296.333,27.8333 297,32.5C 303.851,49.0836 307.518,66.4169 308,84.5C 308.5,121.832 308.667,159.165 308.5,196.5C 308.167,196.5 307.833,196.5 307.5,196.5C 308.437,156.077 307.27,115.744 304,75.5C 301.69,62.3519 297.69,49.6852 292,37.5C 288.681,29.1039 288.848,20.7705 292.5,12.5C 292.291,11.914 291.957,11.414 291.5,11C 293.81,10.5034 296.143,10.3367 298.5,10.5 Z"/></g>
<g><path style="opacity:1" fill="#c1c5c8" d="M 356.5,12.5 C 358.5,13.1667 360.5,13.8333 362.5,14.5C 363.474,24.8643 363.474,35.031 362.5,45C 359.054,61.2213 355.221,77.388 351,93.5C 348.688,103.392 347.022,113.392 346,123.5C 345.173,147.739 345.339,171.906 346.5,196C 344.19,196.497 341.857,196.663 339.5,196.5C 338.094,169.216 338.261,141.883 340,114.5C 344.569,91.757 349.569,69.0904 355,46.5C 356.293,35.2061 356.793,23.8728 356.5,12.5 Z"/></g>
<g><path style="opacity:0.018" fill="#121212" d="M 388.5,40.5 C 394.032,60.6987 389.365,78.3654 374.5,93.5C 400.756,100.035 415.423,116.702 418.5,143.5C 417.833,146.167 417.167,148.833 416.5,151.5C 417.528,136.582 413.194,123.582 403.5,112.5C 401.833,110.167 399.833,108.167 397.5,106.5C 394.554,103.687 391.221,101.354 387.5,99.5C 386.609,98.8902 385.609,98.5569 384.5,98.5C 382.299,97.4336 379.965,96.767 377.5,96.5C 375.337,95.5309 373.004,94.6976 370.5,94C 384.799,81.6003 390.465,66.1003 387.5,47.5C 388.468,45.3926 388.802,43.0593 388.5,40.5 Z"/></g>
<g><path style="opacity:1" fill="#888f93" d="M 291.5,196.5 C 288.167,196.5 284.833,196.5 281.5,196.5C 281.5,168.833 281.5,141.167 281.5,113.5C 282.222,113.082 282.722,112.416 283,111.5C 288.146,117.13 291.146,123.797 292,131.5C 292.821,153.239 292.655,174.906 291.5,196.5 Z"/></g>
<g><path style="opacity:1" fill="#e3e7e9" d="M 298.5,10.5 C 301.167,10.5 303.833,10.5 306.5,10.5C 306.319,15.5607 305.652,20.5607 304.5,25.5C 306.145,33.8939 307.978,42.2273 310,50.5C 311.369,99.1548 311.869,147.822 311.5,196.5C 310.5,196.5 309.5,196.5 308.5,196.5C 308.667,159.165 308.5,121.832 308,84.5C 307.518,66.4169 303.851,49.0836 297,32.5C 296.333,27.8333 296.333,23.1667 297,18.5C 297.303,16.1116 298.137,13.9449 299.5,12C 298.944,11.6174 298.611,11.1174 298.5,10.5 Z"/></g>
<g><path style="opacity:1" fill="#d8dcde" d="M 341.5,10.5 C 343.5,10.5 345.5,10.5 347.5,10.5C 347.833,10.5 348.167,10.5 348.5,10.5C 349.998,20.523 349.832,30.523 348,40.5C 344.255,58.5579 340.255,76.5579 336,94.5C 334.708,102.797 333.708,111.13 333,119.5C 332.5,145.165 332.333,170.831 332.5,196.5C 330.167,196.5 327.833,196.5 325.5,196.5C 325.102,166.145 325.602,135.811 327,105.5C 328.127,95.0726 329.793,84.7393 332,74.5C 338.883,53.6115 342.05,32.2782 341.5,10.5 Z"/></g>
<g><path style="opacity:1" fill="#cdd2d4" d="M 348.5,10.5 C 351.341,10.5597 354.007,11.2264 356.5,12.5C 356.793,23.8728 356.293,35.2061 355,46.5C 349.569,69.0904 344.569,91.757 340,114.5C 338.261,141.883 338.094,169.216 339.5,196.5C 337.167,196.5 334.833,196.5 332.5,196.5C 332.333,170.831 332.5,145.165 333,119.5C 333.708,111.13 334.708,102.797 336,94.5C 340.255,76.5579 344.255,58.5579 348,40.5C 349.832,30.523 349.998,20.523 348.5,10.5 Z"/></g>
<g><path style="opacity:1" fill="#a0a6a9" d="M 299.5,196.5 C 298.167,196.5 296.833,196.5 295.5,196.5C 295.667,172.164 295.5,147.831 295,123.5C 293.894,115.733 291.561,108.4 288,101.5C 286.429,99.0771 284.263,97.7438 281.5,97.5C 281.5,90.8333 281.5,84.1667 281.5,77.5C 282.222,77.0825 282.722,76.4158 283,75.5C 291.486,84.8125 296.486,95.8125 298,108.5C 299.442,137.801 299.942,167.134 299.5,196.5 Z"/></g>
</svg>
